<svg xmlns="http://www.w3.org/2000/svg" width="1780" height="1120" viewBox="0 0 1780 1120"><defs><linearGradient id="bg" x1="0" y1="0" x2="1" y2="1"><stop offset="0%" stop-color="#f6fbff"/><stop offset="100%" stop-color="#eef6ff"/></linearGradient></defs><rect x="0" y="0" width="1780" height="1120" fill="url(#bg)"/><text x="70" y="44" font-family="ui-monospace, Menlo, Consolas, monospace" font-size="30" fill="#0f172a">DeepSeek-R1-0528-Qwen3-8B (FP16 vs Ollama deepseek-r1) Benchmark (varied_unique_prefix)</text><text x="70" y="70" font-family="ui-monospace, Menlo, Consolas, monospace" font-size="13" fill="#334155">source: lane_benchmark_20260309_231250.json | top panel labels: tok/s | peak GiB</text><line x1="70" y1="98" x2="100" y2="98" stroke="#0057E7" stroke-width="4"/><text x="108" y="103" font-family="ui-monospace, Menlo, Consolas, monospace" font-size="14" fill="#0f172a">vLLM prefix OFF</text><line x1="300" y1="98" x2="330" y2="98" stroke="#00A676" stroke-width="4"/><text x="338" y="103" font-family="ui-monospace, Menlo, Consolas, monospace" font-size="14" fill="#0f172a">vLLM prefix ON</text><line x1="530" y1="98" x2="560" y2="98" stroke="#FF7F11" stroke-width="4"/><text x="568" y="103" font-family="ui-monospace, Menlo, Consolas, monospace" font-size="14" fill="#0f172a">Ollama np=1</text><line x1="760" y1="98" x2="790" y2="98" stroke="#D7263D" stroke-width="4"/><text x="798" y="103" font-family="ui-monospace, Menlo, Consolas, monospace" font-size="14" fill="#0f172a">Ollama np=4</text><line x1="990" y1="98" x2="1020" y2="98" stroke="#7F3C8D" stroke-width="4"/><text x="1028" y="103" font-family="ui-monospace, Menlo, Consolas, monospace" font-size="14" fill="#0f172a">Ollama np=8</text><line x1="1220" y1="98" x2="1250" y2="98" stroke="#6B7280" stroke-width="4"/><text x="1258" y="103" font-family="ui-monospace, Menlo, Consolas, monospace" font-size="14" fill="#0f172a">Ollama np=16</text><line x1="1450" y1="98" x2="1480" y2="98" stroke="#0057E7" stroke-width="4"/><text x="1488" y="103" font-family="ui-monospace, Menlo, Consolas, monospace" font-size="14" fill="#0f172a">Ollama np=32</text><line x1="1430" y1="90" x2="1460" y2="90" stroke="#1f2937" stroke-width="3"/><text x="1465" y="95" font-family="ui-monospace, Menlo, Consolas, monospace" font-size="12" fill="#0f172a">TTFT (ms)</text><line x1="1430" y1="108" x2="1460" y2="108" stroke="#1f2937" stroke-width="3" stroke-dasharray="7 5"/><text x="1465" y="113" font-family="ui-monospace, Menlo, Consolas, monospace" font-size="12" fill="#0f172a">P95 latency (ms)</text><rect x="70" y="130" width="1640" height="420" rx="16" fill="#ffffff" stroke="#c7d7ee" stroke-width="1.2"/><text x="86" y="148" font-family="ui-monospace, Menlo, Consolas, monospace" font-size="16" fill="#0f172a">Throughput</text><line x1="140.0" y1="494.0" x2="1430.0" y2="494.0" stroke="#e8eff9" stroke-width="1"/><text x="130.0" y="498.0" font-family="ui-monospace, Menlo, Consolas, monospace" font-size="11" text-anchor="end" fill="#334155">0</text><line x1="140.0" y1="437.3" x2="1430.0" y2="437.3" stroke="#e8eff9" stroke-width="1"/><text x="130.0" y="441.3" font-family="ui-monospace, Menlo, Consolas, monospace" font-size="11" text-anchor="end" fill="#334155">155</text><line x1="140.0" y1="380.7" x2="1430.0" y2="380.7" stroke="#e8eff9" stroke-width="1"/><text x="130.0" y="384.7" font-family="ui-monospace, Menlo, Consolas, monospace" font-size="11" text-anchor="end" fill="#334155">310</text><line x1="140.0" y1="324.0" x2="1430.0" y2="324.0" stroke="#e8eff9" stroke-width="1"/><text x="130.0" y="328.0" font-family="ui-monospace, Menlo, Consolas, monospace" font-size="11" text-anchor="end" fill="#334155">465</text><line x1="140.0" y1="267.3" x2="1430.0" y2="267.3" stroke="#e8eff9" stroke-width="1"/><text x="130.0" y="271.3" font-family="ui-monospace, Menlo, Consolas, monospace" font-size="11" text-anchor="end" fill="#334155">620</text><line x1="140.0" y1="210.7" x2="1430.0" y2="210.7" stroke="#e8eff9" stroke-width="1"/><text x="130.0" y="214.7" font-family="ui-monospace, Menlo, Consolas, monospace" font-size="11" text-anchor="end" fill="#334155">775</text><line x1="140.0" y1="154.0" x2="1430.0" y2="154.0" stroke="#e8eff9" stroke-width="1"/><text x="130.0" y="158.0" font-family="ui-monospace, Menlo, Consolas, monospace" font-size="11" text-anchor="end" fill="#334155">930</text><line x1="140.0" y1="154.0" x2="140.0" y2="494.0" stroke="#f2f6fc" stroke-width="1"/><text x="140.0" y="519.0" font-family="ui-monospace, Menlo, Consolas, monospace" font-size="11" text-anchor="middle" fill="#1f2937">1</text><line x1="462.5" y1="154.0" x2="462.5" y2="494.0" stroke="#f2f6fc" stroke-width="1"/><text x="462.5" y="519.0" font-family="ui-monospace, Menlo, Consolas, monospace" font-size="11" text-anchor="middle" fill="#1f2937">4</text><line x1="785.0" y1="154.0" x2="785.0" y2="494.0" stroke="#f2f6fc" stroke-width="1"/><text x="785.0" y="519.0" font-family="ui-monospace, Menlo, Consolas, monospace" font-size="11" text-anchor="middle" fill="#1f2937">8</text><line x1="1107.5" y1="154.0" x2="1107.5" y2="494.0" stroke="#f2f6fc" stroke-width="1"/><text x="1107.5" y="519.0" font-family="ui-monospace, Menlo, Consolas, monospace" font-size="11" text-anchor="middle" fill="#1f2937">16</text><line x1="1430.0" y1="154.0" x2="1430.0" y2="494.0" stroke="#f2f6fc" stroke-width="1"/><text x="1430.0" y="519.0" font-family="ui-monospace, Menlo, Consolas, monospace" font-size="11" text-anchor="middle" fill="#1f2937">32</text><line x1="140.0" y1="494.0" x2="1430.0" y2="494.0" stroke="#0f172a" stroke-width="2"/><line x1="140.0" y1="154.0" x2="140.0" y2="494.0" stroke="#0f172a" stroke-width="2"/><text x="785.0" y="538.0" font-family="ui-monospace, Menlo, Consolas, monospace" font-size="13" text-anchor="middle" fill="#0f172a">Concurrency</text><text x="84" y="324.0" font-family="ui-monospace, Menlo, Consolas, monospace" font-size="13" text-anchor="middle" transform="rotate(-90 84,324.0)" fill="#0f172a">Aggregate tok/s</text><rect x="70" y="600" width="1640" height="420" rx="16" fill="#ffffff" stroke="#c7d7ee" stroke-width="1.2"/><text x="86" y="618" font-family="ui-monospace, Menlo, Consolas, monospace" font-size="16" fill="#0f172a">Latency</text><line x1="140.0" y1="964.0" x2="1430.0" y2="964.0" stroke="#e8eff9" stroke-width="1"/><text x="130.0" y="968.0" font-family="ui-monospace, Menlo, Consolas, monospace" font-size="11" text-anchor="end" fill="#334155">0</text><line x1="140.0" y1="907.3" x2="1430.0" y2="907.3" stroke="#e8eff9" stroke-width="1"/><text x="130.0" y="911.3" font-family="ui-monospace, Menlo, Consolas, monospace" font-size="11" text-anchor="end" fill="#334155">20695</text><line x1="140.0" y1="850.7" x2="1430.0" y2="850.7" stroke="#e8eff9" stroke-width="1"/><text x="130.0" y="854.7" font-family="ui-monospace, Menlo, Consolas, monospace" font-size="11" text-anchor="end" fill="#334155">41390</text><line x1="140.0" y1="794.0" x2="1430.0" y2="794.0" stroke="#e8eff9" stroke-width="1"/><text x="130.0" y="798.0" font-family="ui-monospace, Menlo, Consolas, monospace" font-size="11" text-anchor="end" fill="#334155">62086</text><line x1="140.0" y1="737.3" x2="1430.0" y2="737.3" stroke="#e8eff9" stroke-width="1"/><text x="130.0" y="741.3" font-family="ui-monospace, Menlo, Consolas, monospace" font-size="11" text-anchor="end" fill="#334155">82781</text><line x1="140.0" y1="680.7" x2="1430.0" y2="680.7" stroke="#e8eff9" stroke-width="1"/><text x="130.0" y="684.7" font-family="ui-monospace, Menlo, Consolas, monospace" font-size="11" text-anchor="end" fill="#334155">103476</text><line x1="140.0" y1="624.0" x2="1430.0" y2="624.0" stroke="#e8eff9" stroke-width="1"/><text x="130.0" y="628.0" font-family="ui-monospace, Menlo, Consolas, monospace" font-size="11" text-anchor="end" fill="#334155">124171</text><line x1="140.0" y1="624.0" x2="140.0" y2="964.0" stroke="#f2f6fc" stroke-width="1"/><text x="140.0" y="989.0" font-family="ui-monospace, Menlo, Consolas, monospace" font-size="11" text-anchor="middle" fill="#1f2937">1</text><line x1="462.5" y1="624.0" x2="462.5" y2="964.0" stroke="#f2f6fc" stroke-width="1"/><text x="462.5" y="989.0" font-family="ui-monospace, Menlo, Consolas, monospace" font-size="11" text-anchor="middle" fill="#1f2937">4</text><line x1="785.0" y1="624.0" x2="785.0" y2="964.0" stroke="#f2f6fc" stroke-width="1"/><text x="785.0" y="989.0" font-family="ui-monospace, Menlo, Consolas, monospace" font-size="11" text-anchor="middle" fill="#1f2937">8</text><line x1="1107.5" y1="624.0" x2="1107.5" y2="964.0" stroke="#f2f6fc" stroke-width="1"/><text x="1107.5" y="989.0" font-family="ui-monospace, Menlo, Consolas, monospace" font-size="11" text-anchor="middle" fill="#1f2937">16</text><line x1="1430.0" y1="624.0" x2="1430.0" y2="964.0" stroke="#f2f6fc" stroke-width="1"/><text x="1430.0" y="989.0" font-family="ui-monospace, Menlo, Consolas, monospace" font-size="11" text-anchor="middle" fill="#1f2937">32</text><line x1="140.0" y1="964.0" x2="1430.0" y2="964.0" stroke="#0f172a" stroke-width="2"/><line x1="140.0" y1="624.0" x2="140.0" y2="964.0" stroke="#0f172a" stroke-width="2"/><text x="785.0" y="1008.0" font-family="ui-monospace, Menlo, Consolas, monospace" font-size="13" text-anchor="middle" fill="#0f172a">Concurrency</text><text x="84" y="794.0" font-family="ui-monospace, Menlo, Consolas, monospace" font-size="13" text-anchor="middle" transform="rotate(-90 84,794.0)" fill="#0f172a">Milliseconds</text><polyline points="140.0,483.9 462.5,455.6 785.0,412.1 1107.5,338.8 1430.0,203.8" fill="none" stroke="#0057E7" stroke-width="3.2"/><circle cx="140.0" cy="483.9" r="4.4" fill="#0057E7" stroke="#ffffff" stroke-width="1.2"/><circle cx="462.5" cy="455.6" r="4.4" fill="#0057E7" stroke="#ffffff" stroke-width="1.2"/><circle cx="785.0" cy="412.1" r="4.4" fill="#0057E7" stroke="#ffffff" stroke-width="1.2"/><circle cx="1107.5" cy="338.8" r="4.4" fill="#0057E7" stroke="#ffffff" stroke-width="1.2"/><circle cx="1430.0" cy="203.8" r="4.4" fill="#0057E7" stroke="#ffffff" stroke-width="1.2"/><polyline points="140.0,963.8 462.5,963.5 785.0,963.0 1107.5,962.4 1430.0,961.5" fill="none" stroke="#0057E7" stroke-width="2.8"/><polyline points="140.0,944.3 462.5,943.1 785.0,944.4 1107.5,943.4 1430.0,941.9" fill="none" stroke="#0057E7" stroke-width="2.8" stroke-dasharray="7 5"/><circle cx="140.0" cy="963.8" r="3.5" fill="#0057E7" stroke="#ffffff" stroke-width="1"/><circle cx="462.5" cy="963.5" r="3.5" fill="#0057E7" stroke="#ffffff" stroke-width="1"/><circle cx="785.0" cy="963.0" r="3.5" fill="#0057E7" stroke="#ffffff" stroke-width="1"/><circle cx="1107.5" cy="962.4" r="3.5" fill="#0057E7" stroke="#ffffff" stroke-width="1"/><circle cx="1430.0" cy="961.5" r="3.5" fill="#0057E7" stroke="#ffffff" stroke-width="1"/><circle cx="140.0" cy="944.3" r="3.5" fill="#ffffff" stroke="#0057E7" stroke-width="1.6"/><circle cx="462.5" cy="943.1" r="3.5" fill="#ffffff" stroke="#0057E7" stroke-width="1.6"/><circle cx="785.0" cy="944.4" r="3.5" fill="#ffffff" stroke="#0057E7" stroke-width="1.6"/><circle cx="1107.5" cy="943.4" r="3.5" fill="#ffffff" stroke="#0057E7" stroke-width="1.6"/><circle cx="1430.0" cy="941.9" r="3.5" fill="#ffffff" stroke="#0057E7" stroke-width="1.6"/><polyline points="140.0,482.0 462.5,450.9 785.0,411.5 1107.5,329.6 1430.0,200.9" fill="none" stroke="#00A676" stroke-width="3.2"/><circle cx="140.0" cy="482.0" r="4.4" fill="#00A676" stroke="#ffffff" stroke-width="1.2"/><circle cx="462.5" cy="450.9" r="4.4" fill="#00A676" stroke="#ffffff" stroke-width="1.2"/><circle cx="785.0" cy="411.5" r="4.4" fill="#00A676" stroke="#ffffff" stroke-width="1.2"/><circle cx="1107.5" cy="329.6" r="4.4" fill="#00A676" stroke="#ffffff" stroke-width="1.2"/><circle cx="1430.0" cy="200.9" r="4.4" fill="#00A676" stroke="#ffffff" stroke-width="1.2"/><polyline points="140.0,963.8 462.5,963.5 785.0,963.1 1107.5,962.4 1430.0,961.6" fill="none" stroke="#00A676" stroke-width="2.8"/><polyline points="140.0,947.3 462.5,945.4 785.0,944.6 1107.5,944.5 1430.0,942.1" fill="none" stroke="#00A676" stroke-width="2.8" stroke-dasharray="7 5"/><circle cx="140.0" cy="963.8" r="3.5" fill="#00A676" stroke="#ffffff" stroke-width="1"/><circle cx="462.5" cy="963.5" r="3.5" fill="#00A676" stroke="#ffffff" stroke-width="1"/><circle cx="785.0" cy="963.1" r="3.5" fill="#00A676" stroke="#ffffff" stroke-width="1"/><circle cx="1107.5" cy="962.4" r="3.5" fill="#00A676" stroke="#ffffff" stroke-width="1"/><circle cx="1430.0" cy="961.6" r="3.5" fill="#00A676" stroke="#ffffff" stroke-width="1"/><circle cx="140.0" cy="947.3" r="3.5" fill="#ffffff" stroke="#00A676" stroke-width="1.6"/><circle cx="462.5" cy="945.4" r="3.5" fill="#ffffff" stroke="#00A676" stroke-width="1.6"/><circle cx="785.0" cy="944.6" r="3.5" fill="#ffffff" stroke="#00A676" stroke-width="1.6"/><circle cx="1107.5" cy="944.5" r="3.5" fill="#ffffff" stroke="#00A676" stroke-width="1.6"/><circle cx="1430.0" cy="942.1" r="3.5" fill="#ffffff" stroke="#00A676" stroke-width="1.6"/><polyline points="140.0,476.4 462.5,473.2 785.0,473.0 1107.5,472.9 1430.0,472.8" fill="none" stroke="#FF7F11" stroke-width="3.2"/><circle cx="140.0" cy="476.4" r="4.4" fill="#FF7F11" stroke="#ffffff" stroke-width="1.2"/><circle cx="462.5" cy="473.2" r="4.4" fill="#FF7F11" stroke="#ffffff" stroke-width="1.2"/><circle cx="785.0" cy="473.0" r="4.4" fill="#FF7F11" stroke="#ffffff" stroke-width="1.2"/><circle cx="1107.5" cy="472.9" r="4.4" fill="#FF7F11" stroke="#ffffff" stroke-width="1.2"/><circle cx="1430.0" cy="472.8" r="4.4" fill="#FF7F11" stroke="#ffffff" stroke-width="1.2"/><polyline points="140.0,962.4 462.5,948.8 785.0,930.1 1107.5,892.3 1430.0,816.5" fill="none" stroke="#FF7F11" stroke-width="2.8"/><polyline points="140.0,952.6 462.5,925.4 785.0,887.8 1107.5,812.5 1430.0,670.9" fill="none" stroke="#FF7F11" stroke-width="2.8" stroke-dasharray="7 5"/><circle cx="140.0" cy="962.4" r="3.5" fill="#FF7F11" stroke="#ffffff" stroke-width="1"/><circle cx="462.5" cy="948.8" r="3.5" fill="#FF7F11" stroke="#ffffff" stroke-width="1"/><circle cx="785.0" cy="930.1" r="3.5" fill="#FF7F11" stroke="#ffffff" stroke-width="1"/><circle cx="1107.5" cy="892.3" r="3.5" fill="#FF7F11" stroke="#ffffff" stroke-width="1"/><circle cx="1430.0" cy="816.5" r="3.5" fill="#FF7F11" stroke="#ffffff" stroke-width="1"/><circle cx="140.0" cy="952.6" r="3.5" fill="#ffffff" stroke="#FF7F11" stroke-width="1.6"/><circle cx="462.5" cy="925.4" r="3.5" fill="#ffffff" stroke="#FF7F11" stroke-width="1.6"/><circle cx="785.0" cy="887.8" r="3.5" fill="#ffffff" stroke="#FF7F11" stroke-width="1.6"/><circle cx="1107.5" cy="812.5" r="3.5" fill="#ffffff" stroke="#FF7F11" stroke-width="1.6"/><circle cx="1430.0" cy="670.9" r="3.5" fill="#ffffff" stroke="#FF7F11" stroke-width="1.6"/><polyline points="140.0,475.2 462.5,449.3 785.0,448.2 1107.5,448.1 1430.0,448.1" fill="none" stroke="#D7263D" stroke-width="3.2"/><circle cx="140.0" cy="475.2" r="4.4" fill="#D7263D" stroke="#ffffff" stroke-width="1.2"/><circle cx="462.5" cy="449.3" r="4.4" fill="#D7263D" stroke="#ffffff" stroke-width="1.2"/><circle cx="785.0" cy="448.2" r="4.4" fill="#D7263D" stroke="#ffffff" stroke-width="1.2"/><circle cx="1107.5" cy="448.1" r="4.4" fill="#D7263D" stroke="#ffffff" stroke-width="1.2"/><circle cx="1430.0" cy="448.1" r="4.4" fill="#D7263D" stroke="#ffffff" stroke-width="1.2"/><polyline points="140.0,962.5 462.5,961.9 785.0,953.9 1107.5,936.9 1430.0,902.1" fill="none" stroke="#D7263D" stroke-width="2.8"/><polyline points="140.0,953.3 462.5,946.1 785.0,929.0 1107.5,894.2 1430.0,824.3" fill="none" stroke="#D7263D" stroke-width="2.8" stroke-dasharray="7 5"/><circle cx="140.0" cy="962.5" r="3.5" fill="#D7263D" stroke="#ffffff" stroke-width="1"/><circle cx="462.5" cy="961.9" r="3.5" fill="#D7263D" stroke="#ffffff" stroke-width="1"/><circle cx="785.0" cy="953.9" r="3.5" fill="#D7263D" stroke="#ffffff" stroke-width="1"/><circle cx="1107.5" cy="936.9" r="3.5" fill="#D7263D" stroke="#ffffff" stroke-width="1"/><circle cx="1430.0" cy="902.1" r="3.5" fill="#D7263D" stroke="#ffffff" stroke-width="1"/><circle cx="140.0" cy="953.3" r="3.5" fill="#ffffff" stroke="#D7263D" stroke-width="1.6"/><circle cx="462.5" cy="946.1" r="3.5" fill="#ffffff" stroke="#D7263D" stroke-width="1.6"/><circle cx="785.0" cy="929.0" r="3.5" fill="#ffffff" stroke="#D7263D" stroke-width="1.6"/><circle cx="1107.5" cy="894.2" r="3.5" fill="#ffffff" stroke="#D7263D" stroke-width="1.6"/><circle cx="1430.0" cy="824.3" r="3.5" fill="#ffffff" stroke="#D7263D" stroke-width="1.6"/><polyline points="140.0,476.1 462.5,449.2 785.0,442.5 1107.5,443.1 1430.0,442.9" fill="none" stroke="#7F3C8D" stroke-width="3.2"/><circle cx="140.0" cy="476.1" r="4.4" fill="#7F3C8D" stroke="#ffffff" stroke-width="1.2"/><circle cx="462.5" cy="449.2" r="4.4" fill="#7F3C8D" stroke="#ffffff" stroke-width="1.2"/><circle cx="785.0" cy="442.5" r="4.4" fill="#7F3C8D" stroke="#ffffff" stroke-width="1.2"/><circle cx="1107.5" cy="443.1" r="4.4" fill="#7F3C8D" stroke="#ffffff" stroke-width="1.2"/><circle cx="1430.0" cy="442.9" r="4.4" fill="#7F3C8D" stroke="#ffffff" stroke-width="1.2"/><polyline points="140.0,962.4 462.5,962.1 785.0,961.4 1107.5,946.7 1430.0,915.3" fill="none" stroke="#7F3C8D" stroke-width="2.8"/><polyline points="140.0,952.8 462.5,946.1 785.0,932.9 1107.5,901.1 1430.0,838.6" fill="none" stroke="#7F3C8D" stroke-width="2.8" stroke-dasharray="7 5"/><circle cx="140.0" cy="962.4" r="3.5" fill="#7F3C8D" stroke="#ffffff" stroke-width="1"/><circle cx="462.5" cy="962.1" r="3.5" fill="#7F3C8D" stroke="#ffffff" stroke-width="1"/><circle cx="785.0" cy="961.4" r="3.5" fill="#7F3C8D" stroke="#ffffff" stroke-width="1"/><circle cx="1107.5" cy="946.7" r="3.5" fill="#7F3C8D" stroke="#ffffff" stroke-width="1"/><circle cx="1430.0" cy="915.3" r="3.5" fill="#7F3C8D" stroke="#ffffff" stroke-width="1"/><circle cx="140.0" cy="952.8" r="3.5" fill="#ffffff" stroke="#7F3C8D" stroke-width="1.6"/><circle cx="462.5" cy="946.1" r="3.5" fill="#ffffff" stroke="#7F3C8D" stroke-width="1.6"/><circle cx="785.0" cy="932.9" r="3.5" fill="#ffffff" stroke="#7F3C8D" stroke-width="1.6"/><circle cx="1107.5" cy="901.1" r="3.5" fill="#ffffff" stroke="#7F3C8D" stroke-width="1.6"/><circle cx="1430.0" cy="838.6" r="3.5" fill="#ffffff" stroke="#7F3C8D" stroke-width="1.6"/><polyline points="140.0,475.0 462.5,449.7 785.0,442.8 1107.5,404.4 1430.0,405.9" fill="none" stroke="#6B7280" stroke-width="3.2"/><circle cx="140.0" cy="475.0" r="4.4" fill="#6B7280" stroke="#ffffff" stroke-width="1.2"/><circle cx="462.5" cy="449.7" r="4.4" fill="#6B7280" stroke="#ffffff" stroke-width="1.2"/><circle cx="785.0" cy="442.8" r="4.4" fill="#6B7280" stroke="#ffffff" stroke-width="1.2"/><circle cx="1107.5" cy="404.4" r="4.4" fill="#6B7280" stroke="#ffffff" stroke-width="1.2"/><circle cx="1430.0" cy="405.9" r="4.4" fill="#6B7280" stroke="#ffffff" stroke-width="1.2"/><polyline points="140.0,962.6 462.5,962.0 785.0,961.2 1107.5,959.3 1430.0,942.7" fill="none" stroke="#6B7280" stroke-width="2.8"/><polyline points="140.0,953.4 462.5,945.9 785.0,932.7 1107.5,928.2 1430.0,891.3" fill="none" stroke="#6B7280" stroke-width="2.8" stroke-dasharray="7 5"/><circle cx="140.0" cy="962.6" r="3.5" fill="#6B7280" stroke="#ffffff" stroke-width="1"/><circle cx="462.5" cy="962.0" r="3.5" fill="#6B7280" stroke="#ffffff" stroke-width="1"/><circle cx="785.0" cy="961.2" r="3.5" fill="#6B7280" stroke="#ffffff" stroke-width="1"/><circle cx="1107.5" cy="959.3" r="3.5" fill="#6B7280" stroke="#ffffff" stroke-width="1"/><circle cx="1430.0" cy="942.7" r="3.5" fill="#6B7280" stroke="#ffffff" stroke-width="1"/><circle cx="140.0" cy="953.4" r="3.5" fill="#ffffff" stroke="#6B7280" stroke-width="1.6"/><circle cx="462.5" cy="945.9" r="3.5" fill="#ffffff" stroke="#6B7280" stroke-width="1.6"/><circle cx="785.0" cy="932.7" r="3.5" fill="#ffffff" stroke="#6B7280" stroke-width="1.6"/><circle cx="1107.5" cy="928.2" r="3.5" fill="#ffffff" stroke="#6B7280" stroke-width="1.6"/><circle cx="1430.0" cy="891.3" r="3.5" fill="#ffffff" stroke="#6B7280" stroke-width="1.6"/><polyline points="140.0,476.2 462.5,448.8 785.0,441.0 1107.5,401.0 1430.0,373.9" fill="none" stroke="#0057E7" stroke-width="3.2"/><circle cx="140.0" cy="476.2" r="4.4" fill="#0057E7" stroke="#ffffff" stroke-width="1.2"/><circle cx="462.5" cy="448.8" r="4.4" fill="#0057E7" stroke="#ffffff" stroke-width="1.2"/><circle cx="785.0" cy="441.0" r="4.4" fill="#0057E7" stroke="#ffffff" stroke-width="1.2"/><circle cx="1107.5" cy="401.0" r="4.4" fill="#0057E7" stroke="#ffffff" stroke-width="1.2"/><circle cx="1430.0" cy="373.9" r="4.4" fill="#0057E7" stroke="#ffffff" stroke-width="1.2"/><polyline points="140.0,962.6 462.5,962.1 785.0,961.3 1107.5,959.4 1430.0,955.2" fill="none" stroke="#0057E7" stroke-width="2.8"/><polyline points="140.0,952.7 462.5,946.3 785.0,933.8 1107.5,929.5 1430.0,910.7" fill="none" stroke="#0057E7" stroke-width="2.8" stroke-dasharray="7 5"/><circle cx="140.0" cy="962.6" r="3.5" fill="#0057E7" stroke="#ffffff" stroke-width="1"/><circle cx="462.5" cy="962.1" r="3.5" fill="#0057E7" stroke="#ffffff" stroke-width="1"/><circle cx="785.0" cy="961.3" r="3.5" fill="#0057E7" stroke="#ffffff" stroke-width="1"/><circle cx="1107.5" cy="959.4" r="3.5" fill="#0057E7" stroke="#ffffff" stroke-width="1"/><circle cx="1430.0" cy="955.2" r="3.5" fill="#0057E7" stroke="#ffffff" stroke-width="1"/><circle cx="140.0" cy="952.7" r="3.5" fill="#ffffff" stroke="#0057E7" stroke-width="1.6"/><circle cx="462.5" cy="946.3" r="3.5" fill="#ffffff" stroke="#0057E7" stroke-width="1.6"/><circle cx="785.0" cy="933.8" r="3.5" fill="#ffffff" stroke="#0057E7" stroke-width="1.6"/><circle cx="1107.5" cy="929.5" r="3.5" fill="#ffffff" stroke="#0057E7" stroke-width="1.6"/><circle cx="1430.0" cy="910.7" r="3.5" fill="#ffffff" stroke="#0057E7" stroke-width="1.6"/><line x1="140.0" y1="483.9" x2="150.0" y2="400.0" stroke="#0057E7" stroke-width="1.4" stroke-opacity="0.95"/><rect x="150.0" y="384.0" width="84.0" height="18.0" rx="5" fill="#ffffff" fill-opacity="0.98" stroke="#0057E7" stroke-width="1.8"/><text x="155.0" y="397.0" font-family="ui-monospace, Menlo, Consolas, monospace" font-size="10" fill="#0b1220" style="paint-order:stroke;stroke:#ffffff;stroke-width:2.4;stroke-linejoin:round;">27.7 | 29.6G</text><line x1="140.0" y1="482.0" x2="146.0" y2="444.0" stroke="#00A676" stroke-width="1.4" stroke-opacity="0.95"/><rect x="146.0" y="428.0" width="84.0" height="18.0" rx="5" fill="#ffffff" fill-opacity="0.98" stroke="#00A676" stroke-width="1.8"/><text x="151.0" y="441.0" font-family="ui-monospace, Menlo, Consolas, monospace" font-size="10" fill="#0b1220" style="paint-order:stroke;stroke:#ffffff;stroke-width:2.4;stroke-linejoin:round;">32.8 | 29.6G</text><line x1="140.0" y1="476.4" x2="150.0" y2="356.0" stroke="#FF7F11" stroke-width="1.4" stroke-opacity="0.95"/><rect x="150.0" y="340.0" width="78.0" height="18.0" rx="5" fill="#ffffff" fill-opacity="0.98" stroke="#FF7F11" stroke-width="1.8"/><text x="155.0" y="353.0" font-family="ui-monospace, Menlo, Consolas, monospace" font-size="10" fill="#0b1220" style="paint-order:stroke;stroke:#ffffff;stroke-width:2.4;stroke-linejoin:round;">48.0 | 5.4G</text><line x1="140.0" y1="475.2" x2="146.0" y2="422.0" stroke="#D7263D" stroke-width="1.4" stroke-opacity="0.95"/><rect x="146.0" y="406.0" width="78.0" height="18.0" rx="5" fill="#ffffff" fill-opacity="0.98" stroke="#D7263D" stroke-width="1.8"/><text x="151.0" y="419.0" font-family="ui-monospace, Menlo, Consolas, monospace" font-size="10" fill="#0b1220" style="paint-order:stroke;stroke:#ffffff;stroke-width:2.4;stroke-linejoin:round;">51.3 | 6.3G</text><line x1="140.0" y1="476.1" x2="150.0" y2="476.1" stroke="#7F3C8D" stroke-width="1.4" stroke-opacity="0.95"/><rect x="150.0" y="472.0" width="78.0" height="18.0" rx="5" fill="#ffffff" fill-opacity="0.98" stroke="#7F3C8D" stroke-width="1.8"/><text x="155.0" y="485.0" font-family="ui-monospace, Menlo, Consolas, monospace" font-size="10" fill="#0b1220" style="paint-order:stroke;stroke:#ffffff;stroke-width:2.4;stroke-linejoin:round;">48.9 | 7.7G</text><line x1="140.0" y1="475.0" x2="146.0" y2="378.0" stroke="#6B7280" stroke-width="1.4" stroke-opacity="0.95"/><rect x="146.0" y="362.0" width="84.0" height="18.0" rx="5" fill="#ffffff" fill-opacity="0.98" stroke="#6B7280" stroke-width="1.8"/><text x="151.0" y="375.0" font-family="ui-monospace, Menlo, Consolas, monospace" font-size="10" fill="#0b1220" style="paint-order:stroke;stroke:#ffffff;stroke-width:2.4;stroke-linejoin:round;">51.9 | 10.3G</text><line x1="140.0" y1="476.2" x2="150.0" y2="466.0" stroke="#0057E7" stroke-width="1.4" stroke-opacity="0.95"/><rect x="150.0" y="450.0" width="84.0" height="18.0" rx="5" fill="#ffffff" fill-opacity="0.98" stroke="#0057E7" stroke-width="1.8"/><text x="155.0" y="463.0" font-family="ui-monospace, Menlo, Consolas, monospace" font-size="10" fill="#0b1220" style="paint-order:stroke;stroke:#ffffff;stroke-width:2.4;stroke-linejoin:round;">48.5 | 15.5G</text><line x1="462.5" y1="455.6" x2="472.5" y2="356.0" stroke="#0057E7" stroke-width="1.4" stroke-opacity="0.95"/><rect x="472.5" y="340.0" width="90.0" height="18.0" rx="5" fill="#ffffff" fill-opacity="0.98" stroke="#0057E7" stroke-width="1.8"/><text x="477.5" y="353.0" font-family="ui-monospace, Menlo, Consolas, monospace" font-size="10" fill="#0b1220" style="paint-order:stroke;stroke:#ffffff;stroke-width:2.4;stroke-linejoin:round;">104.9 | 29.6G</text><line x1="462.5" y1="450.9" x2="452.5" y2="422.0" stroke="#00A676" stroke-width="1.4" stroke-opacity="0.95"/><rect x="362.5" y="406.0" width="90.0" height="18.0" rx="5" fill="#ffffff" fill-opacity="0.98" stroke="#00A676" stroke-width="1.8"/><text x="367.5" y="419.0" font-family="ui-monospace, Menlo, Consolas, monospace" font-size="10" fill="#0b1220" style="paint-order:stroke;stroke:#ffffff;stroke-width:2.4;stroke-linejoin:round;">117.9 | 29.6G</text><line x1="462.5" y1="473.2" x2="472.5" y2="400.0" stroke="#FF7F11" stroke-width="1.4" stroke-opacity="0.95"/><rect x="472.5" y="384.0" width="78.0" height="18.0" rx="5" fill="#ffffff" fill-opacity="0.98" stroke="#FF7F11" stroke-width="1.8"/><text x="477.5" y="397.0" font-family="ui-monospace, Menlo, Consolas, monospace" font-size="10" fill="#0b1220" style="paint-order:stroke;stroke:#ffffff;stroke-width:2.4;stroke-linejoin:round;">56.8 | 5.4G</text><line x1="462.5" y1="449.3" x2="452.5" y2="444.0" stroke="#D7263D" stroke-width="1.4" stroke-opacity="0.95"/><rect x="368.5" y="428.0" width="84.0" height="18.0" rx="5" fill="#ffffff" fill-opacity="0.98" stroke="#D7263D" stroke-width="1.8"/><text x="373.5" y="441.0" font-family="ui-monospace, Menlo, Consolas, monospace" font-size="10" fill="#0b1220" style="paint-order:stroke;stroke:#ffffff;stroke-width:2.4;stroke-linejoin:round;">122.2 | 6.3G</text><line x1="462.5" y1="449.2" x2="472.5" y2="474.0" stroke="#7F3C8D" stroke-width="1.4" stroke-opacity="0.95"/><rect x="472.5" y="472.0" width="84.0" height="18.0" rx="5" fill="#ffffff" fill-opacity="0.98" stroke="#7F3C8D" stroke-width="1.8"/><text x="477.5" y="485.0" font-family="ui-monospace, Menlo, Consolas, monospace" font-size="10" fill="#0b1220" style="paint-order:stroke;stroke:#ffffff;stroke-width:2.4;stroke-linejoin:round;">122.5 | 7.7G</text><line x1="462.5" y1="449.7" x2="452.5" y2="378.0" stroke="#6B7280" stroke-width="1.4" stroke-opacity="0.95"/><rect x="362.5" y="362.0" width="90.0" height="18.0" rx="5" fill="#ffffff" fill-opacity="0.98" stroke="#6B7280" stroke-width="1.8"/><text x="367.5" y="375.0" font-family="ui-monospace, Menlo, Consolas, monospace" font-size="10" fill="#0b1220" style="paint-order:stroke;stroke:#ffffff;stroke-width:2.4;stroke-linejoin:round;">121.2 | 10.3G</text><line x1="462.5" y1="448.8" x2="472.5" y2="452.0" stroke="#0057E7" stroke-width="1.4" stroke-opacity="0.95"/><rect x="472.5" y="450.0" width="90.0" height="18.0" rx="5" fill="#ffffff" fill-opacity="0.98" stroke="#0057E7" stroke-width="1.8"/><text x="477.5" y="463.0" font-family="ui-monospace, Menlo, Consolas, monospace" font-size="10" fill="#0b1220" style="paint-order:stroke;stroke:#ffffff;stroke-width:2.4;stroke-linejoin:round;">123.7 | 15.5G</text><line x1="785.0" y1="412.1" x2="795.0" y2="346.6" stroke="#0057E7" stroke-width="1.4" stroke-opacity="0.95"/><rect x="795.0" y="330.6" width="90.0" height="18.0" rx="5" fill="#ffffff" fill-opacity="0.98" stroke="#0057E7" stroke-width="1.8"/><text x="800.0" y="343.6" font-family="ui-monospace, Menlo, Consolas, monospace" font-size="10" fill="#0b1220" style="paint-order:stroke;stroke:#ffffff;stroke-width:2.4;stroke-linejoin:round;">223.9 | 29.6G</text><line x1="785.0" y1="411.5" x2="775.0" y2="378.0" stroke="#00A676" stroke-width="1.4" stroke-opacity="0.95"/><rect x="685.0" y="362.0" width="90.0" height="18.0" rx="5" fill="#ffffff" fill-opacity="0.98" stroke="#00A676" stroke-width="1.8"/><text x="690.0" y="375.0" font-family="ui-monospace, Menlo, Consolas, monospace" font-size="10" fill="#0b1220" style="paint-order:stroke;stroke:#ffffff;stroke-width:2.4;stroke-linejoin:round;">225.5 | 29.6G</text><line x1="785.0" y1="473.0" x2="795.0" y2="422.0" stroke="#FF7F11" stroke-width="1.4" stroke-opacity="0.95"/><rect x="795.0" y="406.0" width="78.0" height="18.0" rx="5" fill="#ffffff" fill-opacity="0.98" stroke="#FF7F11" stroke-width="1.8"/><text x="800.0" y="419.0" font-family="ui-monospace, Menlo, Consolas, monospace" font-size="10" fill="#0b1220" style="paint-order:stroke;stroke:#ffffff;stroke-width:2.4;stroke-linejoin:round;">57.5 | 5.4G</text><line x1="785.0" y1="448.2" x2="775.0" y2="452.0" stroke="#D7263D" stroke-width="1.4" stroke-opacity="0.95"/><rect x="691.0" y="450.0" width="84.0" height="18.0" rx="5" fill="#ffffff" fill-opacity="0.98" stroke="#D7263D" stroke-width="1.8"/><text x="696.0" y="463.0" font-family="ui-monospace, Menlo, Consolas, monospace" font-size="10" fill="#0b1220" style="paint-order:stroke;stroke:#ffffff;stroke-width:2.4;stroke-linejoin:round;">125.1 | 6.3G</text><line x1="785.0" y1="442.5" x2="795.0" y2="474.0" stroke="#7F3C8D" stroke-width="1.4" stroke-opacity="0.95"/><rect x="795.0" y="472.0" width="84.0" height="18.0" rx="5" fill="#ffffff" fill-opacity="0.98" stroke="#7F3C8D" stroke-width="1.8"/><text x="800.0" y="485.0" font-family="ui-monospace, Menlo, Consolas, monospace" font-size="10" fill="#0b1220" style="paint-order:stroke;stroke:#ffffff;stroke-width:2.4;stroke-linejoin:round;">140.8 | 7.7G</text><line x1="785.0" y1="442.8" x2="775.0" y2="400.0" stroke="#6B7280" stroke-width="1.4" stroke-opacity="0.95"/><rect x="685.0" y="384.0" width="90.0" height="18.0" rx="5" fill="#ffffff" fill-opacity="0.98" stroke="#6B7280" stroke-width="1.8"/><text x="690.0" y="397.0" font-family="ui-monospace, Menlo, Consolas, monospace" font-size="10" fill="#0b1220" style="paint-order:stroke;stroke:#ffffff;stroke-width:2.4;stroke-linejoin:round;">140.0 | 10.3G</text><line x1="785.0" y1="441.0" x2="795.0" y2="441.0" stroke="#0057E7" stroke-width="1.4" stroke-opacity="0.95"/><rect x="795.0" y="428.0" width="90.0" height="18.0" rx="5" fill="#ffffff" fill-opacity="0.98" stroke="#0057E7" stroke-width="1.8"/><text x="800.0" y="441.0" font-family="ui-monospace, Menlo, Consolas, monospace" font-size="10" fill="#0b1220" style="paint-order:stroke;stroke:#ffffff;stroke-width:2.4;stroke-linejoin:round;">145.0 | 15.5G</text><line x1="1107.5" y1="338.8" x2="1117.5" y2="315.9" stroke="#0057E7" stroke-width="1.4" stroke-opacity="0.95"/><rect x="1117.5" y="299.9" width="90.0" height="18.0" rx="5" fill="#ffffff" fill-opacity="0.98" stroke="#0057E7" stroke-width="1.8"/><text x="1122.5" y="312.9" font-family="ui-monospace, Menlo, Consolas, monospace" font-size="10" fill="#0b1220" style="paint-order:stroke;stroke:#ffffff;stroke-width:2.4;stroke-linejoin:round;">424.5 | 29.6G</text><line x1="1107.5" y1="329.6" x2="1097.5" y2="329.6" stroke="#00A676" stroke-width="1.4" stroke-opacity="0.95"/><rect x="1007.5" y="322.8" width="90.0" height="18.0" rx="5" fill="#ffffff" fill-opacity="0.98" stroke="#00A676" stroke-width="1.8"/><text x="1012.5" y="335.8" font-family="ui-monospace, Menlo, Consolas, monospace" font-size="10" fill="#0b1220" style="paint-order:stroke;stroke:#ffffff;stroke-width:2.4;stroke-linejoin:round;">449.5 | 29.6G</text><line x1="1107.5" y1="472.9" x2="1117.5" y2="444.0" stroke="#FF7F11" stroke-width="1.4" stroke-opacity="0.95"/><rect x="1117.5" y="428.0" width="78.0" height="18.0" rx="5" fill="#ffffff" fill-opacity="0.98" stroke="#FF7F11" stroke-width="1.8"/><text x="1122.5" y="441.0" font-family="ui-monospace, Menlo, Consolas, monospace" font-size="10" fill="#0b1220" style="paint-order:stroke;stroke:#ffffff;stroke-width:2.4;stroke-linejoin:round;">57.8 | 5.4G</text><line x1="1107.5" y1="448.1" x2="1097.5" y2="452.0" stroke="#D7263D" stroke-width="1.4" stroke-opacity="0.95"/><rect x="1013.5" y="450.0" width="84.0" height="18.0" rx="5" fill="#ffffff" fill-opacity="0.98" stroke="#D7263D" stroke-width="1.8"/><text x="1018.5" y="463.0" font-family="ui-monospace, Menlo, Consolas, monospace" font-size="10" fill="#0b1220" style="paint-order:stroke;stroke:#ffffff;stroke-width:2.4;stroke-linejoin:round;">125.5 | 6.3G</text><line x1="1107.5" y1="443.1" x2="1117.5" y2="474.0" stroke="#7F3C8D" stroke-width="1.4" stroke-opacity="0.95"/><rect x="1117.5" y="472.0" width="84.0" height="18.0" rx="5" fill="#ffffff" fill-opacity="0.98" stroke="#7F3C8D" stroke-width="1.8"/><text x="1122.5" y="485.0" font-family="ui-monospace, Menlo, Consolas, monospace" font-size="10" fill="#0b1220" style="paint-order:stroke;stroke:#ffffff;stroke-width:2.4;stroke-linejoin:round;">139.3 | 7.7G</text><line x1="1107.5" y1="404.4" x2="1097.5" y2="389.5" stroke="#6B7280" stroke-width="1.4" stroke-opacity="0.95"/><rect x="1007.5" y="373.5" width="90.0" height="18.0" rx="5" fill="#ffffff" fill-opacity="0.98" stroke="#6B7280" stroke-width="1.8"/><text x="1012.5" y="386.5" font-family="ui-monospace, Menlo, Consolas, monospace" font-size="10" fill="#0b1220" style="paint-order:stroke;stroke:#ffffff;stroke-width:2.4;stroke-linejoin:round;">245.0 | 10.3G</text><line x1="1107.5" y1="401.0" x2="1117.5" y2="402.2" stroke="#0057E7" stroke-width="1.4" stroke-opacity="0.95"/><rect x="1117.5" y="400.2" width="90.0" height="18.0" rx="5" fill="#ffffff" fill-opacity="0.98" stroke="#0057E7" stroke-width="1.8"/><text x="1122.5" y="413.2" font-family="ui-monospace, Menlo, Consolas, monospace" font-size="10" fill="#0b1220" style="paint-order:stroke;stroke:#ffffff;stroke-width:2.4;stroke-linejoin:round;">254.2 | 15.5G</text><line x1="1430.0" y1="203.8" x2="1440.0" y2="180.9" stroke="#0057E7" stroke-width="1.4" stroke-opacity="0.95"/><rect x="1440.0" y="164.9" width="90.0" height="18.0" rx="5" fill="#ffffff" fill-opacity="0.98" stroke="#0057E7" stroke-width="1.8"/><text x="1445.0" y="177.9" font-family="ui-monospace, Menlo, Consolas, monospace" font-size="10" fill="#0b1220" style="paint-order:stroke;stroke:#ffffff;stroke-width:2.4;stroke-linejoin:round;">793.7 | 29.7G</text><line x1="1430.0" y1="200.9" x2="1440.0" y2="200.9" stroke="#00A676" stroke-width="1.4" stroke-opacity="0.95"/><rect x="1440.0" y="194.1" width="90.0" height="18.0" rx="5" fill="#ffffff" fill-opacity="0.98" stroke="#00A676" stroke-width="1.8"/><text x="1445.0" y="207.1" font-family="ui-monospace, Menlo, Consolas, monospace" font-size="10" fill="#0b1220" style="paint-order:stroke;stroke:#ffffff;stroke-width:2.4;stroke-linejoin:round;">801.5 | 29.7G</text><line x1="1430.0" y1="472.8" x2="1440.0" y2="444.0" stroke="#FF7F11" stroke-width="1.4" stroke-opacity="0.95"/><rect x="1440.0" y="428.0" width="78.0" height="18.0" rx="5" fill="#ffffff" fill-opacity="0.98" stroke="#FF7F11" stroke-width="1.8"/><text x="1445.0" y="441.0" font-family="ui-monospace, Menlo, Consolas, monospace" font-size="10" fill="#0b1220" style="paint-order:stroke;stroke:#ffffff;stroke-width:2.4;stroke-linejoin:round;">57.9 | 5.4G</text><line x1="1430.0" y1="448.1" x2="1440.0" y2="452.0" stroke="#D7263D" stroke-width="1.4" stroke-opacity="0.95"/><rect x="1440.0" y="450.0" width="84.0" height="18.0" rx="5" fill="#ffffff" fill-opacity="0.98" stroke="#D7263D" stroke-width="1.8"/><text x="1445.0" y="463.0" font-family="ui-monospace, Menlo, Consolas, monospace" font-size="10" fill="#0b1220" style="paint-order:stroke;stroke:#ffffff;stroke-width:2.4;stroke-linejoin:round;">125.4 | 6.3G</text><line x1="1430.0" y1="442.9" x2="1440.0" y2="474.0" stroke="#7F3C8D" stroke-width="1.4" stroke-opacity="0.95"/><rect x="1440.0" y="472.0" width="84.0" height="18.0" rx="5" fill="#ffffff" fill-opacity="0.98" stroke="#7F3C8D" stroke-width="1.8"/><text x="1445.0" y="485.0" font-family="ui-monospace, Menlo, Consolas, monospace" font-size="10" fill="#0b1220" style="paint-order:stroke;stroke:#ffffff;stroke-width:2.4;stroke-linejoin:round;">139.6 | 7.7G</text><line x1="1430.0" y1="405.9" x2="1440.0" y2="405.9" stroke="#6B7280" stroke-width="1.4" stroke-opacity="0.95"/><rect x="1440.0" y="395.1" width="90.0" height="18.0" rx="5" fill="#ffffff" fill-opacity="0.98" stroke="#6B7280" stroke-width="1.8"/><text x="1445.0" y="408.1" font-family="ui-monospace, Menlo, Consolas, monospace" font-size="10" fill="#0b1220" style="paint-order:stroke;stroke:#ffffff;stroke-width:2.4;stroke-linejoin:round;">241.0 | 10.3G</text><line x1="1430.0" y1="373.9" x2="1440.0" y2="375.1" stroke="#0057E7" stroke-width="1.4" stroke-opacity="0.95"/><rect x="1440.0" y="373.1" width="90.0" height="18.0" rx="5" fill="#ffffff" fill-opacity="0.98" stroke="#0057E7" stroke-width="1.8"/><text x="1445.0" y="386.1" font-family="ui-monospace, Menlo, Consolas, monospace" font-size="10" fill="#0b1220" style="paint-order:stroke;stroke:#ffffff;stroke-width:2.4;stroke-linejoin:round;">328.4 | 15.5G</text><line x1="1430.0" y1="951.7" x2="1422.0" y2="919.0" stroke="#0057E7" stroke-width="1.4" stroke-opacity="0.95"/><rect x="1189.0" y="903.0" width="233.0" height="18.0" rx="5" fill="#ffffff" fill-opacity="0.98" stroke="#0057E7" stroke-width="1.8"/><text x="1194.0" y="916.0" font-family="ui-monospace, Menlo, Consolas, monospace" font-size="10" fill="#0b1220" style="paint-order:stroke;stroke:#ffffff;stroke-width:2.4;stroke-linejoin:round;">vLLM prefix OFF  TTFT 0.9s  P95 8.1s</text><line x1="1430.0" y1="951.8" x2="1422.0" y2="953.0" stroke="#00A676" stroke-width="1.4" stroke-opacity="0.95"/><rect x="1195.0" y="951.0" width="227.0" height="18.0" rx="5" fill="#ffffff" fill-opacity="0.98" stroke="#00A676" stroke-width="1.8"/><text x="1200.0" y="964.0" font-family="ui-monospace, Menlo, Consolas, monospace" font-size="10" fill="#0b1220" style="paint-order:stroke;stroke:#ffffff;stroke-width:2.4;stroke-linejoin:round;">vLLM prefix ON  TTFT 0.9s  P95 8.0s</text><line x1="1430.0" y1="743.7" x2="1422.0" y2="644.0" stroke="#FF7F11" stroke-width="1.4" stroke-opacity="0.95"/><rect x="1195.0" y="628.0" width="227.0" height="18.0" rx="5" fill="#ffffff" fill-opacity="0.98" stroke="#FF7F11" stroke-width="1.8"/><text x="1200.0" y="641.0" font-family="ui-monospace, Menlo, Consolas, monospace" font-size="10" fill="#0b1220" style="paint-order:stroke;stroke:#ffffff;stroke-width:2.4;stroke-linejoin:round;">Ollama np=1  TTFT 53.9s  P95 107.0s</text><line x1="1430.0" y1="863.2" x2="1422.0" y2="837.4" stroke="#D7263D" stroke-width="1.4" stroke-opacity="0.95"/><rect x="1202.0" y="821.4" width="220.0" height="18.0" rx="5" fill="#ffffff" fill-opacity="0.98" stroke="#D7263D" stroke-width="1.8"/><text x="1207.0" y="834.4" font-family="ui-monospace, Menlo, Consolas, monospace" font-size="10" fill="#0b1220" style="paint-order:stroke;stroke:#ffffff;stroke-width:2.4;stroke-linejoin:round;">Ollama np=4  TTFT 22.6s  P95 51.0s</text><line x1="1430.0" y1="876.9" x2="1422.0" y2="861.7" stroke="#7F3C8D" stroke-width="1.4" stroke-opacity="0.95"/><rect x="1202.0" y="845.7" width="220.0" height="18.0" rx="5" fill="#ffffff" fill-opacity="0.98" stroke="#7F3C8D" stroke-width="1.8"/><text x="1207.0" y="858.7" font-family="ui-monospace, Menlo, Consolas, monospace" font-size="10" fill="#0b1220" style="paint-order:stroke;stroke:#ffffff;stroke-width:2.4;stroke-linejoin:round;">Ollama np=8  TTFT 17.8s  P95 45.8s</text><line x1="1430.0" y1="917.0" x2="1422.0" y2="885.7" stroke="#6B7280" stroke-width="1.4" stroke-opacity="0.95"/><rect x="1202.0" y="869.7" width="220.0" height="18.0" rx="5" fill="#ffffff" fill-opacity="0.98" stroke="#6B7280" stroke-width="1.8"/><text x="1207.0" y="882.7" font-family="ui-monospace, Menlo, Consolas, monospace" font-size="10" fill="#0b1220" style="paint-order:stroke;stroke:#ffffff;stroke-width:2.4;stroke-linejoin:round;">Ollama np=16  TTFT 7.8s  P95 26.6s</text><line x1="1430.0" y1="932.9" x2="1422.0" y2="932.9" stroke="#0057E7" stroke-width="1.4" stroke-opacity="0.95"/><rect x="1202.0" y="927.0" width="220.0" height="18.0" rx="5" fill="#ffffff" fill-opacity="0.98" stroke="#0057E7" stroke-width="1.8"/><text x="1207.0" y="940.0" font-family="ui-monospace, Menlo, Consolas, monospace" font-size="10" fill="#0b1220" style="paint-order:stroke;stroke:#ffffff;stroke-width:2.4;stroke-linejoin:round;">Ollama np=32  TTFT 3.2s  P95 19.5s</text></svg>