<svg xmlns="http://www.w3.org/2000/svg" width="1780" height="1120" viewBox="0 0 1780 1120"><defs><linearGradient id="bg" x1="0" y1="0" x2="1" y2="1"><stop offset="0%" stop-color="#f6fbff"/><stop offset="100%" stop-color="#eef6ff"/></linearGradient></defs><rect x="0" y="0" width="1780" height="1120" fill="url(#bg)"/><text x="70" y="44" font-family="ui-monospace, Menlo, Consolas, monospace" font-size="30" fill="#0f172a">DeepSeek-R1-0528-Qwen3-8B (FP16 vs Ollama deepseek-r1) Benchmark (fixed_shared_prefix)</text><text x="70" y="70" font-family="ui-monospace, Menlo, Consolas, monospace" font-size="13" fill="#334155">source: lane_benchmark_20260309_232752.json | top panel labels: tok/s | peak GiB</text><line x1="70" y1="98" x2="100" y2="98" stroke="#0057E7" stroke-width="4"/><text x="108" y="103" font-family="ui-monospace, Menlo, Consolas, monospace" font-size="14" fill="#0f172a">vLLM prefix OFF</text><line x1="300" y1="98" x2="330" y2="98" stroke="#00A676" stroke-width="4"/><text x="338" y="103" font-family="ui-monospace, Menlo, Consolas, monospace" font-size="14" fill="#0f172a">vLLM prefix ON</text><line x1="530" y1="98" x2="560" y2="98" stroke="#FF7F11" stroke-width="4"/><text x="568" y="103" font-family="ui-monospace, Menlo, Consolas, monospace" font-size="14" fill="#0f172a">Ollama np=1</text><line x1="760" y1="98" x2="790" y2="98" stroke="#D7263D" stroke-width="4"/><text x="798" y="103" font-family="ui-monospace, Menlo, Consolas, monospace" font-size="14" fill="#0f172a">Ollama np=4</text><line x1="990" y1="98" x2="1020" y2="98" stroke="#7F3C8D" stroke-width="4"/><text x="1028" y="103" font-family="ui-monospace, Menlo, Consolas, monospace" font-size="14" fill="#0f172a">Ollama np=8</text><line x1="1220" y1="98" x2="1250" y2="98" stroke="#6B7280" stroke-width="4"/><text x="1258" y="103" font-family="ui-monospace, Menlo, Consolas, monospace" font-size="14" fill="#0f172a">Ollama np=16</text><line x1="1450" y1="98" x2="1480" y2="98" stroke="#0057E7" stroke-width="4"/><text x="1488" y="103" font-family="ui-monospace, Menlo, Consolas, monospace" font-size="14" fill="#0f172a">Ollama np=32</text><line x1="1430" y1="90" x2="1460" y2="90" stroke="#1f2937" stroke-width="3"/><text x="1465" y="95" font-family="ui-monospace, Menlo, Consolas, monospace" font-size="12" fill="#0f172a">TTFT (ms)</text><line x1="1430" y1="108" x2="1460" y2="108" stroke="#1f2937" stroke-width="3" stroke-dasharray="7 5"/><text x="1465" y="113" font-family="ui-monospace, Menlo, Consolas, monospace" font-size="12" fill="#0f172a">P95 latency (ms)</text><rect x="70" y="130" width="1640" height="420" rx="16" fill="#ffffff" stroke="#c7d7ee" stroke-width="1.2"/><text x="86" y="148" font-family="ui-monospace, Menlo, Consolas, monospace" font-size="16" fill="#0f172a">Throughput</text><line x1="140.0" y1="494.0" x2="1430.0" y2="494.0" stroke="#e8eff9" stroke-width="1"/><text x="130.0" y="498.0" font-family="ui-monospace, Menlo, Consolas, monospace" font-size="11" text-anchor="end" fill="#334155">0</text><line x1="140.0" y1="437.3" x2="1430.0" y2="437.3" stroke="#e8eff9" stroke-width="1"/><text x="130.0" y="441.3" font-family="ui-monospace, Menlo, Consolas, monospace" font-size="11" text-anchor="end" fill="#334155">167</text><line x1="140.0" y1="380.7" x2="1430.0" y2="380.7" stroke="#e8eff9" stroke-width="1"/><text x="130.0" y="384.7" font-family="ui-monospace, Menlo, Consolas, monospace" font-size="11" text-anchor="end" fill="#334155">335</text><line x1="140.0" y1="324.0" x2="1430.0" y2="324.0" stroke="#e8eff9" stroke-width="1"/><text x="130.0" y="328.0" font-family="ui-monospace, Menlo, Consolas, monospace" font-size="11" text-anchor="end" fill="#334155">502</text><line x1="140.0" y1="267.3" x2="1430.0" y2="267.3" stroke="#e8eff9" stroke-width="1"/><text x="130.0" y="271.3" font-family="ui-monospace, Menlo, Consolas, monospace" font-size="11" text-anchor="end" fill="#334155">670</text><line x1="140.0" y1="210.7" x2="1430.0" y2="210.7" stroke="#e8eff9" stroke-width="1"/><text x="130.0" y="214.7" font-family="ui-monospace, Menlo, Consolas, monospace" font-size="11" text-anchor="end" fill="#334155">837</text><line x1="140.0" y1="154.0" x2="1430.0" y2="154.0" stroke="#e8eff9" stroke-width="1"/><text x="130.0" y="158.0" font-family="ui-monospace, Menlo, Consolas, monospace" font-size="11" text-anchor="end" fill="#334155">1005</text><line x1="140.0" y1="154.0" x2="140.0" y2="494.0" stroke="#f2f6fc" stroke-width="1"/><text x="140.0" y="519.0" font-family="ui-monospace, Menlo, Consolas, monospace" font-size="11" text-anchor="middle" fill="#1f2937">1</text><line x1="462.5" y1="154.0" x2="462.5" y2="494.0" stroke="#f2f6fc" stroke-width="1"/><text x="462.5" y="519.0" font-family="ui-monospace, Menlo, Consolas, monospace" font-size="11" text-anchor="middle" fill="#1f2937">4</text><line x1="785.0" y1="154.0" x2="785.0" y2="494.0" stroke="#f2f6fc" stroke-width="1"/><text x="785.0" y="519.0" font-family="ui-monospace, Menlo, Consolas, monospace" font-size="11" text-anchor="middle" fill="#1f2937">8</text><line x1="1107.5" y1="154.0" x2="1107.5" y2="494.0" stroke="#f2f6fc" stroke-width="1"/><text x="1107.5" y="519.0" font-family="ui-monospace, Menlo, Consolas, monospace" font-size="11" text-anchor="middle" fill="#1f2937">16</text><line x1="1430.0" y1="154.0" x2="1430.0" y2="494.0" stroke="#f2f6fc" stroke-width="1"/><text x="1430.0" y="519.0" font-family="ui-monospace, Menlo, Consolas, monospace" font-size="11" text-anchor="middle" fill="#1f2937">32</text><line x1="140.0" y1="494.0" x2="1430.0" y2="494.0" stroke="#0f172a" stroke-width="2"/><line x1="140.0" y1="154.0" x2="140.0" y2="494.0" stroke="#0f172a" stroke-width="2"/><text x="785.0" y="538.0" font-family="ui-monospace, Menlo, Consolas, monospace" font-size="13" text-anchor="middle" fill="#0f172a">Concurrency</text><text x="84" y="324.0" font-family="ui-monospace, Menlo, Consolas, monospace" font-size="13" text-anchor="middle" transform="rotate(-90 84,324.0)" fill="#0f172a">Aggregate tok/s</text><rect x="70" y="600" width="1640" height="420" rx="16" fill="#ffffff" stroke="#c7d7ee" stroke-width="1.2"/><text x="86" y="618" font-family="ui-monospace, Menlo, Consolas, monospace" font-size="16" fill="#0f172a">Latency</text><line x1="140.0" y1="964.0" x2="1430.0" y2="964.0" stroke="#e8eff9" stroke-width="1"/><text x="130.0" y="968.0" font-family="ui-monospace, Menlo, Consolas, monospace" font-size="11" text-anchor="end" fill="#334155">0</text><line x1="140.0" y1="907.3" x2="1430.0" y2="907.3" stroke="#e8eff9" stroke-width="1"/><text x="130.0" y="911.3" font-family="ui-monospace, Menlo, Consolas, monospace" font-size="11" text-anchor="end" fill="#334155">20267</text><line x1="140.0" y1="850.7" x2="1430.0" y2="850.7" stroke="#e8eff9" stroke-width="1"/><text x="130.0" y="854.7" font-family="ui-monospace, Menlo, Consolas, monospace" font-size="11" text-anchor="end" fill="#334155">40534</text><line x1="140.0" y1="794.0" x2="1430.0" y2="794.0" stroke="#e8eff9" stroke-width="1"/><text x="130.0" y="798.0" font-family="ui-monospace, Menlo, Consolas, monospace" font-size="11" text-anchor="end" fill="#334155">60801</text><line x1="140.0" y1="737.3" x2="1430.0" y2="737.3" stroke="#e8eff9" stroke-width="1"/><text x="130.0" y="741.3" font-family="ui-monospace, Menlo, Consolas, monospace" font-size="11" text-anchor="end" fill="#334155">81069</text><line x1="140.0" y1="680.7" x2="1430.0" y2="680.7" stroke="#e8eff9" stroke-width="1"/><text x="130.0" y="684.7" font-family="ui-monospace, Menlo, Consolas, monospace" font-size="11" text-anchor="end" fill="#334155">101336</text><line x1="140.0" y1="624.0" x2="1430.0" y2="624.0" stroke="#e8eff9" stroke-width="1"/><text x="130.0" y="628.0" font-family="ui-monospace, Menlo, Consolas, monospace" font-size="11" text-anchor="end" fill="#334155">121603</text><line x1="140.0" y1="624.0" x2="140.0" y2="964.0" stroke="#f2f6fc" stroke-width="1"/><text x="140.0" y="989.0" font-family="ui-monospace, Menlo, Consolas, monospace" font-size="11" text-anchor="middle" fill="#1f2937">1</text><line x1="462.5" y1="624.0" x2="462.5" y2="964.0" stroke="#f2f6fc" stroke-width="1"/><text x="462.5" y="989.0" font-family="ui-monospace, Menlo, Consolas, monospace" font-size="11" text-anchor="middle" fill="#1f2937">4</text><line x1="785.0" y1="624.0" x2="785.0" y2="964.0" stroke="#f2f6fc" stroke-width="1"/><text x="785.0" y="989.0" font-family="ui-monospace, Menlo, Consolas, monospace" font-size="11" text-anchor="middle" fill="#1f2937">8</text><line x1="1107.5" y1="624.0" x2="1107.5" y2="964.0" stroke="#f2f6fc" stroke-width="1"/><text x="1107.5" y="989.0" font-family="ui-monospace, Menlo, Consolas, monospace" font-size="11" text-anchor="middle" fill="#1f2937">16</text><line x1="1430.0" y1="624.0" x2="1430.0" y2="964.0" stroke="#f2f6fc" stroke-width="1"/><text x="1430.0" y="989.0" font-family="ui-monospace, Menlo, Consolas, monospace" font-size="11" text-anchor="middle" fill="#1f2937">32</text><line x1="140.0" y1="964.0" x2="1430.0" y2="964.0" stroke="#0f172a" stroke-width="2"/><line x1="140.0" y1="624.0" x2="140.0" y2="964.0" stroke="#0f172a" stroke-width="2"/><text x="785.0" y="1008.0" font-family="ui-monospace, Menlo, Consolas, monospace" font-size="13" text-anchor="middle" fill="#0f172a">Concurrency</text><text x="84" y="794.0" font-family="ui-monospace, Menlo, Consolas, monospace" font-size="13" text-anchor="middle" transform="rotate(-90 84,794.0)" fill="#0f172a">Milliseconds</text><polyline points="140.0,483.3 462.5,454.0 785.0,415.3 1107.5,341.7 1430.0,200.9" fill="none" stroke="#0057E7" stroke-width="3.2"/><circle cx="140.0" cy="483.3" r="4.4" fill="#0057E7" stroke="#ffffff" stroke-width="1.2"/><circle cx="462.5" cy="454.0" r="4.4" fill="#0057E7" stroke="#ffffff" stroke-width="1.2"/><circle cx="785.0" cy="415.3" r="4.4" fill="#0057E7" stroke="#ffffff" stroke-width="1.2"/><circle cx="1107.5" cy="341.7" r="4.4" fill="#0057E7" stroke="#ffffff" stroke-width="1.2"/><circle cx="1430.0" cy="200.9" r="4.4" fill="#0057E7" stroke="#ffffff" stroke-width="1.2"/><polyline points="140.0,963.8 462.5,963.7 785.0,963.6 1107.5,963.4 1430.0,963.1" fill="none" stroke="#0057E7" stroke-width="2.8"/><polyline points="140.0,946.3 462.5,945.1 785.0,944.8 1107.5,944.1 1430.0,943.4" fill="none" stroke="#0057E7" stroke-width="2.8" stroke-dasharray="7 5"/><circle cx="140.0" cy="963.8" r="3.5" fill="#0057E7" stroke="#ffffff" stroke-width="1"/><circle cx="462.5" cy="963.7" r="3.5" fill="#0057E7" stroke="#ffffff" stroke-width="1"/><circle cx="785.0" cy="963.6" r="3.5" fill="#0057E7" stroke="#ffffff" stroke-width="1"/><circle cx="1107.5" cy="963.4" r="3.5" fill="#0057E7" stroke="#ffffff" stroke-width="1"/><circle cx="1430.0" cy="963.1" r="3.5" fill="#0057E7" stroke="#ffffff" stroke-width="1"/><circle cx="140.0" cy="946.3" r="3.5" fill="#ffffff" stroke="#0057E7" stroke-width="1.6"/><circle cx="462.5" cy="945.1" r="3.5" fill="#ffffff" stroke="#0057E7" stroke-width="1.6"/><circle cx="785.0" cy="944.8" r="3.5" fill="#ffffff" stroke="#0057E7" stroke-width="1.6"/><circle cx="1107.5" cy="944.1" r="3.5" fill="#ffffff" stroke="#0057E7" stroke-width="1.6"/><circle cx="1430.0" cy="943.4" r="3.5" fill="#ffffff" stroke="#0057E7" stroke-width="1.6"/><polyline points="140.0,483.8 462.5,455.1 785.0,417.0 1107.5,343.3 1430.0,209.6" fill="none" stroke="#00A676" stroke-width="3.2"/><circle cx="140.0" cy="483.8" r="4.4" fill="#00A676" stroke="#ffffff" stroke-width="1.2"/><circle cx="462.5" cy="455.1" r="4.4" fill="#00A676" stroke="#ffffff" stroke-width="1.2"/><circle cx="785.0" cy="417.0" r="4.4" fill="#00A676" stroke="#ffffff" stroke-width="1.2"/><circle cx="1107.5" cy="343.3" r="4.4" fill="#00A676" stroke="#ffffff" stroke-width="1.2"/><circle cx="1430.0" cy="209.6" r="4.4" fill="#00A676" stroke="#ffffff" stroke-width="1.2"/><polyline points="140.0,963.8 462.5,963.6 785.0,963.6 1107.5,963.4 1430.0,963.2" fill="none" stroke="#00A676" stroke-width="2.8"/><polyline points="140.0,945.5 462.5,944.6 785.0,944.3 1107.5,943.9 1430.0,942.7" fill="none" stroke="#00A676" stroke-width="2.8" stroke-dasharray="7 5"/><circle cx="140.0" cy="963.8" r="3.5" fill="#00A676" stroke="#ffffff" stroke-width="1"/><circle cx="462.5" cy="963.6" r="3.5" fill="#00A676" stroke="#ffffff" stroke-width="1"/><circle cx="785.0" cy="963.6" r="3.5" fill="#00A676" stroke="#ffffff" stroke-width="1"/><circle cx="1107.5" cy="963.4" r="3.5" fill="#00A676" stroke="#ffffff" stroke-width="1"/><circle cx="1430.0" cy="963.2" r="3.5" fill="#00A676" stroke="#ffffff" stroke-width="1"/><circle cx="140.0" cy="945.5" r="3.5" fill="#ffffff" stroke="#00A676" stroke-width="1.6"/><circle cx="462.5" cy="944.6" r="3.5" fill="#ffffff" stroke="#00A676" stroke-width="1.6"/><circle cx="785.0" cy="944.3" r="3.5" fill="#ffffff" stroke="#00A676" stroke-width="1.6"/><circle cx="1107.5" cy="943.9" r="3.5" fill="#ffffff" stroke="#00A676" stroke-width="1.6"/><circle cx="1430.0" cy="942.7" r="3.5" fill="#ffffff" stroke="#00A676" stroke-width="1.6"/><polyline points="140.0,476.5 462.5,474.8 785.0,474.1 1107.5,474.0 1430.0,474.0" fill="none" stroke="#FF7F11" stroke-width="3.2"/><circle cx="140.0" cy="476.5" r="4.4" fill="#FF7F11" stroke="#ffffff" stroke-width="1.2"/><circle cx="462.5" cy="474.8" r="4.4" fill="#FF7F11" stroke="#ffffff" stroke-width="1.2"/><circle cx="785.0" cy="474.1" r="4.4" fill="#FF7F11" stroke="#ffffff" stroke-width="1.2"/><circle cx="1107.5" cy="474.0" r="4.4" fill="#FF7F11" stroke="#ffffff" stroke-width="1.2"/><circle cx="1430.0" cy="474.0" r="4.4" fill="#FF7F11" stroke="#ffffff" stroke-width="1.2"/><polyline points="140.0,962.5 462.5,948.4 785.0,930.1 1107.5,892.6 1430.0,816.8" fill="none" stroke="#FF7F11" stroke-width="2.8"/><polyline points="140.0,953.2 462.5,924.7 785.0,887.8 1107.5,812.6 1430.0,670.9" fill="none" stroke="#FF7F11" stroke-width="2.8" stroke-dasharray="7 5"/><circle cx="140.0" cy="962.5" r="3.5" fill="#FF7F11" stroke="#ffffff" stroke-width="1"/><circle cx="462.5" cy="948.4" r="3.5" fill="#FF7F11" stroke="#ffffff" stroke-width="1"/><circle cx="785.0" cy="930.1" r="3.5" fill="#FF7F11" stroke="#ffffff" stroke-width="1"/><circle cx="1107.5" cy="892.6" r="3.5" fill="#FF7F11" stroke="#ffffff" stroke-width="1"/><circle cx="1430.0" cy="816.8" r="3.5" fill="#FF7F11" stroke="#ffffff" stroke-width="1"/><circle cx="140.0" cy="953.2" r="3.5" fill="#ffffff" stroke="#FF7F11" stroke-width="1.6"/><circle cx="462.5" cy="924.7" r="3.5" fill="#ffffff" stroke="#FF7F11" stroke-width="1.6"/><circle cx="785.0" cy="887.8" r="3.5" fill="#ffffff" stroke="#FF7F11" stroke-width="1.6"/><circle cx="1107.5" cy="812.6" r="3.5" fill="#ffffff" stroke="#FF7F11" stroke-width="1.6"/><circle cx="1430.0" cy="670.9" r="3.5" fill="#ffffff" stroke="#FF7F11" stroke-width="1.6"/><polyline points="140.0,476.5 462.5,451.9 785.0,449.4 1107.5,448.3 1430.0,448.3" fill="none" stroke="#D7263D" stroke-width="3.2"/><circle cx="140.0" cy="476.5" r="4.4" fill="#D7263D" stroke="#ffffff" stroke-width="1.2"/><circle cx="462.5" cy="451.9" r="4.4" fill="#D7263D" stroke="#ffffff" stroke-width="1.2"/><circle cx="785.0" cy="449.4" r="4.4" fill="#D7263D" stroke="#ffffff" stroke-width="1.2"/><circle cx="1107.5" cy="448.3" r="4.4" fill="#D7263D" stroke="#ffffff" stroke-width="1.2"/><circle cx="1430.0" cy="448.3" r="4.4" fill="#D7263D" stroke="#ffffff" stroke-width="1.2"/><polyline points="140.0,962.4 462.5,962.4 785.0,954.6 1107.5,938.5 1430.0,905.4" fill="none" stroke="#D7263D" stroke-width="2.8"/><polyline points="140.0,953.2 462.5,946.0 785.0,930.1 1107.5,897.8 1430.0,831.6" fill="none" stroke="#D7263D" stroke-width="2.8" stroke-dasharray="7 5"/><circle cx="140.0" cy="962.4" r="3.5" fill="#D7263D" stroke="#ffffff" stroke-width="1"/><circle cx="462.5" cy="962.4" r="3.5" fill="#D7263D" stroke="#ffffff" stroke-width="1"/><circle cx="785.0" cy="954.6" r="3.5" fill="#D7263D" stroke="#ffffff" stroke-width="1"/><circle cx="1107.5" cy="938.5" r="3.5" fill="#D7263D" stroke="#ffffff" stroke-width="1"/><circle cx="1430.0" cy="905.4" r="3.5" fill="#D7263D" stroke="#ffffff" stroke-width="1"/><circle cx="140.0" cy="953.2" r="3.5" fill="#ffffff" stroke="#D7263D" stroke-width="1.6"/><circle cx="462.5" cy="946.0" r="3.5" fill="#ffffff" stroke="#D7263D" stroke-width="1.6"/><circle cx="785.0" cy="930.1" r="3.5" fill="#ffffff" stroke="#D7263D" stroke-width="1.6"/><circle cx="1107.5" cy="897.8" r="3.5" fill="#ffffff" stroke="#D7263D" stroke-width="1.6"/><circle cx="1430.0" cy="831.6" r="3.5" fill="#ffffff" stroke="#D7263D" stroke-width="1.6"/><polyline points="140.0,477.7 462.5,452.0 785.0,445.0 1107.5,443.4 1430.0,443.3" fill="none" stroke="#7F3C8D" stroke-width="3.2"/><circle cx="140.0" cy="477.7" r="4.4" fill="#7F3C8D" stroke="#ffffff" stroke-width="1.2"/><circle cx="462.5" cy="452.0" r="4.4" fill="#7F3C8D" stroke="#ffffff" stroke-width="1.2"/><circle cx="785.0" cy="445.0" r="4.4" fill="#7F3C8D" stroke="#ffffff" stroke-width="1.2"/><circle cx="1107.5" cy="443.4" r="4.4" fill="#7F3C8D" stroke="#ffffff" stroke-width="1.2"/><circle cx="1430.0" cy="443.3" r="4.4" fill="#7F3C8D" stroke="#ffffff" stroke-width="1.2"/><polyline points="140.0,962.4 462.5,962.4 785.0,962.1 1107.5,948.3 1430.0,918.5" fill="none" stroke="#7F3C8D" stroke-width="2.8"/><polyline points="140.0,952.4 462.5,946.0 785.0,933.1 1107.5,904.2 1430.0,844.8" fill="none" stroke="#7F3C8D" stroke-width="2.8" stroke-dasharray="7 5"/><circle cx="140.0" cy="962.4" r="3.5" fill="#7F3C8D" stroke="#ffffff" stroke-width="1"/><circle cx="462.5" cy="962.4" r="3.5" fill="#7F3C8D" stroke="#ffffff" stroke-width="1"/><circle cx="785.0" cy="962.1" r="3.5" fill="#7F3C8D" stroke="#ffffff" stroke-width="1"/><circle cx="1107.5" cy="948.3" r="3.5" fill="#7F3C8D" stroke="#ffffff" stroke-width="1"/><circle cx="1430.0" cy="918.5" r="3.5" fill="#7F3C8D" stroke="#ffffff" stroke-width="1"/><circle cx="140.0" cy="952.4" r="3.5" fill="#ffffff" stroke="#7F3C8D" stroke-width="1.6"/><circle cx="462.5" cy="946.0" r="3.5" fill="#ffffff" stroke="#7F3C8D" stroke-width="1.6"/><circle cx="785.0" cy="933.1" r="3.5" fill="#ffffff" stroke="#7F3C8D" stroke-width="1.6"/><circle cx="1107.5" cy="904.2" r="3.5" fill="#ffffff" stroke="#7F3C8D" stroke-width="1.6"/><circle cx="1430.0" cy="844.8" r="3.5" fill="#ffffff" stroke="#7F3C8D" stroke-width="1.6"/><polyline points="140.0,476.7 462.5,452.0 785.0,444.5 1107.5,402.6 1430.0,400.2" fill="none" stroke="#6B7280" stroke-width="3.2"/><circle cx="140.0" cy="476.7" r="4.4" fill="#6B7280" stroke="#ffffff" stroke-width="1.2"/><circle cx="462.5" cy="452.0" r="4.4" fill="#6B7280" stroke="#ffffff" stroke-width="1.2"/><circle cx="785.0" cy="444.5" r="4.4" fill="#6B7280" stroke="#ffffff" stroke-width="1.2"/><circle cx="1107.5" cy="402.6" r="4.4" fill="#6B7280" stroke="#ffffff" stroke-width="1.2"/><circle cx="1430.0" cy="400.2" r="4.4" fill="#6B7280" stroke="#ffffff" stroke-width="1.2"/><polyline points="140.0,962.4 462.5,962.4 785.0,962.0 1107.5,961.5 1430.0,946.6" fill="none" stroke="#6B7280" stroke-width="2.8"/><polyline points="140.0,953.1 462.5,946.0 785.0,933.4 1107.5,930.9 1430.0,899.5" fill="none" stroke="#6B7280" stroke-width="2.8" stroke-dasharray="7 5"/><circle cx="140.0" cy="962.4" r="3.5" fill="#6B7280" stroke="#ffffff" stroke-width="1"/><circle cx="462.5" cy="962.4" r="3.5" fill="#6B7280" stroke="#ffffff" stroke-width="1"/><circle cx="785.0" cy="962.0" r="3.5" fill="#6B7280" stroke="#ffffff" stroke-width="1"/><circle cx="1107.5" cy="961.5" r="3.5" fill="#6B7280" stroke="#ffffff" stroke-width="1"/><circle cx="1430.0" cy="946.6" r="3.5" fill="#6B7280" stroke="#ffffff" stroke-width="1"/><circle cx="140.0" cy="953.1" r="3.5" fill="#ffffff" stroke="#6B7280" stroke-width="1.6"/><circle cx="462.5" cy="946.0" r="3.5" fill="#ffffff" stroke="#6B7280" stroke-width="1.6"/><circle cx="785.0" cy="933.4" r="3.5" fill="#ffffff" stroke="#6B7280" stroke-width="1.6"/><circle cx="1107.5" cy="930.9" r="3.5" fill="#ffffff" stroke="#6B7280" stroke-width="1.6"/><circle cx="1430.0" cy="899.5" r="3.5" fill="#ffffff" stroke="#6B7280" stroke-width="1.6"/><polyline points="140.0,478.0 462.5,450.8 785.0,442.0 1107.5,401.7 1430.0,371.4" fill="none" stroke="#0057E7" stroke-width="3.2"/><circle cx="140.0" cy="478.0" r="4.4" fill="#0057E7" stroke="#ffffff" stroke-width="1.2"/><circle cx="462.5" cy="450.8" r="4.4" fill="#0057E7" stroke="#ffffff" stroke-width="1.2"/><circle cx="785.0" cy="442.0" r="4.4" fill="#0057E7" stroke="#ffffff" stroke-width="1.2"/><circle cx="1107.5" cy="401.7" r="4.4" fill="#0057E7" stroke="#ffffff" stroke-width="1.2"/><circle cx="1430.0" cy="371.4" r="4.4" fill="#0057E7" stroke="#ffffff" stroke-width="1.2"/><polyline points="140.0,962.3 462.5,962.4 785.0,962.3 1107.5,961.5 1430.0,959.4" fill="none" stroke="#0057E7" stroke-width="2.8"/><polyline points="140.0,952.2 462.5,946.5 785.0,934.9 1107.5,931.2 1430.0,914.6" fill="none" stroke="#0057E7" stroke-width="2.8" stroke-dasharray="7 5"/><circle cx="140.0" cy="962.3" r="3.5" fill="#0057E7" stroke="#ffffff" stroke-width="1"/><circle cx="462.5" cy="962.4" r="3.5" fill="#0057E7" stroke="#ffffff" stroke-width="1"/><circle cx="785.0" cy="962.3" r="3.5" fill="#0057E7" stroke="#ffffff" stroke-width="1"/><circle cx="1107.5" cy="961.5" r="3.5" fill="#0057E7" stroke="#ffffff" stroke-width="1"/><circle cx="1430.0" cy="959.4" r="3.5" fill="#0057E7" stroke="#ffffff" stroke-width="1"/><circle cx="140.0" cy="952.2" r="3.5" fill="#ffffff" stroke="#0057E7" stroke-width="1.6"/><circle cx="462.5" cy="946.5" r="3.5" fill="#ffffff" stroke="#0057E7" stroke-width="1.6"/><circle cx="785.0" cy="934.9" r="3.5" fill="#ffffff" stroke="#0057E7" stroke-width="1.6"/><circle cx="1107.5" cy="931.2" r="3.5" fill="#ffffff" stroke="#0057E7" stroke-width="1.6"/><circle cx="1430.0" cy="914.6" r="3.5" fill="#ffffff" stroke="#0057E7" stroke-width="1.6"/><line x1="140.0" y1="483.3" x2="150.0" y2="378.0" stroke="#0057E7" stroke-width="1.4" stroke-opacity="0.95"/><rect x="150.0" y="362.0" width="84.0" height="18.0" rx="5" fill="#ffffff" fill-opacity="0.98" stroke="#0057E7" stroke-width="1.8"/><text x="155.0" y="375.0" font-family="ui-monospace, Menlo, Consolas, monospace" font-size="10" fill="#0b1220" style="paint-order:stroke;stroke:#ffffff;stroke-width:2.4;stroke-linejoin:round;">31.5 | 29.7G</text><line x1="140.0" y1="483.8" x2="146.0" y2="444.0" stroke="#00A676" stroke-width="1.4" stroke-opacity="0.95"/><rect x="146.0" y="428.0" width="84.0" height="18.0" rx="5" fill="#ffffff" fill-opacity="0.98" stroke="#00A676" stroke-width="1.8"/><text x="151.0" y="441.0" font-family="ui-monospace, Menlo, Consolas, monospace" font-size="10" fill="#0b1220" style="paint-order:stroke;stroke:#ffffff;stroke-width:2.4;stroke-linejoin:round;">30.2 | 29.7G</text><line x1="140.0" y1="476.5" x2="150.0" y2="356.0" stroke="#FF7F11" stroke-width="1.4" stroke-opacity="0.95"/><rect x="150.0" y="340.0" width="78.0" height="18.0" rx="5" fill="#ffffff" fill-opacity="0.98" stroke="#FF7F11" stroke-width="1.8"/><text x="155.0" y="353.0" font-family="ui-monospace, Menlo, Consolas, monospace" font-size="10" fill="#0b1220" style="paint-order:stroke;stroke:#ffffff;stroke-width:2.4;stroke-linejoin:round;">51.6 | 5.3G</text><line x1="140.0" y1="476.5" x2="146.0" y2="422.0" stroke="#D7263D" stroke-width="1.4" stroke-opacity="0.95"/><rect x="146.0" y="406.0" width="78.0" height="18.0" rx="5" fill="#ffffff" fill-opacity="0.98" stroke="#D7263D" stroke-width="1.8"/><text x="151.0" y="419.0" font-family="ui-monospace, Menlo, Consolas, monospace" font-size="10" fill="#0b1220" style="paint-order:stroke;stroke:#ffffff;stroke-width:2.4;stroke-linejoin:round;">51.6 | 6.3G</text><line x1="140.0" y1="477.7" x2="150.0" y2="477.7" stroke="#7F3C8D" stroke-width="1.4" stroke-opacity="0.95"/><rect x="150.0" y="472.0" width="78.0" height="18.0" rx="5" fill="#ffffff" fill-opacity="0.98" stroke="#7F3C8D" stroke-width="1.8"/><text x="155.0" y="485.0" font-family="ui-monospace, Menlo, Consolas, monospace" font-size="10" fill="#0b1220" style="paint-order:stroke;stroke:#ffffff;stroke-width:2.4;stroke-linejoin:round;">48.1 | 7.7G</text><line x1="140.0" y1="476.7" x2="146.0" y2="400.0" stroke="#6B7280" stroke-width="1.4" stroke-opacity="0.95"/><rect x="146.0" y="384.0" width="84.0" height="18.0" rx="5" fill="#ffffff" fill-opacity="0.98" stroke="#6B7280" stroke-width="1.8"/><text x="151.0" y="397.0" font-family="ui-monospace, Menlo, Consolas, monospace" font-size="10" fill="#0b1220" style="paint-order:stroke;stroke:#ffffff;stroke-width:2.4;stroke-linejoin:round;">51.2 | 10.1G</text><line x1="140.0" y1="478.0" x2="150.0" y2="466.0" stroke="#0057E7" stroke-width="1.4" stroke-opacity="0.95"/><rect x="150.0" y="450.0" width="84.0" height="18.0" rx="5" fill="#ffffff" fill-opacity="0.98" stroke="#0057E7" stroke-width="1.8"/><text x="155.0" y="463.0" font-family="ui-monospace, Menlo, Consolas, monospace" font-size="10" fill="#0b1220" style="paint-order:stroke;stroke:#ffffff;stroke-width:2.4;stroke-linejoin:round;">47.2 | 15.5G</text><line x1="462.5" y1="454.0" x2="472.5" y2="356.0" stroke="#0057E7" stroke-width="1.4" stroke-opacity="0.95"/><rect x="472.5" y="340.0" width="90.0" height="18.0" rx="5" fill="#ffffff" fill-opacity="0.98" stroke="#0057E7" stroke-width="1.8"/><text x="477.5" y="353.0" font-family="ui-monospace, Menlo, Consolas, monospace" font-size="10" fill="#0b1220" style="paint-order:stroke;stroke:#ffffff;stroke-width:2.4;stroke-linejoin:round;">118.1 | 29.7G</text><line x1="462.5" y1="455.1" x2="452.5" y2="422.0" stroke="#00A676" stroke-width="1.4" stroke-opacity="0.95"/><rect x="362.5" y="406.0" width="90.0" height="18.0" rx="5" fill="#ffffff" fill-opacity="0.98" stroke="#00A676" stroke-width="1.8"/><text x="367.5" y="419.0" font-family="ui-monospace, Menlo, Consolas, monospace" font-size="10" fill="#0b1220" style="paint-order:stroke;stroke:#ffffff;stroke-width:2.4;stroke-linejoin:round;">115.1 | 29.7G</text><line x1="462.5" y1="474.8" x2="472.5" y2="400.0" stroke="#FF7F11" stroke-width="1.4" stroke-opacity="0.95"/><rect x="472.5" y="384.0" width="78.0" height="18.0" rx="5" fill="#ffffff" fill-opacity="0.98" stroke="#FF7F11" stroke-width="1.8"/><text x="477.5" y="397.0" font-family="ui-monospace, Menlo, Consolas, monospace" font-size="10" fill="#0b1220" style="paint-order:stroke;stroke:#ffffff;stroke-width:2.4;stroke-linejoin:round;">56.9 | 5.4G</text><line x1="462.5" y1="451.9" x2="452.5" y2="444.0" stroke="#D7263D" stroke-width="1.4" stroke-opacity="0.95"/><rect x="368.5" y="428.0" width="84.0" height="18.0" rx="5" fill="#ffffff" fill-opacity="0.98" stroke="#D7263D" stroke-width="1.8"/><text x="373.5" y="441.0" font-family="ui-monospace, Menlo, Consolas, monospace" font-size="10" fill="#0b1220" style="paint-order:stroke;stroke:#ffffff;stroke-width:2.4;stroke-linejoin:round;">124.5 | 6.3G</text><line x1="462.5" y1="452.0" x2="472.5" y2="474.0" stroke="#7F3C8D" stroke-width="1.4" stroke-opacity="0.95"/><rect x="472.5" y="472.0" width="84.0" height="18.0" rx="5" fill="#ffffff" fill-opacity="0.98" stroke="#7F3C8D" stroke-width="1.8"/><text x="477.5" y="485.0" font-family="ui-monospace, Menlo, Consolas, monospace" font-size="10" fill="#0b1220" style="paint-order:stroke;stroke:#ffffff;stroke-width:2.4;stroke-linejoin:round;">124.1 | 7.7G</text><line x1="462.5" y1="452.0" x2="452.5" y2="378.0" stroke="#6B7280" stroke-width="1.4" stroke-opacity="0.95"/><rect x="362.5" y="362.0" width="90.0" height="18.0" rx="5" fill="#ffffff" fill-opacity="0.98" stroke="#6B7280" stroke-width="1.8"/><text x="367.5" y="375.0" font-family="ui-monospace, Menlo, Consolas, monospace" font-size="10" fill="#0b1220" style="paint-order:stroke;stroke:#ffffff;stroke-width:2.4;stroke-linejoin:round;">124.1 | 10.3G</text><line x1="462.5" y1="450.8" x2="472.5" y2="452.0" stroke="#0057E7" stroke-width="1.4" stroke-opacity="0.95"/><rect x="472.5" y="450.0" width="90.0" height="18.0" rx="5" fill="#ffffff" fill-opacity="0.98" stroke="#0057E7" stroke-width="1.8"/><text x="477.5" y="463.0" font-family="ui-monospace, Menlo, Consolas, monospace" font-size="10" fill="#0b1220" style="paint-order:stroke;stroke:#ffffff;stroke-width:2.4;stroke-linejoin:round;">127.6 | 15.5G</text><line x1="785.0" y1="415.3" x2="795.0" y2="344.2" stroke="#0057E7" stroke-width="1.4" stroke-opacity="0.95"/><rect x="795.0" y="328.2" width="90.0" height="18.0" rx="5" fill="#ffffff" fill-opacity="0.98" stroke="#0057E7" stroke-width="1.8"/><text x="800.0" y="341.2" font-family="ui-monospace, Menlo, Consolas, monospace" font-size="10" fill="#0b1220" style="paint-order:stroke;stroke:#ffffff;stroke-width:2.4;stroke-linejoin:round;">232.7 | 29.7G</text><line x1="785.0" y1="417.0" x2="775.0" y2="378.0" stroke="#00A676" stroke-width="1.4" stroke-opacity="0.95"/><rect x="685.0" y="362.0" width="90.0" height="18.0" rx="5" fill="#ffffff" fill-opacity="0.98" stroke="#00A676" stroke-width="1.8"/><text x="690.0" y="375.0" font-family="ui-monospace, Menlo, Consolas, monospace" font-size="10" fill="#0b1220" style="paint-order:stroke;stroke:#ffffff;stroke-width:2.4;stroke-linejoin:round;">227.5 | 29.7G</text><line x1="785.0" y1="474.1" x2="795.0" y2="422.0" stroke="#FF7F11" stroke-width="1.4" stroke-opacity="0.95"/><rect x="795.0" y="406.0" width="78.0" height="18.0" rx="5" fill="#ffffff" fill-opacity="0.98" stroke="#FF7F11" stroke-width="1.8"/><text x="800.0" y="419.0" font-family="ui-monospace, Menlo, Consolas, monospace" font-size="10" fill="#0b1220" style="paint-order:stroke;stroke:#ffffff;stroke-width:2.4;stroke-linejoin:round;">58.7 | 5.4G</text><line x1="785.0" y1="449.4" x2="775.0" y2="452.0" stroke="#D7263D" stroke-width="1.4" stroke-opacity="0.95"/><rect x="691.0" y="450.0" width="84.0" height="18.0" rx="5" fill="#ffffff" fill-opacity="0.98" stroke="#D7263D" stroke-width="1.8"/><text x="696.0" y="463.0" font-family="ui-monospace, Menlo, Consolas, monospace" font-size="10" fill="#0b1220" style="paint-order:stroke;stroke:#ffffff;stroke-width:2.4;stroke-linejoin:round;">131.9 | 6.3G</text><line x1="785.0" y1="445.0" x2="795.0" y2="474.0" stroke="#7F3C8D" stroke-width="1.4" stroke-opacity="0.95"/><rect x="795.0" y="472.0" width="84.0" height="18.0" rx="5" fill="#ffffff" fill-opacity="0.98" stroke="#7F3C8D" stroke-width="1.8"/><text x="800.0" y="485.0" font-family="ui-monospace, Menlo, Consolas, monospace" font-size="10" fill="#0b1220" style="paint-order:stroke;stroke:#ffffff;stroke-width:2.4;stroke-linejoin:round;">144.8 | 7.7G</text><line x1="785.0" y1="444.5" x2="775.0" y2="400.0" stroke="#6B7280" stroke-width="1.4" stroke-opacity="0.95"/><rect x="685.0" y="384.0" width="90.0" height="18.0" rx="5" fill="#ffffff" fill-opacity="0.98" stroke="#6B7280" stroke-width="1.8"/><text x="690.0" y="397.0" font-family="ui-monospace, Menlo, Consolas, monospace" font-size="10" fill="#0b1220" style="paint-order:stroke;stroke:#ffffff;stroke-width:2.4;stroke-linejoin:round;">146.3 | 10.3G</text><line x1="785.0" y1="442.0" x2="795.0" y2="442.0" stroke="#0057E7" stroke-width="1.4" stroke-opacity="0.95"/><rect x="795.0" y="428.0" width="90.0" height="18.0" rx="5" fill="#ffffff" fill-opacity="0.98" stroke="#0057E7" stroke-width="1.8"/><text x="800.0" y="441.0" font-family="ui-monospace, Menlo, Consolas, monospace" font-size="10" fill="#0b1220" style="paint-order:stroke;stroke:#ffffff;stroke-width:2.4;stroke-linejoin:round;">153.8 | 15.5G</text><line x1="1107.5" y1="341.7" x2="1117.5" y2="317.6" stroke="#0057E7" stroke-width="1.4" stroke-opacity="0.95"/><rect x="1117.5" y="301.6" width="90.0" height="18.0" rx="5" fill="#ffffff" fill-opacity="0.98" stroke="#0057E7" stroke-width="1.8"/><text x="1122.5" y="314.6" font-family="ui-monospace, Menlo, Consolas, monospace" font-size="10" fill="#0b1220" style="paint-order:stroke;stroke:#ffffff;stroke-width:2.4;stroke-linejoin:round;">450.3 | 29.7G</text><line x1="1107.5" y1="343.3" x2="1097.5" y2="343.3" stroke="#00A676" stroke-width="1.4" stroke-opacity="0.95"/><rect x="1007.5" y="335.3" width="90.0" height="18.0" rx="5" fill="#ffffff" fill-opacity="0.98" stroke="#00A676" stroke-width="1.8"/><text x="1012.5" y="348.3" font-family="ui-monospace, Menlo, Consolas, monospace" font-size="10" fill="#0b1220" style="paint-order:stroke;stroke:#ffffff;stroke-width:2.4;stroke-linejoin:round;">445.3 | 29.7G</text><line x1="1107.5" y1="474.0" x2="1117.5" y2="444.0" stroke="#FF7F11" stroke-width="1.4" stroke-opacity="0.95"/><rect x="1117.5" y="428.0" width="78.0" height="18.0" rx="5" fill="#ffffff" fill-opacity="0.98" stroke="#FF7F11" stroke-width="1.8"/><text x="1122.5" y="441.0" font-family="ui-monospace, Menlo, Consolas, monospace" font-size="10" fill="#0b1220" style="paint-order:stroke;stroke:#ffffff;stroke-width:2.4;stroke-linejoin:round;">59.1 | 5.4G</text><line x1="1107.5" y1="448.3" x2="1097.5" y2="452.0" stroke="#D7263D" stroke-width="1.4" stroke-opacity="0.95"/><rect x="1013.5" y="450.0" width="84.0" height="18.0" rx="5" fill="#ffffff" fill-opacity="0.98" stroke="#D7263D" stroke-width="1.8"/><text x="1018.5" y="463.0" font-family="ui-monospace, Menlo, Consolas, monospace" font-size="10" fill="#0b1220" style="paint-order:stroke;stroke:#ffffff;stroke-width:2.4;stroke-linejoin:round;">135.1 | 6.3G</text><line x1="1107.5" y1="443.4" x2="1117.5" y2="474.0" stroke="#7F3C8D" stroke-width="1.4" stroke-opacity="0.95"/><rect x="1117.5" y="472.0" width="84.0" height="18.0" rx="5" fill="#ffffff" fill-opacity="0.98" stroke="#7F3C8D" stroke-width="1.8"/><text x="1122.5" y="485.0" font-family="ui-monospace, Menlo, Consolas, monospace" font-size="10" fill="#0b1220" style="paint-order:stroke;stroke:#ffffff;stroke-width:2.4;stroke-linejoin:round;">149.7 | 7.7G</text><line x1="1107.5" y1="402.6" x2="1097.5" y2="386.6" stroke="#6B7280" stroke-width="1.4" stroke-opacity="0.95"/><rect x="1007.5" y="370.6" width="90.0" height="18.0" rx="5" fill="#ffffff" fill-opacity="0.98" stroke="#6B7280" stroke-width="1.8"/><text x="1012.5" y="383.6" font-family="ui-monospace, Menlo, Consolas, monospace" font-size="10" fill="#0b1220" style="paint-order:stroke;stroke:#ffffff;stroke-width:2.4;stroke-linejoin:round;">270.0 | 10.3G</text><line x1="1107.5" y1="401.7" x2="1117.5" y2="401.7" stroke="#0057E7" stroke-width="1.4" stroke-opacity="0.95"/><rect x="1117.5" y="399.7" width="90.0" height="18.0" rx="5" fill="#ffffff" fill-opacity="0.98" stroke="#0057E7" stroke-width="1.8"/><text x="1122.5" y="412.7" font-family="ui-monospace, Menlo, Consolas, monospace" font-size="10" fill="#0b1220" style="paint-order:stroke;stroke:#ffffff;stroke-width:2.4;stroke-linejoin:round;">272.8 | 15.5G</text><line x1="1430.0" y1="200.9" x2="1440.0" y2="176.9" stroke="#0057E7" stroke-width="1.4" stroke-opacity="0.95"/><rect x="1440.0" y="160.9" width="90.0" height="18.0" rx="5" fill="#ffffff" fill-opacity="0.98" stroke="#0057E7" stroke-width="1.8"/><text x="1445.0" y="173.9" font-family="ui-monospace, Menlo, Consolas, monospace" font-size="10" fill="#0b1220" style="paint-order:stroke;stroke:#ffffff;stroke-width:2.4;stroke-linejoin:round;">866.2 | 29.7G</text><line x1="1430.0" y1="209.6" x2="1440.0" y2="209.6" stroke="#00A676" stroke-width="1.4" stroke-opacity="0.95"/><rect x="1440.0" y="201.6" width="90.0" height="18.0" rx="5" fill="#ffffff" fill-opacity="0.98" stroke="#00A676" stroke-width="1.8"/><text x="1445.0" y="214.6" font-family="ui-monospace, Menlo, Consolas, monospace" font-size="10" fill="#0b1220" style="paint-order:stroke;stroke:#ffffff;stroke-width:2.4;stroke-linejoin:round;">840.6 | 29.7G</text><line x1="1430.0" y1="474.0" x2="1440.0" y2="444.0" stroke="#FF7F11" stroke-width="1.4" stroke-opacity="0.95"/><rect x="1440.0" y="428.0" width="78.0" height="18.0" rx="5" fill="#ffffff" fill-opacity="0.98" stroke="#FF7F11" stroke-width="1.8"/><text x="1445.0" y="441.0" font-family="ui-monospace, Menlo, Consolas, monospace" font-size="10" fill="#0b1220" style="paint-order:stroke;stroke:#ffffff;stroke-width:2.4;stroke-linejoin:round;">59.2 | 5.4G</text><line x1="1430.0" y1="448.3" x2="1440.0" y2="452.0" stroke="#D7263D" stroke-width="1.4" stroke-opacity="0.95"/><rect x="1440.0" y="450.0" width="84.0" height="18.0" rx="5" fill="#ffffff" fill-opacity="0.98" stroke="#D7263D" stroke-width="1.8"/><text x="1445.0" y="463.0" font-family="ui-monospace, Menlo, Consolas, monospace" font-size="10" fill="#0b1220" style="paint-order:stroke;stroke:#ffffff;stroke-width:2.4;stroke-linejoin:round;">135.1 | 6.3G</text><line x1="1430.0" y1="443.3" x2="1440.0" y2="474.0" stroke="#7F3C8D" stroke-width="1.4" stroke-opacity="0.95"/><rect x="1440.0" y="472.0" width="84.0" height="18.0" rx="5" fill="#ffffff" fill-opacity="0.98" stroke="#7F3C8D" stroke-width="1.8"/><text x="1445.0" y="485.0" font-family="ui-monospace, Menlo, Consolas, monospace" font-size="10" fill="#0b1220" style="paint-order:stroke;stroke:#ffffff;stroke-width:2.4;stroke-linejoin:round;">150.0 | 7.7G</text><line x1="1430.0" y1="400.2" x2="1440.0" y2="384.2" stroke="#6B7280" stroke-width="1.4" stroke-opacity="0.95"/><rect x="1440.0" y="368.2" width="90.0" height="18.0" rx="5" fill="#ffffff" fill-opacity="0.98" stroke="#6B7280" stroke-width="1.8"/><text x="1445.0" y="381.2" font-family="ui-monospace, Menlo, Consolas, monospace" font-size="10" fill="#0b1220" style="paint-order:stroke;stroke:#ffffff;stroke-width:2.4;stroke-linejoin:round;">277.3 | 10.3G</text><line x1="1430.0" y1="371.4" x2="1440.0" y2="392.2" stroke="#0057E7" stroke-width="1.4" stroke-opacity="0.95"/><rect x="1440.0" y="390.2" width="90.0" height="18.0" rx="5" fill="#ffffff" fill-opacity="0.98" stroke="#0057E7" stroke-width="1.8"/><text x="1445.0" y="403.2" font-family="ui-monospace, Menlo, Consolas, monospace" font-size="10" fill="#0b1220" style="paint-order:stroke;stroke:#ffffff;stroke-width:2.4;stroke-linejoin:round;">362.2 | 15.5G</text><line x1="1430.0" y1="953.2" x2="1422.0" y2="920.5" stroke="#0057E7" stroke-width="1.4" stroke-opacity="0.95"/><rect x="1189.0" y="904.5" width="233.0" height="18.0" rx="5" fill="#ffffff" fill-opacity="0.98" stroke="#0057E7" stroke-width="1.8"/><text x="1194.0" y="917.5" font-family="ui-monospace, Menlo, Consolas, monospace" font-size="10" fill="#0b1220" style="paint-order:stroke;stroke:#ffffff;stroke-width:2.4;stroke-linejoin:round;">vLLM prefix OFF  TTFT 0.3s  P95 7.4s</text><line x1="1430.0" y1="953.0" x2="1422.0" y2="954.5" stroke="#00A676" stroke-width="1.4" stroke-opacity="0.95"/><rect x="1195.0" y="952.5" width="227.0" height="18.0" rx="5" fill="#ffffff" fill-opacity="0.98" stroke="#00A676" stroke-width="1.8"/><text x="1200.0" y="965.5" font-family="ui-monospace, Menlo, Consolas, monospace" font-size="10" fill="#0b1220" style="paint-order:stroke;stroke:#ffffff;stroke-width:2.4;stroke-linejoin:round;">vLLM prefix ON  TTFT 0.3s  P95 7.6s</text><line x1="1430.0" y1="743.9" x2="1422.0" y2="644.0" stroke="#FF7F11" stroke-width="1.4" stroke-opacity="0.95"/><rect x="1195.0" y="628.0" width="227.0" height="18.0" rx="5" fill="#ffffff" fill-opacity="0.98" stroke="#FF7F11" stroke-width="1.8"/><text x="1200.0" y="641.0" font-family="ui-monospace, Menlo, Consolas, monospace" font-size="10" fill="#0b1220" style="paint-order:stroke;stroke:#ffffff;stroke-width:2.4;stroke-linejoin:round;">Ollama np=1  TTFT 52.6s  P95 104.8s</text><line x1="1430.0" y1="868.5" x2="1422.0" y2="844.7" stroke="#D7263D" stroke-width="1.4" stroke-opacity="0.95"/><rect x="1202.0" y="828.7" width="220.0" height="18.0" rx="5" fill="#ffffff" fill-opacity="0.98" stroke="#D7263D" stroke-width="1.8"/><text x="1207.0" y="841.7" font-family="ui-monospace, Menlo, Consolas, monospace" font-size="10" fill="#0b1220" style="paint-order:stroke;stroke:#ffffff;stroke-width:2.4;stroke-linejoin:round;">Ollama np=4  TTFT 21.0s  P95 47.4s</text><line x1="1430.0" y1="881.6" x2="1422.0" y2="868.7" stroke="#7F3C8D" stroke-width="1.4" stroke-opacity="0.95"/><rect x="1202.0" y="852.7" width="220.0" height="18.0" rx="5" fill="#ffffff" fill-opacity="0.98" stroke="#7F3C8D" stroke-width="1.8"/><text x="1207.0" y="865.7" font-family="ui-monospace, Menlo, Consolas, monospace" font-size="10" fill="#0b1220" style="paint-order:stroke;stroke:#ffffff;stroke-width:2.4;stroke-linejoin:round;">Ollama np=8  TTFT 16.3s  P95 42.6s</text><line x1="1430.0" y1="923.0" x2="1422.0" y2="892.7" stroke="#6B7280" stroke-width="1.4" stroke-opacity="0.95"/><rect x="1202.0" y="876.7" width="220.0" height="18.0" rx="5" fill="#ffffff" fill-opacity="0.98" stroke="#6B7280" stroke-width="1.8"/><text x="1207.0" y="889.7" font-family="ui-monospace, Menlo, Consolas, monospace" font-size="10" fill="#0b1220" style="paint-order:stroke;stroke:#ffffff;stroke-width:2.4;stroke-linejoin:round;">Ollama np=16  TTFT 6.2s  P95 23.1s</text><line x1="1430.0" y1="937.0" x2="1422.0" y2="937.0" stroke="#0057E7" stroke-width="1.4" stroke-opacity="0.95"/><rect x="1202.0" y="928.5" width="220.0" height="18.0" rx="5" fill="#ffffff" fill-opacity="0.98" stroke="#0057E7" stroke-width="1.8"/><text x="1207.0" y="941.5" font-family="ui-monospace, Menlo, Consolas, monospace" font-size="10" fill="#0b1220" style="paint-order:stroke;stroke:#ffffff;stroke-width:2.4;stroke-linejoin:round;">Ollama np=32  TTFT 1.6s  P95 17.7s</text></svg>