<svg xmlns="http://www.w3.org/2000/svg" width="1640" height="980" viewBox="0 0 1640 980">
  <defs>
    <linearGradient id="bg" x1="0" y1="0" x2="1" y2="1">
      <stop offset="0%" stop-color="#f8fbff"/>
      <stop offset="100%" stop-color="#f3f7ff"/>
    </linearGradient>
  </defs>
  <rect x="0" y="0" width="1640" height="980" fill="url(#bg)"/>
  <text x="52" y="42" font-family="ui-monospace, Menlo, Consolas, monospace" font-size="29" fill="#0f172a">
    Throughput by Concurrency (varied_unique_prefix)
  </text>
  <text x="52" y="64" font-family="ui-monospace, Menlo, Consolas, monospace" font-size="13" fill="#475569">
    source=lane_benchmark_20260309_190938.json | timestamp_utc=2026-03-09T19:28:12.254045+00:00
  </text>
  <line x1="120" y1="82" x2="148" y2="82" stroke="#0b84f3" stroke-width="4"/><text x="156" y="86" font-family="ui-monospace, Menlo, Consolas, monospace" font-size="14" fill="#0f172a">vLLM prefix OFF</text><line x1="400" y1="82" x2="428" y2="82" stroke="#00a884" stroke-width="4"/><text x="436" y="86" font-family="ui-monospace, Menlo, Consolas, monospace" font-size="14" fill="#0f172a">vLLM prefix ON</text><line x1="680" y1="82" x2="708" y2="82" stroke="#f97316" stroke-width="4"/><text x="716" y="86" font-family="ui-monospace, Menlo, Consolas, monospace" font-size="14" fill="#0f172a">Ollama np=2</text><line x1="960" y1="82" x2="988" y2="82" stroke="#ef4444" stroke-width="4"/><text x="996" y="86" font-family="ui-monospace, Menlo, Consolas, monospace" font-size="14" fill="#0f172a">Ollama np=4</text><line x1="1240" y1="82" x2="1268" y2="82" stroke="#b45309" stroke-width="4"/><text x="1276" y="86" font-family="ui-monospace, Menlo, Consolas, monospace" font-size="14" fill="#0f172a">Ollama np=8</text>

  <line x1="120" y1="870.00" x2="1590" y2="870.00" stroke="#e9eef7" stroke-width="1"/><text x="108" y="874.00" font-family="ui-monospace, Menlo, Consolas, monospace" font-size="12" text-anchor="end" fill="#475569">0</text><line x1="120" y1="746.67" x2="1590" y2="746.67" stroke="#e9eef7" stroke-width="1"/><text x="108" y="750.67" font-family="ui-monospace, Menlo, Consolas, monospace" font-size="12" text-anchor="end" fill="#475569">49</text><line x1="120" y1="623.33" x2="1590" y2="623.33" stroke="#e9eef7" stroke-width="1"/><text x="108" y="627.33" font-family="ui-monospace, Menlo, Consolas, monospace" font-size="12" text-anchor="end" fill="#475569">99</text><line x1="120" y1="500.00" x2="1590" y2="500.00" stroke="#e9eef7" stroke-width="1"/><text x="108" y="504.00" font-family="ui-monospace, Menlo, Consolas, monospace" font-size="12" text-anchor="end" fill="#475569">148</text><line x1="120" y1="376.67" x2="1590" y2="376.67" stroke="#e9eef7" stroke-width="1"/><text x="108" y="380.67" font-family="ui-monospace, Menlo, Consolas, monospace" font-size="12" text-anchor="end" fill="#475569">197</text><line x1="120" y1="253.33" x2="1590" y2="253.33" stroke="#e9eef7" stroke-width="1"/><text x="108" y="257.33" font-family="ui-monospace, Menlo, Consolas, monospace" font-size="12" text-anchor="end" fill="#475569">247</text><line x1="120" y1="130.00" x2="1590" y2="130.00" stroke="#e9eef7" stroke-width="1"/><text x="108" y="134.00" font-family="ui-monospace, Menlo, Consolas, monospace" font-size="12" text-anchor="end" fill="#475569">296</text><line x1="120.00" y1="130" x2="120.00" y2="870" stroke="#f4f7fb" stroke-width="1"/><text x="120.00" y="898" font-family="ui-monospace, Menlo, Consolas, monospace" font-size="12" text-anchor="middle" fill="#334155">1</text><line x1="487.50" y1="130" x2="487.50" y2="870" stroke="#f4f7fb" stroke-width="1"/><text x="487.50" y="898" font-family="ui-monospace, Menlo, Consolas, monospace" font-size="12" text-anchor="middle" fill="#334155">4</text><line x1="855.00" y1="130" x2="855.00" y2="870" stroke="#f4f7fb" stroke-width="1"/><text x="855.00" y="898" font-family="ui-monospace, Menlo, Consolas, monospace" font-size="12" text-anchor="middle" fill="#334155">8</text><line x1="1222.50" y1="130" x2="1222.50" y2="870" stroke="#f4f7fb" stroke-width="1"/><text x="1222.50" y="898" font-family="ui-monospace, Menlo, Consolas, monospace" font-size="12" text-anchor="middle" fill="#334155">16</text><line x1="1590.00" y1="130" x2="1590.00" y2="870" stroke="#f4f7fb" stroke-width="1"/><text x="1590.00" y="898" font-family="ui-monospace, Menlo, Consolas, monospace" font-size="12" text-anchor="middle" fill="#334155">32</text>
  <line x1="120" y1="870" x2="1590" y2="870" stroke="#0f172a" stroke-width="2"/>
  <line x1="120" y1="130" x2="120" y2="870" stroke="#0f172a" stroke-width="2"/>

  <polyline points="120.00,830.88 487.50,716.87 855.00,611.41 1222.50,398.62 1590.00,209.29" fill="none" stroke="#0b84f3" stroke-width="3.8"/><circle cx="120.00" cy="830.88" r="4.6" fill="#0b84f3" stroke="#ffffff" stroke-width="1.2"/><text x="128.00" y="815.88" font-family="ui-monospace, Menlo, Consolas, monospace" font-size="10.8" fill="#0b84f3">15.6 | 30.1G</text><circle cx="487.50" cy="716.87" r="4.6" fill="#0b84f3" stroke="#ffffff" stroke-width="1.2"/><text x="495.50" y="701.87" font-family="ui-monospace, Menlo, Consolas, monospace" font-size="10.8" fill="#0b84f3">61.2 | 30.1G</text><circle cx="855.00" cy="611.41" r="4.6" fill="#0b84f3" stroke="#ffffff" stroke-width="1.2"/><text x="863.00" y="596.41" font-family="ui-monospace, Menlo, Consolas, monospace" font-size="10.8" fill="#0b84f3">103.4 | 30.1G</text><circle cx="1222.50" cy="398.62" r="4.6" fill="#0b84f3" stroke="#ffffff" stroke-width="1.2"/><text x="1230.50" y="383.62" font-family="ui-monospace, Menlo, Consolas, monospace" font-size="10.8" fill="#0b84f3">188.5 | 30.1G</text><circle cx="1590.00" cy="209.29" r="4.6" fill="#0b84f3" stroke="#ffffff" stroke-width="1.2"/><text x="1598.00" y="194.29" font-family="ui-monospace, Menlo, Consolas, monospace" font-size="10.8" fill="#0b84f3">264.2 | 30.1G</text><polyline points="120.00,824.41 487.50,704.40 855.00,609.67 1222.50,399.55 1590.00,212.58" fill="none" stroke="#00a884" stroke-width="3.8"/><circle cx="120.00" cy="824.41" r="4.6" fill="#00a884" stroke="#ffffff" stroke-width="1.2"/><text x="128.00" y="838.41" font-family="ui-monospace, Menlo, Consolas, monospace" font-size="10.8" fill="#00a884">18.2 | 30.1G</text><circle cx="487.50" cy="704.40" r="4.6" fill="#00a884" stroke="#ffffff" stroke-width="1.2"/><text x="495.50" y="718.40" font-family="ui-monospace, Menlo, Consolas, monospace" font-size="10.8" fill="#00a884">66.2 | 30.1G</text><circle cx="855.00" cy="609.67" r="4.6" fill="#00a884" stroke="#ffffff" stroke-width="1.2"/><text x="863.00" y="623.67" font-family="ui-monospace, Menlo, Consolas, monospace" font-size="10.8" fill="#00a884">104.1 | 30.1G</text><circle cx="1222.50" cy="399.55" r="4.6" fill="#00a884" stroke="#ffffff" stroke-width="1.2"/><text x="1230.50" y="413.55" font-family="ui-monospace, Menlo, Consolas, monospace" font-size="10.8" fill="#00a884">188.1 | 30.1G</text><circle cx="1590.00" cy="212.58" r="4.6" fill="#00a884" stroke="#ffffff" stroke-width="1.2"/><text x="1598.00" y="226.58" font-family="ui-monospace, Menlo, Consolas, monospace" font-size="10.8" fill="#00a884">262.9 | 30.1G</text><polyline points="120.00,828.81 487.50,799.83 855.00,797.21 1222.50,796.52 1590.00,795.84" fill="none" stroke="#f97316" stroke-width="3.8"/><circle cx="120.00" cy="828.81" r="4.6" fill="#f97316" stroke="#ffffff" stroke-width="1.2"/><text x="128.00" y="808.81" font-family="ui-monospace, Menlo, Consolas, monospace" font-size="10.8" fill="#f97316">16.5 | 20.3G</text><circle cx="487.50" cy="799.83" r="4.6" fill="#f97316" stroke="#ffffff" stroke-width="1.2"/><text x="495.50" y="779.83" font-family="ui-monospace, Menlo, Consolas, monospace" font-size="10.8" fill="#f97316">28.1 | 20.3G</text><circle cx="855.00" cy="797.21" r="4.6" fill="#f97316" stroke="#ffffff" stroke-width="1.2"/><text x="863.00" y="777.21" font-family="ui-monospace, Menlo, Consolas, monospace" font-size="10.8" fill="#f97316">29.1 | 20.3G</text><circle cx="1222.50" cy="796.52" r="4.6" fill="#f97316" stroke="#ffffff" stroke-width="1.2"/><text x="1230.50" y="776.52" font-family="ui-monospace, Menlo, Consolas, monospace" font-size="10.8" fill="#f97316">29.4 | 20.3G</text><circle cx="1590.00" cy="795.84" r="4.6" fill="#f97316" stroke="#ffffff" stroke-width="1.2"/><text x="1598.00" y="775.84" font-family="ui-monospace, Menlo, Consolas, monospace" font-size="10.8" fill="#f97316">29.7 | 20.3G</text><polyline points="120.00,832.15 487.50,778.59 855.00,780.13 1222.50,775.26 1590.00,773.63" fill="none" stroke="#ef4444" stroke-width="3.8"/><circle cx="120.00" cy="832.15" r="4.6" fill="#ef4444" stroke="#ffffff" stroke-width="1.2"/><text x="128.00" y="848.15" font-family="ui-monospace, Menlo, Consolas, monospace" font-size="10.8" fill="#ef4444">15.1 | 21.4G</text><circle cx="487.50" cy="778.59" r="4.6" fill="#ef4444" stroke="#ffffff" stroke-width="1.2"/><text x="495.50" y="794.59" font-family="ui-monospace, Menlo, Consolas, monospace" font-size="10.8" fill="#ef4444">36.6 | 21.4G</text><circle cx="855.00" cy="780.13" r="4.6" fill="#ef4444" stroke="#ffffff" stroke-width="1.2"/><text x="863.00" y="796.13" font-family="ui-monospace, Menlo, Consolas, monospace" font-size="10.8" fill="#ef4444">35.9 | 21.4G</text><circle cx="1222.50" cy="775.26" r="4.6" fill="#ef4444" stroke="#ffffff" stroke-width="1.2"/><text x="1230.50" y="791.26" font-family="ui-monospace, Menlo, Consolas, monospace" font-size="10.8" fill="#ef4444">37.9 | 21.4G</text><circle cx="1590.00" cy="773.63" r="4.6" fill="#ef4444" stroke="#ffffff" stroke-width="1.2"/><text x="1598.00" y="789.63" font-family="ui-monospace, Menlo, Consolas, monospace" font-size="10.8" fill="#ef4444">38.5 | 21.4G</text><polyline points="120.00,831.34 487.50,778.52 855.00,767.75 1222.50,773.35 1590.00,774.39" fill="none" stroke="#b45309" stroke-width="3.8"/><circle cx="120.00" cy="831.34" r="4.6" fill="#b45309" stroke="#ffffff" stroke-width="1.2"/><text x="128.00" y="861.34" font-family="ui-monospace, Menlo, Consolas, monospace" font-size="10.8" fill="#b45309">15.5 | 23.7G</text><circle cx="487.50" cy="778.52" r="4.6" fill="#b45309" stroke="#ffffff" stroke-width="1.2"/><text x="495.50" y="808.52" font-family="ui-monospace, Menlo, Consolas, monospace" font-size="10.8" fill="#b45309">36.6 | 23.7G</text><circle cx="855.00" cy="767.75" r="4.6" fill="#b45309" stroke="#ffffff" stroke-width="1.2"/><text x="863.00" y="797.75" font-family="ui-monospace, Menlo, Consolas, monospace" font-size="10.8" fill="#b45309">40.9 | 23.7G</text><circle cx="1222.50" cy="773.35" r="4.6" fill="#b45309" stroke="#ffffff" stroke-width="1.2"/><text x="1230.50" y="803.35" font-family="ui-monospace, Menlo, Consolas, monospace" font-size="10.8" fill="#b45309">38.6 | 23.7G</text><circle cx="1590.00" cy="774.39" r="4.6" fill="#b45309" stroke="#ffffff" stroke-width="1.2"/><text x="1598.00" y="804.39" font-family="ui-monospace, Menlo, Consolas, monospace" font-size="10.8" fill="#b45309">38.2 | 23.7G</text>

  <text x="855.0" y="944" font-family="ui-monospace, Menlo, Consolas, monospace" font-size="15" text-anchor="middle" fill="#0f172a">
    Concurrency
  </text>
  <text x="30" y="500.0" font-family="ui-monospace, Menlo, Consolas, monospace" font-size="15" text-anchor="middle" transform="rotate(-90 30,500.0)" fill="#0f172a">
    Aggregate throughput (tok/s)
  </text>
  <text x="52" y="964" font-family="ui-monospace, Menlo, Consolas, monospace" font-size="12" fill="#64748b">
    Point label format: tok/s | peak total GPU memory (GiB)
  </text>
</svg>
