<svg xmlns="http://www.w3.org/2000/svg" width="1780" height="1120" viewBox="0 0 1780 1120"><defs><linearGradient id="bg" x1="0" y1="0" x2="1" y2="1"><stop offset="0%" stop-color="#f6fbff"/><stop offset="100%" stop-color="#eef6ff"/></linearGradient></defs><rect x="0" y="0" width="1780" height="1120" fill="url(#bg)"/><text x="70" y="44" font-family="ui-monospace, Menlo, Consolas, monospace" font-size="30" fill="#0f172a">Qwen2.5-Coder Benchmark (fixed_shared_prefix)</text><text x="70" y="70" font-family="ui-monospace, Menlo, Consolas, monospace" font-size="13" fill="#334155">source: lane_benchmark_20260309_192836.json | top panel labels: tok/s | peak GiB</text><line x1="70" y1="98" x2="100" y2="98" stroke="#0057E7" stroke-width="4"/><text x="108" y="103" font-family="ui-monospace, Menlo, Consolas, monospace" font-size="14" fill="#0f172a">vLLM prefix OFF</text><line x1="300" y1="98" x2="330" y2="98" stroke="#00A676" stroke-width="4"/><text x="338" y="103" font-family="ui-monospace, Menlo, Consolas, monospace" font-size="14" fill="#0f172a">vLLM prefix ON</text><line x1="530" y1="98" x2="560" y2="98" stroke="#FF7F11" stroke-width="4"/><text x="568" y="103" font-family="ui-monospace, Menlo, Consolas, monospace" font-size="14" fill="#0f172a">Ollama np=2</text><line x1="760" y1="98" x2="790" y2="98" stroke="#D7263D" stroke-width="4"/><text x="798" y="103" font-family="ui-monospace, Menlo, Consolas, monospace" font-size="14" fill="#0f172a">Ollama np=4</text><line x1="990" y1="98" x2="1020" y2="98" stroke="#7F3C8D" stroke-width="4"/><text x="1028" y="103" font-family="ui-monospace, Menlo, Consolas, monospace" font-size="14" fill="#0f172a">Ollama np=8</text><line x1="1430" y1="90" x2="1460" y2="90" stroke="#1f2937" stroke-width="3"/><text x="1465" y="95" font-family="ui-monospace, Menlo, Consolas, monospace" font-size="12" fill="#0f172a">TTFT (ms)</text><line x1="1430" y1="108" x2="1460" y2="108" stroke="#1f2937" stroke-width="3" stroke-dasharray="7 5"/><text x="1465" y="113" font-family="ui-monospace, Menlo, Consolas, monospace" font-size="12" fill="#0f172a">P95 latency (ms)</text><rect x="70" y="130" width="1640" height="420" rx="16" fill="#ffffff" stroke="#c7d7ee" stroke-width="1.2"/><text x="86" y="148" font-family="ui-monospace, Menlo, Consolas, monospace" font-size="16" fill="#0f172a">Throughput</text><line x1="140.0" y1="494.0" x2="1430.0" y2="494.0" stroke="#e8eff9" stroke-width="1"/><text x="130.0" y="498.0" font-family="ui-monospace, Menlo, Consolas, monospace" font-size="11" text-anchor="end" fill="#334155">0</text><line x1="140.0" y1="437.3" x2="1430.0" y2="437.3" stroke="#e8eff9" stroke-width="1"/><text x="130.0" y="441.3" font-family="ui-monospace, Menlo, Consolas, monospace" font-size="11" text-anchor="end" fill="#334155">66</text><line x1="140.0" y1="380.7" x2="1430.0" y2="380.7" stroke="#e8eff9" stroke-width="1"/><text x="130.0" y="384.7" font-family="ui-monospace, Menlo, Consolas, monospace" font-size="11" text-anchor="end" fill="#334155">132</text><line x1="140.0" y1="324.0" x2="1430.0" y2="324.0" stroke="#e8eff9" stroke-width="1"/><text x="130.0" y="328.0" font-family="ui-monospace, Menlo, Consolas, monospace" font-size="11" text-anchor="end" fill="#334155">198</text><line x1="140.0" y1="267.3" x2="1430.0" y2="267.3" stroke="#e8eff9" stroke-width="1"/><text x="130.0" y="271.3" font-family="ui-monospace, Menlo, Consolas, monospace" font-size="11" text-anchor="end" fill="#334155">264</text><line x1="140.0" y1="210.7" x2="1430.0" y2="210.7" stroke="#e8eff9" stroke-width="1"/><text x="130.0" y="214.7" font-family="ui-monospace, Menlo, Consolas, monospace" font-size="11" text-anchor="end" fill="#334155">330</text><line x1="140.0" y1="154.0" x2="1430.0" y2="154.0" stroke="#e8eff9" stroke-width="1"/><text x="130.0" y="158.0" font-family="ui-monospace, Menlo, Consolas, monospace" font-size="11" text-anchor="end" fill="#334155">396</text><line x1="140.0" y1="154.0" x2="140.0" y2="494.0" stroke="#f2f6fc" stroke-width="1"/><text x="140.0" y="519.0" font-family="ui-monospace, Menlo, Consolas, monospace" font-size="11" text-anchor="middle" fill="#1f2937">1</text><line x1="462.5" y1="154.0" x2="462.5" y2="494.0" stroke="#f2f6fc" stroke-width="1"/><text x="462.5" y="519.0" font-family="ui-monospace, Menlo, Consolas, monospace" font-size="11" text-anchor="middle" fill="#1f2937">4</text><line x1="785.0" y1="154.0" x2="785.0" y2="494.0" stroke="#f2f6fc" stroke-width="1"/><text x="785.0" y="519.0" font-family="ui-monospace, Menlo, Consolas, monospace" font-size="11" text-anchor="middle" fill="#1f2937">8</text><line x1="1107.5" y1="154.0" x2="1107.5" y2="494.0" stroke="#f2f6fc" stroke-width="1"/><text x="1107.5" y="519.0" font-family="ui-monospace, Menlo, Consolas, monospace" font-size="11" text-anchor="middle" fill="#1f2937">16</text><line x1="1430.0" y1="154.0" x2="1430.0" y2="494.0" stroke="#f2f6fc" stroke-width="1"/><text x="1430.0" y="519.0" font-family="ui-monospace, Menlo, Consolas, monospace" font-size="11" text-anchor="middle" fill="#1f2937">32</text><line x1="140.0" y1="494.0" x2="1430.0" y2="494.0" stroke="#0f172a" stroke-width="2"/><line x1="140.0" y1="154.0" x2="140.0" y2="494.0" stroke="#0f172a" stroke-width="2"/><text x="785.0" y="538.0" font-family="ui-monospace, Menlo, Consolas, monospace" font-size="13" text-anchor="middle" fill="#0f172a">Concurrency</text><text x="84" y="324.0" font-family="ui-monospace, Menlo, Consolas, monospace" font-size="13" text-anchor="middle" transform="rotate(-90 84,324.0)" fill="#0f172a">Aggregate tok/s</text><rect x="70" y="600" width="1640" height="420" rx="16" fill="#ffffff" stroke="#c7d7ee" stroke-width="1.2"/><text x="86" y="618" font-family="ui-monospace, Menlo, Consolas, monospace" font-size="16" fill="#0f172a">Latency</text><line x1="140.0" y1="964.0" x2="1430.0" y2="964.0" stroke="#e8eff9" stroke-width="1"/><text x="130.0" y="968.0" font-family="ui-monospace, Menlo, Consolas, monospace" font-size="11" text-anchor="end" fill="#334155">0</text><line x1="140.0" y1="907.3" x2="1430.0" y2="907.3" stroke="#e8eff9" stroke-width="1"/><text x="130.0" y="911.3" font-family="ui-monospace, Menlo, Consolas, monospace" font-size="11" text-anchor="end" fill="#334155">31235</text><line x1="140.0" y1="850.7" x2="1430.0" y2="850.7" stroke="#e8eff9" stroke-width="1"/><text x="130.0" y="854.7" font-family="ui-monospace, Menlo, Consolas, monospace" font-size="11" text-anchor="end" fill="#334155">62469</text><line x1="140.0" y1="794.0" x2="1430.0" y2="794.0" stroke="#e8eff9" stroke-width="1"/><text x="130.0" y="798.0" font-family="ui-monospace, Menlo, Consolas, monospace" font-size="11" text-anchor="end" fill="#334155">93704</text><line x1="140.0" y1="737.3" x2="1430.0" y2="737.3" stroke="#e8eff9" stroke-width="1"/><text x="130.0" y="741.3" font-family="ui-monospace, Menlo, Consolas, monospace" font-size="11" text-anchor="end" fill="#334155">124938</text><line x1="140.0" y1="680.7" x2="1430.0" y2="680.7" stroke="#e8eff9" stroke-width="1"/><text x="130.0" y="684.7" font-family="ui-monospace, Menlo, Consolas, monospace" font-size="11" text-anchor="end" fill="#334155">156173</text><line x1="140.0" y1="624.0" x2="1430.0" y2="624.0" stroke="#e8eff9" stroke-width="1"/><text x="130.0" y="628.0" font-family="ui-monospace, Menlo, Consolas, monospace" font-size="11" text-anchor="end" fill="#334155">187407</text><line x1="140.0" y1="624.0" x2="140.0" y2="964.0" stroke="#f2f6fc" stroke-width="1"/><text x="140.0" y="989.0" font-family="ui-monospace, Menlo, Consolas, monospace" font-size="11" text-anchor="middle" fill="#1f2937">1</text><line x1="462.5" y1="624.0" x2="462.5" y2="964.0" stroke="#f2f6fc" stroke-width="1"/><text x="462.5" y="989.0" font-family="ui-monospace, Menlo, Consolas, monospace" font-size="11" text-anchor="middle" fill="#1f2937">4</text><line x1="785.0" y1="624.0" x2="785.0" y2="964.0" stroke="#f2f6fc" stroke-width="1"/><text x="785.0" y="989.0" font-family="ui-monospace, Menlo, Consolas, monospace" font-size="11" text-anchor="middle" fill="#1f2937">8</text><line x1="1107.5" y1="624.0" x2="1107.5" y2="964.0" stroke="#f2f6fc" stroke-width="1"/><text x="1107.5" y="989.0" font-family="ui-monospace, Menlo, Consolas, monospace" font-size="11" text-anchor="middle" fill="#1f2937">16</text><line x1="1430.0" y1="624.0" x2="1430.0" y2="964.0" stroke="#f2f6fc" stroke-width="1"/><text x="1430.0" y="989.0" font-family="ui-monospace, Menlo, Consolas, monospace" font-size="11" text-anchor="middle" fill="#1f2937">32</text><line x1="140.0" y1="964.0" x2="1430.0" y2="964.0" stroke="#0f172a" stroke-width="2"/><line x1="140.0" y1="624.0" x2="140.0" y2="964.0" stroke="#0f172a" stroke-width="2"/><text x="785.0" y="1008.0" font-family="ui-monospace, Menlo, Consolas, monospace" font-size="13" text-anchor="middle" fill="#0f172a">Concurrency</text><text x="84" y="794.0" font-family="ui-monospace, Menlo, Consolas, monospace" font-size="13" text-anchor="middle" transform="rotate(-90 84,794.0)" fill="#0f172a">Milliseconds</text><polyline points="140.0,477.6 462.5,433.6 785.0,375.3 1107.5,262.5 1430.0,200.9" fill="none" stroke="#0057E7" stroke-width="3.2"/><circle cx="140.0" cy="477.6" r="4.4" fill="#0057E7" stroke="#ffffff" stroke-width="1.2"/><circle cx="462.5" cy="433.6" r="4.4" fill="#0057E7" stroke="#ffffff" stroke-width="1.2"/><circle cx="785.0" cy="375.3" r="4.4" fill="#0057E7" stroke="#ffffff" stroke-width="1.2"/><circle cx="1107.5" cy="262.5" r="4.4" fill="#0057E7" stroke="#ffffff" stroke-width="1.2"/><circle cx="1430.0" cy="200.9" r="4.4" fill="#0057E7" stroke="#ffffff" stroke-width="1.2"/><polyline points="140.0,963.4 462.5,963.7 785.0,963.5 1107.5,963.3 1430.0,962.9" fill="none" stroke="#0057E7" stroke-width="2.8"/><polyline points="140.0,948.8 462.5,946.5 785.0,945.3 1107.5,945.2 1430.0,935.2" fill="none" stroke="#0057E7" stroke-width="2.8" stroke-dasharray="7 5"/><circle cx="140.0" cy="963.4" r="3.5" fill="#0057E7" stroke="#ffffff" stroke-width="1"/><circle cx="462.5" cy="963.7" r="3.5" fill="#0057E7" stroke="#ffffff" stroke-width="1"/><circle cx="785.0" cy="963.5" r="3.5" fill="#0057E7" stroke="#ffffff" stroke-width="1"/><circle cx="1107.5" cy="963.3" r="3.5" fill="#0057E7" stroke="#ffffff" stroke-width="1"/><circle cx="1430.0" cy="962.9" r="3.5" fill="#0057E7" stroke="#ffffff" stroke-width="1"/><circle cx="140.0" cy="948.8" r="3.5" fill="#ffffff" stroke="#0057E7" stroke-width="1.6"/><circle cx="462.5" cy="946.5" r="3.5" fill="#ffffff" stroke="#0057E7" stroke-width="1.6"/><circle cx="785.0" cy="945.3" r="3.5" fill="#ffffff" stroke="#0057E7" stroke-width="1.6"/><circle cx="1107.5" cy="945.2" r="3.5" fill="#ffffff" stroke="#0057E7" stroke-width="1.6"/><circle cx="1430.0" cy="935.2" r="3.5" fill="#ffffff" stroke="#0057E7" stroke-width="1.6"/><polyline points="140.0,477.9 462.5,435.2 785.0,378.1 1107.5,268.7 1430.0,202.2" fill="none" stroke="#00A676" stroke-width="3.2"/><circle cx="140.0" cy="477.9" r="4.4" fill="#00A676" stroke="#ffffff" stroke-width="1.2"/><circle cx="462.5" cy="435.2" r="4.4" fill="#00A676" stroke="#ffffff" stroke-width="1.2"/><circle cx="785.0" cy="378.1" r="4.4" fill="#00A676" stroke="#ffffff" stroke-width="1.2"/><circle cx="1107.5" cy="268.7" r="4.4" fill="#00A676" stroke="#ffffff" stroke-width="1.2"/><circle cx="1430.0" cy="202.2" r="4.4" fill="#00A676" stroke="#ffffff" stroke-width="1.2"/><polyline points="140.0,963.3 462.5,963.6 785.0,963.5 1107.5,963.3 1430.0,962.9" fill="none" stroke="#00A676" stroke-width="2.8"/><polyline points="140.0,948.5 462.5,946.1 785.0,944.8 1107.5,944.7 1430.0,935.1" fill="none" stroke="#00A676" stroke-width="2.8" stroke-dasharray="7 5"/><circle cx="140.0" cy="963.3" r="3.5" fill="#00A676" stroke="#ffffff" stroke-width="1"/><circle cx="462.5" cy="963.6" r="3.5" fill="#00A676" stroke="#ffffff" stroke-width="1"/><circle cx="785.0" cy="963.5" r="3.5" fill="#00A676" stroke="#ffffff" stroke-width="1"/><circle cx="1107.5" cy="963.3" r="3.5" fill="#00A676" stroke="#ffffff" stroke-width="1"/><circle cx="1430.0" cy="962.9" r="3.5" fill="#00A676" stroke="#ffffff" stroke-width="1"/><circle cx="140.0" cy="948.5" r="3.5" fill="#ffffff" stroke="#00A676" stroke-width="1.6"/><circle cx="462.5" cy="946.1" r="3.5" fill="#ffffff" stroke="#00A676" stroke-width="1.6"/><circle cx="785.0" cy="944.8" r="3.5" fill="#ffffff" stroke="#00A676" stroke-width="1.6"/><circle cx="1107.5" cy="944.7" r="3.5" fill="#ffffff" stroke="#00A676" stroke-width="1.6"/><circle cx="1430.0" cy="935.1" r="3.5" fill="#ffffff" stroke="#00A676" stroke-width="1.6"/><polyline points="140.0,479.6 462.5,468.6 785.0,467.0 1107.5,467.7 1430.0,467.2" fill="none" stroke="#FF7F11" stroke-width="3.2"/><circle cx="140.0" cy="479.6" r="4.4" fill="#FF7F11" stroke="#ffffff" stroke-width="1.2"/><circle cx="462.5" cy="468.6" r="4.4" fill="#FF7F11" stroke="#ffffff" stroke-width="1.2"/><circle cx="785.0" cy="467.0" r="4.4" fill="#FF7F11" stroke="#ffffff" stroke-width="1.2"/><circle cx="1107.5" cy="467.7" r="4.4" fill="#FF7F11" stroke="#ffffff" stroke-width="1.2"/><circle cx="1430.0" cy="467.2" r="4.4" fill="#FF7F11" stroke="#ffffff" stroke-width="1.2"/><polyline points="140.0,962.9 462.5,953.7 785.0,936.7 1107.5,898.1 1430.0,822.2" fill="none" stroke="#FF7F11" stroke-width="2.8"/><polyline points="140.0,942.9 462.5,923.5 785.0,893.1 1107.5,809.6 1430.0,670.9" fill="none" stroke="#FF7F11" stroke-width="2.8" stroke-dasharray="7 5"/><circle cx="140.0" cy="962.9" r="3.5" fill="#FF7F11" stroke="#ffffff" stroke-width="1"/><circle cx="462.5" cy="953.7" r="3.5" fill="#FF7F11" stroke="#ffffff" stroke-width="1"/><circle cx="785.0" cy="936.7" r="3.5" fill="#FF7F11" stroke="#ffffff" stroke-width="1"/><circle cx="1107.5" cy="898.1" r="3.5" fill="#FF7F11" stroke="#ffffff" stroke-width="1"/><circle cx="1430.0" cy="822.2" r="3.5" fill="#FF7F11" stroke="#ffffff" stroke-width="1"/><circle cx="140.0" cy="942.9" r="3.5" fill="#ffffff" stroke="#FF7F11" stroke-width="1.6"/><circle cx="462.5" cy="923.5" r="3.5" fill="#ffffff" stroke="#FF7F11" stroke-width="1.6"/><circle cx="785.0" cy="893.1" r="3.5" fill="#ffffff" stroke="#FF7F11" stroke-width="1.6"/><circle cx="1107.5" cy="809.6" r="3.5" fill="#ffffff" stroke="#FF7F11" stroke-width="1.6"/><circle cx="1430.0" cy="670.9" r="3.5" fill="#ffffff" stroke="#FF7F11" stroke-width="1.6"/><polyline points="140.0,479.4 462.5,459.9 785.0,457.6 1107.5,458.2 1430.0,458.1" fill="none" stroke="#D7263D" stroke-width="3.2"/><circle cx="140.0" cy="479.4" r="4.4" fill="#D7263D" stroke="#ffffff" stroke-width="1.2"/><circle cx="462.5" cy="459.9" r="4.4" fill="#D7263D" stroke="#ffffff" stroke-width="1.2"/><circle cx="785.0" cy="457.6" r="4.4" fill="#D7263D" stroke="#ffffff" stroke-width="1.2"/><circle cx="1107.5" cy="458.2" r="4.4" fill="#D7263D" stroke="#ffffff" stroke-width="1.2"/><circle cx="1430.0" cy="458.1" r="4.4" fill="#D7263D" stroke="#ffffff" stroke-width="1.2"/><polyline points="140.0,963.0 462.5,962.0 785.0,950.0 1107.5,919.2 1430.0,868.7" fill="none" stroke="#D7263D" stroke-width="2.8"/><polyline points="140.0,942.6 462.5,935.9 785.0,911.5 1107.5,848.6 1430.0,749.9" fill="none" stroke="#D7263D" stroke-width="2.8" stroke-dasharray="7 5"/><circle cx="140.0" cy="963.0" r="3.5" fill="#D7263D" stroke="#ffffff" stroke-width="1"/><circle cx="462.5" cy="962.0" r="3.5" fill="#D7263D" stroke="#ffffff" stroke-width="1"/><circle cx="785.0" cy="950.0" r="3.5" fill="#D7263D" stroke="#ffffff" stroke-width="1"/><circle cx="1107.5" cy="919.2" r="3.5" fill="#D7263D" stroke="#ffffff" stroke-width="1"/><circle cx="1430.0" cy="868.7" r="3.5" fill="#D7263D" stroke="#ffffff" stroke-width="1"/><circle cx="140.0" cy="942.6" r="3.5" fill="#ffffff" stroke="#D7263D" stroke-width="1.6"/><circle cx="462.5" cy="935.9" r="3.5" fill="#ffffff" stroke="#D7263D" stroke-width="1.6"/><circle cx="785.0" cy="911.5" r="3.5" fill="#ffffff" stroke="#D7263D" stroke-width="1.6"/><circle cx="1107.5" cy="848.6" r="3.5" fill="#ffffff" stroke="#D7263D" stroke-width="1.6"/><circle cx="1430.0" cy="749.9" r="3.5" fill="#ffffff" stroke="#D7263D" stroke-width="1.6"/><polyline points="140.0,479.6 462.5,462.3 785.0,458.1 1107.5,457.2 1430.0,456.7" fill="none" stroke="#7F3C8D" stroke-width="3.2"/><circle cx="140.0" cy="479.6" r="4.4" fill="#7F3C8D" stroke="#ffffff" stroke-width="1.2"/><circle cx="462.5" cy="462.3" r="4.4" fill="#7F3C8D" stroke="#ffffff" stroke-width="1.2"/><circle cx="785.0" cy="458.1" r="4.4" fill="#7F3C8D" stroke="#ffffff" stroke-width="1.2"/><circle cx="1107.5" cy="457.2" r="4.4" fill="#7F3C8D" stroke="#ffffff" stroke-width="1.2"/><circle cx="1430.0" cy="456.7" r="4.4" fill="#7F3C8D" stroke="#ffffff" stroke-width="1.2"/><polyline points="140.0,962.8 462.5,962.0 785.0,961.3 1107.5,936.8 1430.0,886.0" fill="none" stroke="#7F3C8D" stroke-width="2.8"/><polyline points="140.0,942.4 462.5,931.2 785.0,909.9 1107.5,855.3 1430.0,753.0" fill="none" stroke="#7F3C8D" stroke-width="2.8" stroke-dasharray="7 5"/><circle cx="140.0" cy="962.8" r="3.5" fill="#7F3C8D" stroke="#ffffff" stroke-width="1"/><circle cx="462.5" cy="962.0" r="3.5" fill="#7F3C8D" stroke="#ffffff" stroke-width="1"/><circle cx="785.0" cy="961.3" r="3.5" fill="#7F3C8D" stroke="#ffffff" stroke-width="1"/><circle cx="1107.5" cy="936.8" r="3.5" fill="#7F3C8D" stroke="#ffffff" stroke-width="1"/><circle cx="1430.0" cy="886.0" r="3.5" fill="#7F3C8D" stroke="#ffffff" stroke-width="1"/><circle cx="140.0" cy="942.4" r="3.5" fill="#ffffff" stroke="#7F3C8D" stroke-width="1.6"/><circle cx="462.5" cy="931.2" r="3.5" fill="#ffffff" stroke="#7F3C8D" stroke-width="1.6"/><circle cx="785.0" cy="909.9" r="3.5" fill="#ffffff" stroke="#7F3C8D" stroke-width="1.6"/><circle cx="1107.5" cy="855.3" r="3.5" fill="#ffffff" stroke="#7F3C8D" stroke-width="1.6"/><circle cx="1430.0" cy="753.0" r="3.5" fill="#ffffff" stroke="#7F3C8D" stroke-width="1.6"/><line x1="140.0" y1="477.6" x2="150.0" y2="422.0" stroke="#0057E7" stroke-width="1.4" stroke-opacity="0.95"/><rect x="150.0" y="406.0" width="84.0" height="18.0" rx="5" fill="#ffffff" fill-opacity="0.98" stroke="#0057E7" stroke-width="1.8"/><text x="155.0" y="419.0" font-family="ui-monospace, Menlo, Consolas, monospace" font-size="10" fill="#0b1220" style="paint-order:stroke;stroke:#ffffff;stroke-width:2.4;stroke-linejoin:round;">19.1 | 30.1G</text><line x1="140.0" y1="477.9" x2="146.0" y2="444.0" stroke="#00A676" stroke-width="1.4" stroke-opacity="0.95"/><rect x="146.0" y="428.0" width="84.0" height="18.0" rx="5" fill="#ffffff" fill-opacity="0.98" stroke="#00A676" stroke-width="1.8"/><text x="151.0" y="441.0" font-family="ui-monospace, Menlo, Consolas, monospace" font-size="10" fill="#0b1220" style="paint-order:stroke;stroke:#ffffff;stroke-width:2.4;stroke-linejoin:round;">18.7 | 30.1G</text><line x1="140.0" y1="479.6" x2="150.0" y2="400.0" stroke="#FF7F11" stroke-width="1.4" stroke-opacity="0.95"/><rect x="150.0" y="384.0" width="84.0" height="18.0" rx="5" fill="#ffffff" fill-opacity="0.98" stroke="#FF7F11" stroke-width="1.8"/><text x="155.0" y="397.0" font-family="ui-monospace, Menlo, Consolas, monospace" font-size="10" fill="#0b1220" style="paint-order:stroke;stroke:#ffffff;stroke-width:2.4;stroke-linejoin:round;">16.7 | 20.3G</text><line x1="140.0" y1="479.4" x2="146.0" y2="466.0" stroke="#D7263D" stroke-width="1.4" stroke-opacity="0.95"/><rect x="146.0" y="450.0" width="84.0" height="18.0" rx="5" fill="#ffffff" fill-opacity="0.98" stroke="#D7263D" stroke-width="1.8"/><text x="151.0" y="463.0" font-family="ui-monospace, Menlo, Consolas, monospace" font-size="10" fill="#0b1220" style="paint-order:stroke;stroke:#ffffff;stroke-width:2.4;stroke-linejoin:round;">16.9 | 21.4G</text><line x1="140.0" y1="479.6" x2="150.0" y2="479.6" stroke="#7F3C8D" stroke-width="1.4" stroke-opacity="0.95"/><rect x="150.0" y="472.0" width="84.0" height="18.0" rx="5" fill="#ffffff" fill-opacity="0.98" stroke="#7F3C8D" stroke-width="1.8"/><text x="155.0" y="485.0" font-family="ui-monospace, Menlo, Consolas, monospace" font-size="10" fill="#0b1220" style="paint-order:stroke;stroke:#ffffff;stroke-width:2.4;stroke-linejoin:round;">16.8 | 23.7G</text><line x1="462.5" y1="433.6" x2="472.5" y2="393.0" stroke="#0057E7" stroke-width="1.4" stroke-opacity="0.95"/><rect x="472.5" y="377.0" width="84.0" height="18.0" rx="5" fill="#ffffff" fill-opacity="0.98" stroke="#0057E7" stroke-width="1.8"/><text x="477.5" y="390.0" font-family="ui-monospace, Menlo, Consolas, monospace" font-size="10" fill="#0b1220" style="paint-order:stroke;stroke:#ffffff;stroke-width:2.4;stroke-linejoin:round;">70.3 | 30.1G</text><line x1="462.5" y1="435.2" x2="452.5" y2="435.2" stroke="#00A676" stroke-width="1.4" stroke-opacity="0.95"/><rect x="368.5" y="428.0" width="84.0" height="18.0" rx="5" fill="#ffffff" fill-opacity="0.98" stroke="#00A676" stroke-width="1.8"/><text x="373.5" y="441.0" font-family="ui-monospace, Menlo, Consolas, monospace" font-size="10" fill="#0b1220" style="paint-order:stroke;stroke:#ffffff;stroke-width:2.4;stroke-linejoin:round;">68.5 | 30.1G</text><line x1="462.5" y1="468.6" x2="472.5" y2="422.0" stroke="#FF7F11" stroke-width="1.4" stroke-opacity="0.95"/><rect x="472.5" y="406.0" width="84.0" height="18.0" rx="5" fill="#ffffff" fill-opacity="0.98" stroke="#FF7F11" stroke-width="1.8"/><text x="477.5" y="419.0" font-family="ui-monospace, Menlo, Consolas, monospace" font-size="10" fill="#0b1220" style="paint-order:stroke;stroke:#ffffff;stroke-width:2.4;stroke-linejoin:round;">29.6 | 20.3G</text><line x1="462.5" y1="459.9" x2="452.5" y2="459.9" stroke="#D7263D" stroke-width="1.4" stroke-opacity="0.95"/><rect x="368.5" y="450.0" width="84.0" height="18.0" rx="5" fill="#ffffff" fill-opacity="0.98" stroke="#D7263D" stroke-width="1.8"/><text x="373.5" y="463.0" font-family="ui-monospace, Menlo, Consolas, monospace" font-size="10" fill="#0b1220" style="paint-order:stroke;stroke:#ffffff;stroke-width:2.4;stroke-linejoin:round;">39.7 | 21.4G</text><line x1="462.5" y1="462.3" x2="472.5" y2="474.0" stroke="#7F3C8D" stroke-width="1.4" stroke-opacity="0.95"/><rect x="472.5" y="472.0" width="84.0" height="18.0" rx="5" fill="#ffffff" fill-opacity="0.98" stroke="#7F3C8D" stroke-width="1.8"/><text x="477.5" y="485.0" font-family="ui-monospace, Menlo, Consolas, monospace" font-size="10" fill="#0b1220" style="paint-order:stroke;stroke:#ffffff;stroke-width:2.4;stroke-linejoin:round;">37.0 | 23.7G</text><line x1="785.0" y1="375.3" x2="795.0" y2="351.3" stroke="#0057E7" stroke-width="1.4" stroke-opacity="0.95"/><rect x="795.0" y="335.3" width="90.0" height="18.0" rx="5" fill="#ffffff" fill-opacity="0.98" stroke="#0057E7" stroke-width="1.8"/><text x="800.0" y="348.3" font-family="ui-monospace, Menlo, Consolas, monospace" font-size="10" fill="#0b1220" style="paint-order:stroke;stroke:#ffffff;stroke-width:2.4;stroke-linejoin:round;">138.1 | 30.1G</text><line x1="785.0" y1="378.1" x2="775.0" y2="378.1" stroke="#00A676" stroke-width="1.4" stroke-opacity="0.95"/><rect x="685.0" y="370.1" width="90.0" height="18.0" rx="5" fill="#ffffff" fill-opacity="0.98" stroke="#00A676" stroke-width="1.8"/><text x="690.0" y="383.1" font-family="ui-monospace, Menlo, Consolas, monospace" font-size="10" fill="#0b1220" style="paint-order:stroke;stroke:#ffffff;stroke-width:2.4;stroke-linejoin:round;">134.9 | 30.1G</text><line x1="785.0" y1="467.0" x2="795.0" y2="437.0" stroke="#FF7F11" stroke-width="1.4" stroke-opacity="0.95"/><rect x="795.0" y="421.0" width="84.0" height="18.0" rx="5" fill="#ffffff" fill-opacity="0.98" stroke="#FF7F11" stroke-width="1.8"/><text x="800.0" y="434.0" font-family="ui-monospace, Menlo, Consolas, monospace" font-size="10" fill="#0b1220" style="paint-order:stroke;stroke:#ffffff;stroke-width:2.4;stroke-linejoin:round;">31.5 | 20.3G</text><line x1="785.0" y1="457.6" x2="775.0" y2="457.6" stroke="#D7263D" stroke-width="1.4" stroke-opacity="0.95"/><rect x="691.0" y="450.0" width="84.0" height="18.0" rx="5" fill="#ffffff" fill-opacity="0.98" stroke="#D7263D" stroke-width="1.8"/><text x="696.0" y="463.0" font-family="ui-monospace, Menlo, Consolas, monospace" font-size="10" fill="#0b1220" style="paint-order:stroke;stroke:#ffffff;stroke-width:2.4;stroke-linejoin:round;">42.3 | 21.4G</text><line x1="785.0" y1="458.1" x2="795.0" y2="474.0" stroke="#7F3C8D" stroke-width="1.4" stroke-opacity="0.95"/><rect x="795.0" y="472.0" width="84.0" height="18.0" rx="5" fill="#ffffff" fill-opacity="0.98" stroke="#7F3C8D" stroke-width="1.8"/><text x="800.0" y="485.0" font-family="ui-monospace, Menlo, Consolas, monospace" font-size="10" fill="#0b1220" style="paint-order:stroke;stroke:#ffffff;stroke-width:2.4;stroke-linejoin:round;">41.8 | 23.7G</text><line x1="1107.5" y1="262.5" x2="1117.5" y2="238.5" stroke="#0057E7" stroke-width="1.4" stroke-opacity="0.95"/><rect x="1117.5" y="222.5" width="90.0" height="18.0" rx="5" fill="#ffffff" fill-opacity="0.98" stroke="#0057E7" stroke-width="1.8"/><text x="1122.5" y="235.5" font-family="ui-monospace, Menlo, Consolas, monospace" font-size="10" fill="#0b1220" style="paint-order:stroke;stroke:#ffffff;stroke-width:2.4;stroke-linejoin:round;">269.5 | 30.1G</text><line x1="1107.5" y1="268.7" x2="1097.5" y2="268.7" stroke="#00A676" stroke-width="1.4" stroke-opacity="0.95"/><rect x="1007.5" y="260.7" width="90.0" height="18.0" rx="5" fill="#ffffff" fill-opacity="0.98" stroke="#00A676" stroke-width="1.8"/><text x="1012.5" y="273.7" font-family="ui-monospace, Menlo, Consolas, monospace" font-size="10" fill="#0b1220" style="paint-order:stroke;stroke:#ffffff;stroke-width:2.4;stroke-linejoin:round;">262.3 | 30.1G</text><line x1="1107.5" y1="467.7" x2="1117.5" y2="437.7" stroke="#FF7F11" stroke-width="1.4" stroke-opacity="0.95"/><rect x="1117.5" y="421.7" width="84.0" height="18.0" rx="5" fill="#ffffff" fill-opacity="0.98" stroke="#FF7F11" stroke-width="1.8"/><text x="1122.5" y="434.7" font-family="ui-monospace, Menlo, Consolas, monospace" font-size="10" fill="#0b1220" style="paint-order:stroke;stroke:#ffffff;stroke-width:2.4;stroke-linejoin:round;">30.7 | 20.3G</text><line x1="1107.5" y1="458.2" x2="1097.5" y2="458.2" stroke="#D7263D" stroke-width="1.4" stroke-opacity="0.95"/><rect x="1013.5" y="450.0" width="84.0" height="18.0" rx="5" fill="#ffffff" fill-opacity="0.98" stroke="#D7263D" stroke-width="1.8"/><text x="1018.5" y="463.0" font-family="ui-monospace, Menlo, Consolas, monospace" font-size="10" fill="#0b1220" style="paint-order:stroke;stroke:#ffffff;stroke-width:2.4;stroke-linejoin:round;">41.6 | 21.4G</text><line x1="1107.5" y1="457.2" x2="1117.5" y2="474.0" stroke="#7F3C8D" stroke-width="1.4" stroke-opacity="0.95"/><rect x="1117.5" y="472.0" width="84.0" height="18.0" rx="5" fill="#ffffff" fill-opacity="0.98" stroke="#7F3C8D" stroke-width="1.8"/><text x="1122.5" y="485.0" font-family="ui-monospace, Menlo, Consolas, monospace" font-size="10" fill="#0b1220" style="paint-order:stroke;stroke:#ffffff;stroke-width:2.4;stroke-linejoin:round;">42.8 | 23.7G</text><line x1="1430.0" y1="200.9" x2="1440.0" y2="176.9" stroke="#0057E7" stroke-width="1.4" stroke-opacity="0.95"/><rect x="1440.0" y="160.9" width="90.0" height="18.0" rx="5" fill="#ffffff" fill-opacity="0.98" stroke="#0057E7" stroke-width="1.8"/><text x="1445.0" y="173.9" font-family="ui-monospace, Menlo, Consolas, monospace" font-size="10" fill="#0b1220" style="paint-order:stroke;stroke:#ffffff;stroke-width:2.4;stroke-linejoin:round;">341.2 | 30.1G</text><line x1="1430.0" y1="202.2" x2="1440.0" y2="202.2" stroke="#00A676" stroke-width="1.4" stroke-opacity="0.95"/><rect x="1440.0" y="194.2" width="90.0" height="18.0" rx="5" fill="#ffffff" fill-opacity="0.98" stroke="#00A676" stroke-width="1.8"/><text x="1445.0" y="207.2" font-family="ui-monospace, Menlo, Consolas, monospace" font-size="10" fill="#0b1220" style="paint-order:stroke;stroke:#ffffff;stroke-width:2.4;stroke-linejoin:round;">339.7 | 30.1G</text><line x1="1430.0" y1="467.2" x2="1440.0" y2="437.2" stroke="#FF7F11" stroke-width="1.4" stroke-opacity="0.95"/><rect x="1440.0" y="421.2" width="84.0" height="18.0" rx="5" fill="#ffffff" fill-opacity="0.98" stroke="#FF7F11" stroke-width="1.8"/><text x="1445.0" y="434.2" font-family="ui-monospace, Menlo, Consolas, monospace" font-size="10" fill="#0b1220" style="paint-order:stroke;stroke:#ffffff;stroke-width:2.4;stroke-linejoin:round;">31.2 | 20.3G</text><line x1="1430.0" y1="458.1" x2="1440.0" y2="458.1" stroke="#D7263D" stroke-width="1.4" stroke-opacity="0.95"/><rect x="1440.0" y="450.0" width="84.0" height="18.0" rx="5" fill="#ffffff" fill-opacity="0.98" stroke="#D7263D" stroke-width="1.8"/><text x="1445.0" y="463.0" font-family="ui-monospace, Menlo, Consolas, monospace" font-size="10" fill="#0b1220" style="paint-order:stroke;stroke:#ffffff;stroke-width:2.4;stroke-linejoin:round;">41.7 | 21.4G</text><line x1="1430.0" y1="456.7" x2="1440.0" y2="474.0" stroke="#7F3C8D" stroke-width="1.4" stroke-opacity="0.95"/><rect x="1440.0" y="472.0" width="84.0" height="18.0" rx="5" fill="#ffffff" fill-opacity="0.98" stroke="#7F3C8D" stroke-width="1.8"/><text x="1445.0" y="485.0" font-family="ui-monospace, Menlo, Consolas, monospace" font-size="10" fill="#0b1220" style="paint-order:stroke;stroke:#ffffff;stroke-width:2.4;stroke-linejoin:round;">43.4 | 23.7G</text><line x1="1430.0" y1="949.0" x2="1422.0" y2="933.2" stroke="#0057E7" stroke-width="1.4" stroke-opacity="0.95"/><rect x="1183.0" y="917.2" width="239.0" height="18.0" rx="5" fill="#ffffff" fill-opacity="0.98" stroke="#0057E7" stroke-width="1.8"/><text x="1188.0" y="930.2" font-family="ui-monospace, Menlo, Consolas, monospace" font-size="10" fill="#0b1220" style="paint-order:stroke;stroke:#ffffff;stroke-width:2.4;stroke-linejoin:round;">vLLM prefix OFF  TTFT 0.6s  P95 15.9s</text><line x1="1430.0" y1="949.0" x2="1422.0" y2="949.0" stroke="#00A676" stroke-width="1.4" stroke-opacity="0.95"/><rect x="1189.0" y="942.0" width="233.0" height="18.0" rx="5" fill="#ffffff" fill-opacity="0.98" stroke="#00A676" stroke-width="1.8"/><text x="1194.0" y="955.0" font-family="ui-monospace, Menlo, Consolas, monospace" font-size="10" fill="#0b1220" style="paint-order:stroke;stroke:#ffffff;stroke-width:2.4;stroke-linejoin:round;">vLLM prefix ON  TTFT 0.6s  P95 15.9s</text><line x1="1430.0" y1="746.6" x2="1422.0" y2="664.9" stroke="#FF7F11" stroke-width="1.4" stroke-opacity="0.95"/><rect x="1195.0" y="648.9" width="227.0" height="18.0" rx="5" fill="#ffffff" fill-opacity="0.98" stroke="#FF7F11" stroke-width="1.8"/><text x="1200.0" y="661.9" font-family="ui-monospace, Menlo, Consolas, monospace" font-size="10" fill="#0b1220" style="paint-order:stroke;stroke:#ffffff;stroke-width:2.4;stroke-linejoin:round;">Ollama np=2  TTFT 78.1s  P95 161.6s</text><line x1="1430.0" y1="809.3" x2="1422.0" y2="783.9" stroke="#D7263D" stroke-width="1.4" stroke-opacity="0.95"/><rect x="1195.0" y="767.9" width="227.0" height="18.0" rx="5" fill="#ffffff" fill-opacity="0.98" stroke="#D7263D" stroke-width="1.8"/><text x="1200.0" y="780.9" font-family="ui-monospace, Menlo, Consolas, monospace" font-size="10" fill="#0b1220" style="paint-order:stroke;stroke:#ffffff;stroke-width:2.4;stroke-linejoin:round;">Ollama np=4  TTFT 52.5s  P95 118.0s</text><line x1="1430.0" y1="819.5" x2="1422.0" y2="807.9" stroke="#7F3C8D" stroke-width="1.4" stroke-opacity="0.95"/><rect x="1195.0" y="791.9" width="227.0" height="18.0" rx="5" fill="#ffffff" fill-opacity="0.98" stroke="#7F3C8D" stroke-width="1.8"/><text x="1200.0" y="804.9" font-family="ui-monospace, Menlo, Consolas, monospace" font-size="10" fill="#0b1220" style="paint-order:stroke;stroke:#ffffff;stroke-width:2.4;stroke-linejoin:round;">Ollama np=8  TTFT 43.0s  P95 116.3s</text></svg>