<svg xmlns="http://www.w3.org/2000/svg" width="1780" height="1120" viewBox="0 0 1780 1120"><defs><linearGradient id="bg" x1="0" y1="0" x2="1" y2="1"><stop offset="0%" stop-color="#f6fbff"/><stop offset="100%" stop-color="#eef6ff"/></linearGradient></defs><rect x="0" y="0" width="1780" height="1120" fill="url(#bg)"/><text x="70" y="44" font-family="ui-monospace, Menlo, Consolas, monospace" font-size="30" fill="#0f172a">Qwen2.5-Coder Benchmark (varied_unique_prefix)</text><text x="70" y="70" font-family="ui-monospace, Menlo, Consolas, monospace" font-size="13" fill="#334155">source: lane_benchmark_20260309_190938.json | top panel labels: tok/s | peak GiB</text><line x1="70" y1="98" x2="100" y2="98" stroke="#0057E7" stroke-width="4"/><text x="108" y="103" font-family="ui-monospace, Menlo, Consolas, monospace" font-size="14" fill="#0f172a">vLLM prefix OFF</text><line x1="300" y1="98" x2="330" y2="98" stroke="#00A676" stroke-width="4"/><text x="338" y="103" font-family="ui-monospace, Menlo, Consolas, monospace" font-size="14" fill="#0f172a">vLLM prefix ON</text><line x1="530" y1="98" x2="560" y2="98" stroke="#FF7F11" stroke-width="4"/><text x="568" y="103" font-family="ui-monospace, Menlo, Consolas, monospace" font-size="14" fill="#0f172a">Ollama np=2</text><line x1="760" y1="98" x2="790" y2="98" stroke="#D7263D" stroke-width="4"/><text x="798" y="103" font-family="ui-monospace, Menlo, Consolas, monospace" font-size="14" fill="#0f172a">Ollama np=4</text><line x1="990" y1="98" x2="1020" y2="98" stroke="#7F3C8D" stroke-width="4"/><text x="1028" y="103" font-family="ui-monospace, Menlo, Consolas, monospace" font-size="14" fill="#0f172a">Ollama np=8</text><line x1="1430" y1="90" x2="1460" y2="90" stroke="#1f2937" stroke-width="3"/><text x="1465" y="95" font-family="ui-monospace, Menlo, Consolas, monospace" font-size="12" fill="#0f172a">TTFT (ms)</text><line x1="1430" y1="108" x2="1460" y2="108" stroke="#1f2937" stroke-width="3" stroke-dasharray="7 5"/><text x="1465" y="113" font-family="ui-monospace, Menlo, Consolas, monospace" font-size="12" fill="#0f172a">P95 latency (ms)</text><rect x="70" y="130" width="1640" height="420" rx="16" fill="#ffffff" stroke="#c7d7ee" stroke-width="1.2"/><text x="86" y="148" font-family="ui-monospace, Menlo, Consolas, monospace" font-size="16" fill="#0f172a">Throughput</text><line x1="140.0" y1="494.0" x2="1430.0" y2="494.0" stroke="#e8eff9" stroke-width="1"/><text x="130.0" y="498.0" font-family="ui-monospace, Menlo, Consolas, monospace" font-size="11" text-anchor="end" fill="#334155">0</text><line x1="140.0" y1="437.3" x2="1430.0" y2="437.3" stroke="#e8eff9" stroke-width="1"/><text x="130.0" y="441.3" font-family="ui-monospace, Menlo, Consolas, monospace" font-size="11" text-anchor="end" fill="#334155">51</text><line x1="140.0" y1="380.7" x2="1430.0" y2="380.7" stroke="#e8eff9" stroke-width="1"/><text x="130.0" y="384.7" font-family="ui-monospace, Menlo, Consolas, monospace" font-size="11" text-anchor="end" fill="#334155">102</text><line x1="140.0" y1="324.0" x2="1430.0" y2="324.0" stroke="#e8eff9" stroke-width="1"/><text x="130.0" y="328.0" font-family="ui-monospace, Menlo, Consolas, monospace" font-size="11" text-anchor="end" fill="#334155">153</text><line x1="140.0" y1="267.3" x2="1430.0" y2="267.3" stroke="#e8eff9" stroke-width="1"/><text x="130.0" y="271.3" font-family="ui-monospace, Menlo, Consolas, monospace" font-size="11" text-anchor="end" fill="#334155">204</text><line x1="140.0" y1="210.7" x2="1430.0" y2="210.7" stroke="#e8eff9" stroke-width="1"/><text x="130.0" y="214.7" font-family="ui-monospace, Menlo, Consolas, monospace" font-size="11" text-anchor="end" fill="#334155">255</text><line x1="140.0" y1="154.0" x2="1430.0" y2="154.0" stroke="#e8eff9" stroke-width="1"/><text x="130.0" y="158.0" font-family="ui-monospace, Menlo, Consolas, monospace" font-size="11" text-anchor="end" fill="#334155">306</text><line x1="140.0" y1="154.0" x2="140.0" y2="494.0" stroke="#f2f6fc" stroke-width="1"/><text x="140.0" y="519.0" font-family="ui-monospace, Menlo, Consolas, monospace" font-size="11" text-anchor="middle" fill="#1f2937">1</text><line x1="462.5" y1="154.0" x2="462.5" y2="494.0" stroke="#f2f6fc" stroke-width="1"/><text x="462.5" y="519.0" font-family="ui-monospace, Menlo, Consolas, monospace" font-size="11" text-anchor="middle" fill="#1f2937">4</text><line x1="785.0" y1="154.0" x2="785.0" y2="494.0" stroke="#f2f6fc" stroke-width="1"/><text x="785.0" y="519.0" font-family="ui-monospace, Menlo, Consolas, monospace" font-size="11" text-anchor="middle" fill="#1f2937">8</text><line x1="1107.5" y1="154.0" x2="1107.5" y2="494.0" stroke="#f2f6fc" stroke-width="1"/><text x="1107.5" y="519.0" font-family="ui-monospace, Menlo, Consolas, monospace" font-size="11" text-anchor="middle" fill="#1f2937">16</text><line x1="1430.0" y1="154.0" x2="1430.0" y2="494.0" stroke="#f2f6fc" stroke-width="1"/><text x="1430.0" y="519.0" font-family="ui-monospace, Menlo, Consolas, monospace" font-size="11" text-anchor="middle" fill="#1f2937">32</text><line x1="140.0" y1="494.0" x2="1430.0" y2="494.0" stroke="#0f172a" stroke-width="2"/><line x1="140.0" y1="154.0" x2="140.0" y2="494.0" stroke="#0f172a" stroke-width="2"/><text x="785.0" y="538.0" font-family="ui-monospace, Menlo, Consolas, monospace" font-size="13" text-anchor="middle" fill="#0f172a">Concurrency</text><text x="84" y="324.0" font-family="ui-monospace, Menlo, Consolas, monospace" font-size="13" text-anchor="middle" transform="rotate(-90 84,324.0)" fill="#0f172a">Aggregate tok/s</text><rect x="70" y="600" width="1640" height="420" rx="16" fill="#ffffff" stroke="#c7d7ee" stroke-width="1.2"/><text x="86" y="618" font-family="ui-monospace, Menlo, Consolas, monospace" font-size="16" fill="#0f172a">Latency</text><line x1="140.0" y1="964.0" x2="1430.0" y2="964.0" stroke="#e8eff9" stroke-width="1"/><text x="130.0" y="968.0" font-family="ui-monospace, Menlo, Consolas, monospace" font-size="11" text-anchor="end" fill="#334155">0</text><line x1="140.0" y1="907.3" x2="1430.0" y2="907.3" stroke="#e8eff9" stroke-width="1"/><text x="130.0" y="911.3" font-family="ui-monospace, Menlo, Consolas, monospace" font-size="11" text-anchor="end" fill="#334155">32235</text><line x1="140.0" y1="850.7" x2="1430.0" y2="850.7" stroke="#e8eff9" stroke-width="1"/><text x="130.0" y="854.7" font-family="ui-monospace, Menlo, Consolas, monospace" font-size="11" text-anchor="end" fill="#334155">64471</text><line x1="140.0" y1="794.0" x2="1430.0" y2="794.0" stroke="#e8eff9" stroke-width="1"/><text x="130.0" y="798.0" font-family="ui-monospace, Menlo, Consolas, monospace" font-size="11" text-anchor="end" fill="#334155">96706</text><line x1="140.0" y1="737.3" x2="1430.0" y2="737.3" stroke="#e8eff9" stroke-width="1"/><text x="130.0" y="741.3" font-family="ui-monospace, Menlo, Consolas, monospace" font-size="11" text-anchor="end" fill="#334155">128942</text><line x1="140.0" y1="680.7" x2="1430.0" y2="680.7" stroke="#e8eff9" stroke-width="1"/><text x="130.0" y="684.7" font-family="ui-monospace, Menlo, Consolas, monospace" font-size="11" text-anchor="end" fill="#334155">161177</text><line x1="140.0" y1="624.0" x2="1430.0" y2="624.0" stroke="#e8eff9" stroke-width="1"/><text x="130.0" y="628.0" font-family="ui-monospace, Menlo, Consolas, monospace" font-size="11" text-anchor="end" fill="#334155">193413</text><line x1="140.0" y1="624.0" x2="140.0" y2="964.0" stroke="#f2f6fc" stroke-width="1"/><text x="140.0" y="989.0" font-family="ui-monospace, Menlo, Consolas, monospace" font-size="11" text-anchor="middle" fill="#1f2937">1</text><line x1="462.5" y1="624.0" x2="462.5" y2="964.0" stroke="#f2f6fc" stroke-width="1"/><text x="462.5" y="989.0" font-family="ui-monospace, Menlo, Consolas, monospace" font-size="11" text-anchor="middle" fill="#1f2937">4</text><line x1="785.0" y1="624.0" x2="785.0" y2="964.0" stroke="#f2f6fc" stroke-width="1"/><text x="785.0" y="989.0" font-family="ui-monospace, Menlo, Consolas, monospace" font-size="11" text-anchor="middle" fill="#1f2937">8</text><line x1="1107.5" y1="624.0" x2="1107.5" y2="964.0" stroke="#f2f6fc" stroke-width="1"/><text x="1107.5" y="989.0" font-family="ui-monospace, Menlo, Consolas, monospace" font-size="11" text-anchor="middle" fill="#1f2937">16</text><line x1="1430.0" y1="624.0" x2="1430.0" y2="964.0" stroke="#f2f6fc" stroke-width="1"/><text x="1430.0" y="989.0" font-family="ui-monospace, Menlo, Consolas, monospace" font-size="11" text-anchor="middle" fill="#1f2937">32</text><line x1="140.0" y1="964.0" x2="1430.0" y2="964.0" stroke="#0f172a" stroke-width="2"/><line x1="140.0" y1="624.0" x2="140.0" y2="964.0" stroke="#0f172a" stroke-width="2"/><text x="785.0" y="1008.0" font-family="ui-monospace, Menlo, Consolas, monospace" font-size="13" text-anchor="middle" fill="#0f172a">Concurrency</text><text x="84" y="794.0" font-family="ui-monospace, Menlo, Consolas, monospace" font-size="13" text-anchor="middle" transform="rotate(-90 84,794.0)" fill="#0f172a">Milliseconds</text><polyline points="140.0,476.6 462.5,426.1 785.0,379.3 1107.5,284.9 1430.0,200.9" fill="none" stroke="#0057E7" stroke-width="3.2"/><circle cx="140.0" cy="476.6" r="4.4" fill="#0057E7" stroke="#ffffff" stroke-width="1.2"/><circle cx="462.5" cy="426.1" r="4.4" fill="#0057E7" stroke="#ffffff" stroke-width="1.2"/><circle cx="785.0" cy="379.3" r="4.4" fill="#0057E7" stroke="#ffffff" stroke-width="1.2"/><circle cx="1107.5" cy="284.9" r="4.4" fill="#0057E7" stroke="#ffffff" stroke-width="1.2"/><circle cx="1430.0" cy="200.9" r="4.4" fill="#0057E7" stroke="#ffffff" stroke-width="1.2"/><polyline points="140.0,963.2 462.5,962.4 785.0,961.7 1107.5,960.4 1430.0,958.3" fill="none" stroke="#0057E7" stroke-width="2.8"/><polyline points="140.0,955.1 462.5,943.4 785.0,943.0 1107.5,941.5 1430.0,931.0" fill="none" stroke="#0057E7" stroke-width="2.8" stroke-dasharray="7 5"/><circle cx="140.0" cy="963.2" r="3.5" fill="#0057E7" stroke="#ffffff" stroke-width="1"/><circle cx="462.5" cy="962.4" r="3.5" fill="#0057E7" stroke="#ffffff" stroke-width="1"/><circle cx="785.0" cy="961.7" r="3.5" fill="#0057E7" stroke="#ffffff" stroke-width="1"/><circle cx="1107.5" cy="960.4" r="3.5" fill="#0057E7" stroke="#ffffff" stroke-width="1"/><circle cx="1430.0" cy="958.3" r="3.5" fill="#0057E7" stroke="#ffffff" stroke-width="1"/><circle cx="140.0" cy="955.1" r="3.5" fill="#ffffff" stroke="#0057E7" stroke-width="1.6"/><circle cx="462.5" cy="943.4" r="3.5" fill="#ffffff" stroke="#0057E7" stroke-width="1.6"/><circle cx="785.0" cy="943.0" r="3.5" fill="#ffffff" stroke="#0057E7" stroke-width="1.6"/><circle cx="1107.5" cy="941.5" r="3.5" fill="#ffffff" stroke="#0057E7" stroke-width="1.6"/><circle cx="1430.0" cy="931.0" r="3.5" fill="#ffffff" stroke="#0057E7" stroke-width="1.6"/><polyline points="140.0,473.8 462.5,420.5 785.0,378.5 1107.5,285.3 1430.0,202.4" fill="none" stroke="#00A676" stroke-width="3.2"/><circle cx="140.0" cy="473.8" r="4.4" fill="#00A676" stroke="#ffffff" stroke-width="1.2"/><circle cx="462.5" cy="420.5" r="4.4" fill="#00A676" stroke="#ffffff" stroke-width="1.2"/><circle cx="785.0" cy="378.5" r="4.4" fill="#00A676" stroke="#ffffff" stroke-width="1.2"/><circle cx="1107.5" cy="285.3" r="4.4" fill="#00A676" stroke="#ffffff" stroke-width="1.2"/><circle cx="1430.0" cy="202.4" r="4.4" fill="#00A676" stroke="#ffffff" stroke-width="1.2"/><polyline points="140.0,963.2 462.5,962.4 785.0,961.7 1107.5,960.4 1430.0,958.4" fill="none" stroke="#00A676" stroke-width="2.8"/><polyline points="140.0,956.4 462.5,945.0 785.0,943.1 1107.5,941.5 1430.0,930.8" fill="none" stroke="#00A676" stroke-width="2.8" stroke-dasharray="7 5"/><circle cx="140.0" cy="963.2" r="3.5" fill="#00A676" stroke="#ffffff" stroke-width="1"/><circle cx="462.5" cy="962.4" r="3.5" fill="#00A676" stroke="#ffffff" stroke-width="1"/><circle cx="785.0" cy="961.7" r="3.5" fill="#00A676" stroke="#ffffff" stroke-width="1"/><circle cx="1107.5" cy="960.4" r="3.5" fill="#00A676" stroke="#ffffff" stroke-width="1"/><circle cx="1430.0" cy="958.4" r="3.5" fill="#00A676" stroke="#ffffff" stroke-width="1"/><circle cx="140.0" cy="956.4" r="3.5" fill="#ffffff" stroke="#00A676" stroke-width="1.6"/><circle cx="462.5" cy="945.0" r="3.5" fill="#ffffff" stroke="#00A676" stroke-width="1.6"/><circle cx="785.0" cy="943.1" r="3.5" fill="#ffffff" stroke="#00A676" stroke-width="1.6"/><circle cx="1107.5" cy="941.5" r="3.5" fill="#ffffff" stroke="#00A676" stroke-width="1.6"/><circle cx="1430.0" cy="930.8" r="3.5" fill="#ffffff" stroke="#00A676" stroke-width="1.6"/><polyline points="140.0,475.7 462.5,462.9 785.0,461.7 1107.5,461.4 1430.0,461.1" fill="none" stroke="#FF7F11" stroke-width="3.2"/><circle cx="140.0" cy="475.7" r="4.4" fill="#FF7F11" stroke="#ffffff" stroke-width="1.2"/><circle cx="462.5" cy="462.9" r="4.4" fill="#FF7F11" stroke="#ffffff" stroke-width="1.2"/><circle cx="785.0" cy="461.7" r="4.4" fill="#FF7F11" stroke="#ffffff" stroke-width="1.2"/><circle cx="1107.5" cy="461.4" r="4.4" fill="#FF7F11" stroke="#ffffff" stroke-width="1.2"/><circle cx="1430.0" cy="461.1" r="4.4" fill="#FF7F11" stroke="#ffffff" stroke-width="1.2"/><polyline points="140.0,962.7 462.5,950.8 785.0,933.5 1107.5,899.8 1430.0,827.9" fill="none" stroke="#FF7F11" stroke-width="2.8"/><polyline points="140.0,942.7 462.5,917.8 785.0,887.7 1107.5,820.7 1430.0,670.9" fill="none" stroke="#FF7F11" stroke-width="2.8" stroke-dasharray="7 5"/><circle cx="140.0" cy="962.7" r="3.5" fill="#FF7F11" stroke="#ffffff" stroke-width="1"/><circle cx="462.5" cy="950.8" r="3.5" fill="#FF7F11" stroke="#ffffff" stroke-width="1"/><circle cx="785.0" cy="933.5" r="3.5" fill="#FF7F11" stroke="#ffffff" stroke-width="1"/><circle cx="1107.5" cy="899.8" r="3.5" fill="#FF7F11" stroke="#ffffff" stroke-width="1"/><circle cx="1430.0" cy="827.9" r="3.5" fill="#FF7F11" stroke="#ffffff" stroke-width="1"/><circle cx="140.0" cy="942.7" r="3.5" fill="#ffffff" stroke="#FF7F11" stroke-width="1.6"/><circle cx="462.5" cy="917.8" r="3.5" fill="#ffffff" stroke="#FF7F11" stroke-width="1.6"/><circle cx="785.0" cy="887.7" r="3.5" fill="#ffffff" stroke="#FF7F11" stroke-width="1.6"/><circle cx="1107.5" cy="820.7" r="3.5" fill="#ffffff" stroke="#FF7F11" stroke-width="1.6"/><circle cx="1430.0" cy="670.9" r="3.5" fill="#ffffff" stroke="#FF7F11" stroke-width="1.6"/><polyline points="140.0,477.2 462.5,453.4 785.0,454.1 1107.5,452.0 1430.0,451.2" fill="none" stroke="#D7263D" stroke-width="3.2"/><circle cx="140.0" cy="477.2" r="4.4" fill="#D7263D" stroke="#ffffff" stroke-width="1.2"/><circle cx="462.5" cy="453.4" r="4.4" fill="#D7263D" stroke="#ffffff" stroke-width="1.2"/><circle cx="785.0" cy="454.1" r="4.4" fill="#D7263D" stroke="#ffffff" stroke-width="1.2"/><circle cx="1107.5" cy="452.0" r="4.4" fill="#D7263D" stroke="#ffffff" stroke-width="1.2"/><circle cx="1430.0" cy="451.2" r="4.4" fill="#D7263D" stroke="#ffffff" stroke-width="1.2"/><polyline points="140.0,962.6 462.5,961.1 785.0,947.9 1107.5,922.3 1430.0,863.1" fill="none" stroke="#D7263D" stroke-width="2.8"/><polyline points="140.0,955.1 462.5,928.3 785.0,901.1 1107.5,854.1 1430.0,740.0" fill="none" stroke="#D7263D" stroke-width="2.8" stroke-dasharray="7 5"/><circle cx="140.0" cy="962.6" r="3.5" fill="#D7263D" stroke="#ffffff" stroke-width="1"/><circle cx="462.5" cy="961.1" r="3.5" fill="#D7263D" stroke="#ffffff" stroke-width="1"/><circle cx="785.0" cy="947.9" r="3.5" fill="#D7263D" stroke="#ffffff" stroke-width="1"/><circle cx="1107.5" cy="922.3" r="3.5" fill="#D7263D" stroke="#ffffff" stroke-width="1"/><circle cx="1430.0" cy="863.1" r="3.5" fill="#D7263D" stroke="#ffffff" stroke-width="1"/><circle cx="140.0" cy="955.1" r="3.5" fill="#ffffff" stroke="#D7263D" stroke-width="1.6"/><circle cx="462.5" cy="928.3" r="3.5" fill="#ffffff" stroke="#D7263D" stroke-width="1.6"/><circle cx="785.0" cy="901.1" r="3.5" fill="#ffffff" stroke="#D7263D" stroke-width="1.6"/><circle cx="1107.5" cy="854.1" r="3.5" fill="#ffffff" stroke="#D7263D" stroke-width="1.6"/><circle cx="1430.0" cy="740.0" r="3.5" fill="#ffffff" stroke="#D7263D" stroke-width="1.6"/><polyline points="140.0,476.9 462.5,453.4 785.0,448.6 1107.5,451.1 1430.0,451.6" fill="none" stroke="#7F3C8D" stroke-width="3.2"/><circle cx="140.0" cy="476.9" r="4.4" fill="#7F3C8D" stroke="#ffffff" stroke-width="1.2"/><circle cx="462.5" cy="453.4" r="4.4" fill="#7F3C8D" stroke="#ffffff" stroke-width="1.2"/><circle cx="785.0" cy="448.6" r="4.4" fill="#7F3C8D" stroke="#ffffff" stroke-width="1.2"/><circle cx="1107.5" cy="451.1" r="4.4" fill="#7F3C8D" stroke="#ffffff" stroke-width="1.2"/><circle cx="1430.0" cy="451.6" r="4.4" fill="#7F3C8D" stroke="#ffffff" stroke-width="1.2"/><polyline points="140.0,962.7 462.5,961.1 785.0,959.4 1107.5,931.8 1430.0,879.4" fill="none" stroke="#7F3C8D" stroke-width="2.8"/><polyline points="140.0,954.4 462.5,928.4 785.0,909.5 1107.5,853.8 1430.0,737.1" fill="none" stroke="#7F3C8D" stroke-width="2.8" stroke-dasharray="7 5"/><circle cx="140.0" cy="962.7" r="3.5" fill="#7F3C8D" stroke="#ffffff" stroke-width="1"/><circle cx="462.5" cy="961.1" r="3.5" fill="#7F3C8D" stroke="#ffffff" stroke-width="1"/><circle cx="785.0" cy="959.4" r="3.5" fill="#7F3C8D" stroke="#ffffff" stroke-width="1"/><circle cx="1107.5" cy="931.8" r="3.5" fill="#7F3C8D" stroke="#ffffff" stroke-width="1"/><circle cx="1430.0" cy="879.4" r="3.5" fill="#7F3C8D" stroke="#ffffff" stroke-width="1"/><circle cx="140.0" cy="954.4" r="3.5" fill="#ffffff" stroke="#7F3C8D" stroke-width="1.6"/><circle cx="462.5" cy="928.4" r="3.5" fill="#ffffff" stroke="#7F3C8D" stroke-width="1.6"/><circle cx="785.0" cy="909.5" r="3.5" fill="#ffffff" stroke="#7F3C8D" stroke-width="1.6"/><circle cx="1107.5" cy="853.8" r="3.5" fill="#ffffff" stroke="#7F3C8D" stroke-width="1.6"/><circle cx="1430.0" cy="737.1" r="3.5" fill="#ffffff" stroke="#7F3C8D" stroke-width="1.6"/><line x1="140.0" y1="476.6" x2="150.0" y2="422.0" stroke="#0057E7" stroke-width="1.4" stroke-opacity="0.95"/><rect x="150.0" y="406.0" width="84.0" height="18.0" rx="5" fill="#ffffff" fill-opacity="0.98" stroke="#0057E7" stroke-width="1.8"/><text x="155.0" y="419.0" font-family="ui-monospace, Menlo, Consolas, monospace" font-size="10" fill="#0b1220" style="paint-order:stroke;stroke:#ffffff;stroke-width:2.4;stroke-linejoin:round;">15.6 | 30.1G</text><line x1="140.0" y1="473.8" x2="146.0" y2="444.0" stroke="#00A676" stroke-width="1.4" stroke-opacity="0.95"/><rect x="146.0" y="428.0" width="84.0" height="18.0" rx="5" fill="#ffffff" fill-opacity="0.98" stroke="#00A676" stroke-width="1.8"/><text x="151.0" y="441.0" font-family="ui-monospace, Menlo, Consolas, monospace" font-size="10" fill="#0b1220" style="paint-order:stroke;stroke:#ffffff;stroke-width:2.4;stroke-linejoin:round;">18.2 | 30.1G</text><line x1="140.0" y1="475.7" x2="150.0" y2="400.0" stroke="#FF7F11" stroke-width="1.4" stroke-opacity="0.95"/><rect x="150.0" y="384.0" width="84.0" height="18.0" rx="5" fill="#ffffff" fill-opacity="0.98" stroke="#FF7F11" stroke-width="1.8"/><text x="155.0" y="397.0" font-family="ui-monospace, Menlo, Consolas, monospace" font-size="10" fill="#0b1220" style="paint-order:stroke;stroke:#ffffff;stroke-width:2.4;stroke-linejoin:round;">16.5 | 20.3G</text><line x1="140.0" y1="477.2" x2="146.0" y2="466.0" stroke="#D7263D" stroke-width="1.4" stroke-opacity="0.95"/><rect x="146.0" y="450.0" width="84.0" height="18.0" rx="5" fill="#ffffff" fill-opacity="0.98" stroke="#D7263D" stroke-width="1.8"/><text x="151.0" y="463.0" font-family="ui-monospace, Menlo, Consolas, monospace" font-size="10" fill="#0b1220" style="paint-order:stroke;stroke:#ffffff;stroke-width:2.4;stroke-linejoin:round;">15.1 | 21.4G</text><line x1="140.0" y1="476.9" x2="150.0" y2="476.9" stroke="#7F3C8D" stroke-width="1.4" stroke-opacity="0.95"/><rect x="150.0" y="472.0" width="84.0" height="18.0" rx="5" fill="#ffffff" fill-opacity="0.98" stroke="#7F3C8D" stroke-width="1.8"/><text x="155.0" y="485.0" font-family="ui-monospace, Menlo, Consolas, monospace" font-size="10" fill="#0b1220" style="paint-order:stroke;stroke:#ffffff;stroke-width:2.4;stroke-linejoin:round;">15.5 | 23.7G</text><line x1="462.5" y1="426.1" x2="472.5" y2="395.5" stroke="#0057E7" stroke-width="1.4" stroke-opacity="0.95"/><rect x="472.5" y="379.5" width="84.0" height="18.0" rx="5" fill="#ffffff" fill-opacity="0.98" stroke="#0057E7" stroke-width="1.8"/><text x="477.5" y="392.5" font-family="ui-monospace, Menlo, Consolas, monospace" font-size="10" fill="#0b1220" style="paint-order:stroke;stroke:#ffffff;stroke-width:2.4;stroke-linejoin:round;">61.2 | 30.1G</text><line x1="462.5" y1="420.5" x2="452.5" y2="420.5" stroke="#00A676" stroke-width="1.4" stroke-opacity="0.95"/><rect x="368.5" y="406.0" width="84.0" height="18.0" rx="5" fill="#ffffff" fill-opacity="0.98" stroke="#00A676" stroke-width="1.8"/><text x="373.5" y="419.0" font-family="ui-monospace, Menlo, Consolas, monospace" font-size="10" fill="#0b1220" style="paint-order:stroke;stroke:#ffffff;stroke-width:2.4;stroke-linejoin:round;">66.2 | 30.1G</text><line x1="462.5" y1="462.9" x2="472.5" y2="444.0" stroke="#FF7F11" stroke-width="1.4" stroke-opacity="0.95"/><rect x="472.5" y="428.0" width="84.0" height="18.0" rx="5" fill="#ffffff" fill-opacity="0.98" stroke="#FF7F11" stroke-width="1.8"/><text x="477.5" y="441.0" font-family="ui-monospace, Menlo, Consolas, monospace" font-size="10" fill="#0b1220" style="paint-order:stroke;stroke:#ffffff;stroke-width:2.4;stroke-linejoin:round;">28.1 | 20.3G</text><line x1="462.5" y1="453.4" x2="452.5" y2="453.4" stroke="#D7263D" stroke-width="1.4" stroke-opacity="0.95"/><rect x="368.5" y="450.0" width="84.0" height="18.0" rx="5" fill="#ffffff" fill-opacity="0.98" stroke="#D7263D" stroke-width="1.8"/><text x="373.5" y="463.0" font-family="ui-monospace, Menlo, Consolas, monospace" font-size="10" fill="#0b1220" style="paint-order:stroke;stroke:#ffffff;stroke-width:2.4;stroke-linejoin:round;">36.6 | 21.4G</text><line x1="462.5" y1="453.4" x2="472.5" y2="474.0" stroke="#7F3C8D" stroke-width="1.4" stroke-opacity="0.95"/><rect x="472.5" y="472.0" width="84.0" height="18.0" rx="5" fill="#ffffff" fill-opacity="0.98" stroke="#7F3C8D" stroke-width="1.8"/><text x="477.5" y="485.0" font-family="ui-monospace, Menlo, Consolas, monospace" font-size="10" fill="#0b1220" style="paint-order:stroke;stroke:#ffffff;stroke-width:2.4;stroke-linejoin:round;">36.6 | 23.7G</text><line x1="785.0" y1="379.3" x2="795.0" y2="355.3" stroke="#0057E7" stroke-width="1.4" stroke-opacity="0.95"/><rect x="795.0" y="339.3" width="90.0" height="18.0" rx="5" fill="#ffffff" fill-opacity="0.98" stroke="#0057E7" stroke-width="1.8"/><text x="800.0" y="352.3" font-family="ui-monospace, Menlo, Consolas, monospace" font-size="10" fill="#0b1220" style="paint-order:stroke;stroke:#ffffff;stroke-width:2.4;stroke-linejoin:round;">103.4 | 30.1G</text><line x1="785.0" y1="378.5" x2="775.0" y2="378.5" stroke="#00A676" stroke-width="1.4" stroke-opacity="0.95"/><rect x="685.0" y="370.5" width="90.0" height="18.0" rx="5" fill="#ffffff" fill-opacity="0.98" stroke="#00A676" stroke-width="1.8"/><text x="690.0" y="383.5" font-family="ui-monospace, Menlo, Consolas, monospace" font-size="10" fill="#0b1220" style="paint-order:stroke;stroke:#ffffff;stroke-width:2.4;stroke-linejoin:round;">104.1 | 30.1G</text><line x1="785.0" y1="461.7" x2="795.0" y2="431.7" stroke="#FF7F11" stroke-width="1.4" stroke-opacity="0.95"/><rect x="795.0" y="415.7" width="84.0" height="18.0" rx="5" fill="#ffffff" fill-opacity="0.98" stroke="#FF7F11" stroke-width="1.8"/><text x="800.0" y="428.7" font-family="ui-monospace, Menlo, Consolas, monospace" font-size="10" fill="#0b1220" style="paint-order:stroke;stroke:#ffffff;stroke-width:2.4;stroke-linejoin:round;">29.1 | 20.3G</text><line x1="785.0" y1="454.1" x2="775.0" y2="454.1" stroke="#D7263D" stroke-width="1.4" stroke-opacity="0.95"/><rect x="691.0" y="450.0" width="84.0" height="18.0" rx="5" fill="#ffffff" fill-opacity="0.98" stroke="#D7263D" stroke-width="1.8"/><text x="696.0" y="463.0" font-family="ui-monospace, Menlo, Consolas, monospace" font-size="10" fill="#0b1220" style="paint-order:stroke;stroke:#ffffff;stroke-width:2.4;stroke-linejoin:round;">35.9 | 21.4G</text><line x1="785.0" y1="448.6" x2="795.0" y2="474.0" stroke="#7F3C8D" stroke-width="1.4" stroke-opacity="0.95"/><rect x="795.0" y="472.0" width="84.0" height="18.0" rx="5" fill="#ffffff" fill-opacity="0.98" stroke="#7F3C8D" stroke-width="1.8"/><text x="800.0" y="485.0" font-family="ui-monospace, Menlo, Consolas, monospace" font-size="10" fill="#0b1220" style="paint-order:stroke;stroke:#ffffff;stroke-width:2.4;stroke-linejoin:round;">40.9 | 23.7G</text><line x1="1107.5" y1="284.9" x2="1117.5" y2="262.9" stroke="#0057E7" stroke-width="1.4" stroke-opacity="0.95"/><rect x="1117.5" y="246.9" width="90.0" height="18.0" rx="5" fill="#ffffff" fill-opacity="0.98" stroke="#0057E7" stroke-width="1.8"/><text x="1122.5" y="259.9" font-family="ui-monospace, Menlo, Consolas, monospace" font-size="10" fill="#0b1220" style="paint-order:stroke;stroke:#ffffff;stroke-width:2.4;stroke-linejoin:round;">188.5 | 30.1G</text><line x1="1107.5" y1="285.3" x2="1097.5" y2="285.3" stroke="#00A676" stroke-width="1.4" stroke-opacity="0.95"/><rect x="1007.5" y="279.3" width="90.0" height="18.0" rx="5" fill="#ffffff" fill-opacity="0.98" stroke="#00A676" stroke-width="1.8"/><text x="1012.5" y="292.3" font-family="ui-monospace, Menlo, Consolas, monospace" font-size="10" fill="#0b1220" style="paint-order:stroke;stroke:#ffffff;stroke-width:2.4;stroke-linejoin:round;">188.1 | 30.1G</text><line x1="1107.5" y1="461.4" x2="1117.5" y2="433.4" stroke="#FF7F11" stroke-width="1.4" stroke-opacity="0.95"/><rect x="1117.5" y="417.4" width="84.0" height="18.0" rx="5" fill="#ffffff" fill-opacity="0.98" stroke="#FF7F11" stroke-width="1.8"/><text x="1122.5" y="430.4" font-family="ui-monospace, Menlo, Consolas, monospace" font-size="10" fill="#0b1220" style="paint-order:stroke;stroke:#ffffff;stroke-width:2.4;stroke-linejoin:round;">29.4 | 20.3G</text><line x1="1107.5" y1="452.0" x2="1097.5" y2="452.0" stroke="#D7263D" stroke-width="1.4" stroke-opacity="0.95"/><rect x="1013.5" y="450.0" width="84.0" height="18.0" rx="5" fill="#ffffff" fill-opacity="0.98" stroke="#D7263D" stroke-width="1.8"/><text x="1018.5" y="463.0" font-family="ui-monospace, Menlo, Consolas, monospace" font-size="10" fill="#0b1220" style="paint-order:stroke;stroke:#ffffff;stroke-width:2.4;stroke-linejoin:round;">37.9 | 21.4G</text><line x1="1107.5" y1="451.1" x2="1117.5" y2="474.0" stroke="#7F3C8D" stroke-width="1.4" stroke-opacity="0.95"/><rect x="1117.5" y="472.0" width="84.0" height="18.0" rx="5" fill="#ffffff" fill-opacity="0.98" stroke="#7F3C8D" stroke-width="1.8"/><text x="1122.5" y="485.0" font-family="ui-monospace, Menlo, Consolas, monospace" font-size="10" fill="#0b1220" style="paint-order:stroke;stroke:#ffffff;stroke-width:2.4;stroke-linejoin:round;">38.6 | 23.7G</text><line x1="1430.0" y1="200.9" x2="1440.0" y2="179.6" stroke="#0057E7" stroke-width="1.4" stroke-opacity="0.95"/><rect x="1440.0" y="163.6" width="90.0" height="18.0" rx="5" fill="#ffffff" fill-opacity="0.98" stroke="#0057E7" stroke-width="1.8"/><text x="1445.0" y="176.6" font-family="ui-monospace, Menlo, Consolas, monospace" font-size="10" fill="#0b1220" style="paint-order:stroke;stroke:#ffffff;stroke-width:2.4;stroke-linejoin:round;">264.2 | 30.1G</text><line x1="1430.0" y1="202.4" x2="1440.0" y2="202.4" stroke="#00A676" stroke-width="1.4" stroke-opacity="0.95"/><rect x="1440.0" y="197.1" width="90.0" height="18.0" rx="5" fill="#ffffff" fill-opacity="0.98" stroke="#00A676" stroke-width="1.8"/><text x="1445.0" y="210.1" font-family="ui-monospace, Menlo, Consolas, monospace" font-size="10" fill="#0b1220" style="paint-order:stroke;stroke:#ffffff;stroke-width:2.4;stroke-linejoin:round;">262.9 | 30.1G</text><line x1="1430.0" y1="461.1" x2="1440.0" y2="433.9" stroke="#FF7F11" stroke-width="1.4" stroke-opacity="0.95"/><rect x="1440.0" y="417.9" width="84.0" height="18.0" rx="5" fill="#ffffff" fill-opacity="0.98" stroke="#FF7F11" stroke-width="1.8"/><text x="1445.0" y="430.9" font-family="ui-monospace, Menlo, Consolas, monospace" font-size="10" fill="#0b1220" style="paint-order:stroke;stroke:#ffffff;stroke-width:2.4;stroke-linejoin:round;">29.7 | 20.3G</text><line x1="1430.0" y1="451.2" x2="1440.0" y2="452.0" stroke="#D7263D" stroke-width="1.4" stroke-opacity="0.95"/><rect x="1440.0" y="450.0" width="84.0" height="18.0" rx="5" fill="#ffffff" fill-opacity="0.98" stroke="#D7263D" stroke-width="1.8"/><text x="1445.0" y="463.0" font-family="ui-monospace, Menlo, Consolas, monospace" font-size="10" fill="#0b1220" style="paint-order:stroke;stroke:#ffffff;stroke-width:2.4;stroke-linejoin:round;">38.5 | 21.4G</text><line x1="1430.0" y1="451.6" x2="1440.0" y2="474.0" stroke="#7F3C8D" stroke-width="1.4" stroke-opacity="0.95"/><rect x="1440.0" y="472.0" width="84.0" height="18.0" rx="5" fill="#ffffff" fill-opacity="0.98" stroke="#7F3C8D" stroke-width="1.8"/><text x="1445.0" y="485.0" font-family="ui-monospace, Menlo, Consolas, monospace" font-size="10" fill="#0b1220" style="paint-order:stroke;stroke:#ffffff;stroke-width:2.4;stroke-linejoin:round;">38.2 | 23.7G</text><line x1="1430.0" y1="944.7" x2="1422.0" y2="929.0" stroke="#0057E7" stroke-width="1.4" stroke-opacity="0.95"/><rect x="1183.0" y="913.0" width="239.0" height="18.0" rx="5" fill="#ffffff" fill-opacity="0.98" stroke="#0057E7" stroke-width="1.8"/><text x="1188.0" y="926.0" font-family="ui-monospace, Menlo, Consolas, monospace" font-size="10" fill="#0b1220" style="paint-order:stroke;stroke:#ffffff;stroke-width:2.4;stroke-linejoin:round;">vLLM prefix OFF  TTFT 3.2s  P95 18.8s</text><line x1="1430.0" y1="944.6" x2="1422.0" y2="944.6" stroke="#00A676" stroke-width="1.4" stroke-opacity="0.95"/><rect x="1189.0" y="942.0" width="233.0" height="18.0" rx="5" fill="#ffffff" fill-opacity="0.98" stroke="#00A676" stroke-width="1.8"/><text x="1194.0" y="955.0" font-family="ui-monospace, Menlo, Consolas, monospace" font-size="10" fill="#0b1220" style="paint-order:stroke;stroke:#ffffff;stroke-width:2.4;stroke-linejoin:round;">vLLM prefix ON  TTFT 3.2s  P95 18.9s</text><line x1="1430.0" y1="749.4" x2="1422.0" y2="664.9" stroke="#FF7F11" stroke-width="1.4" stroke-opacity="0.95"/><rect x="1195.0" y="648.9" width="227.0" height="18.0" rx="5" fill="#ffffff" fill-opacity="0.98" stroke="#FF7F11" stroke-width="1.8"/><text x="1200.0" y="661.9" font-family="ui-monospace, Menlo, Consolas, monospace" font-size="10" fill="#0b1220" style="paint-order:stroke;stroke:#ffffff;stroke-width:2.4;stroke-linejoin:round;">Ollama np=2  TTFT 77.4s  P95 166.7s</text><line x1="1430.0" y1="801.6" x2="1422.0" y2="774.0" stroke="#D7263D" stroke-width="1.4" stroke-opacity="0.95"/><rect x="1195.0" y="758.0" width="227.0" height="18.0" rx="5" fill="#ffffff" fill-opacity="0.98" stroke="#D7263D" stroke-width="1.8"/><text x="1200.0" y="771.0" font-family="ui-monospace, Menlo, Consolas, monospace" font-size="10" fill="#0b1220" style="paint-order:stroke;stroke:#ffffff;stroke-width:2.4;stroke-linejoin:round;">Ollama np=4  TTFT 57.4s  P95 127.4s</text><line x1="1430.0" y1="808.3" x2="1422.0" y2="798.0" stroke="#7F3C8D" stroke-width="1.4" stroke-opacity="0.95"/><rect x="1195.0" y="782.0" width="227.0" height="18.0" rx="5" fill="#ffffff" fill-opacity="0.98" stroke="#7F3C8D" stroke-width="1.8"/><text x="1200.0" y="795.0" font-family="ui-monospace, Menlo, Consolas, monospace" font-size="10" fill="#0b1220" style="paint-order:stroke;stroke:#ffffff;stroke-width:2.4;stroke-linejoin:round;">Ollama np=8  TTFT 48.1s  P95 129.1s</text></svg>