<svg xmlns="http://www.w3.org/2000/svg" width="1640" height="980" viewBox="0 0 1640 980">
  <defs>
    <linearGradient id="bg" x1="0" y1="0" x2="1" y2="1">
      <stop offset="0%" stop-color="#f8fbff"/>
      <stop offset="100%" stop-color="#f3f7ff"/>
    </linearGradient>
  </defs>
  <rect x="0" y="0" width="1640" height="980" fill="url(#bg)"/>
  <text x="52" y="42" font-family="ui-monospace, Menlo, Consolas, monospace" font-size="29" fill="#0f172a">
    Throughput by Concurrency (fixed_shared_prefix)
  </text>
  <text x="52" y="64" font-family="ui-monospace, Menlo, Consolas, monospace" font-size="13" fill="#475569">
    source=lane_benchmark_20260309_192836.json | timestamp_utc=2026-03-09T19:46:29.865312+00:00
  </text>
  <line x1="120" y1="82" x2="148" y2="82" stroke="#0b84f3" stroke-width="4"/><text x="156" y="86" font-family="ui-monospace, Menlo, Consolas, monospace" font-size="14" fill="#0f172a">vLLM prefix OFF</text><line x1="400" y1="82" x2="428" y2="82" stroke="#00a884" stroke-width="4"/><text x="436" y="86" font-family="ui-monospace, Menlo, Consolas, monospace" font-size="14" fill="#0f172a">vLLM prefix ON</text><line x1="680" y1="82" x2="708" y2="82" stroke="#f97316" stroke-width="4"/><text x="716" y="86" font-family="ui-monospace, Menlo, Consolas, monospace" font-size="14" fill="#0f172a">Ollama np=2</text><line x1="960" y1="82" x2="988" y2="82" stroke="#ef4444" stroke-width="4"/><text x="996" y="86" font-family="ui-monospace, Menlo, Consolas, monospace" font-size="14" fill="#0f172a">Ollama np=4</text><line x1="1240" y1="82" x2="1268" y2="82" stroke="#b45309" stroke-width="4"/><text x="1276" y="86" font-family="ui-monospace, Menlo, Consolas, monospace" font-size="14" fill="#0f172a">Ollama np=8</text>

  <line x1="120" y1="870.00" x2="1590" y2="870.00" stroke="#e9eef7" stroke-width="1"/><text x="108" y="874.00" font-family="ui-monospace, Menlo, Consolas, monospace" font-size="12" text-anchor="end" fill="#475569">0</text><line x1="120" y1="746.67" x2="1590" y2="746.67" stroke="#e9eef7" stroke-width="1"/><text x="108" y="750.67" font-family="ui-monospace, Menlo, Consolas, monospace" font-size="12" text-anchor="end" fill="#475569">64</text><line x1="120" y1="623.33" x2="1590" y2="623.33" stroke="#e9eef7" stroke-width="1"/><text x="108" y="627.33" font-family="ui-monospace, Menlo, Consolas, monospace" font-size="12" text-anchor="end" fill="#475569">127</text><line x1="120" y1="500.00" x2="1590" y2="500.00" stroke="#e9eef7" stroke-width="1"/><text x="108" y="504.00" font-family="ui-monospace, Menlo, Consolas, monospace" font-size="12" text-anchor="end" fill="#475569">191</text><line x1="120" y1="376.67" x2="1590" y2="376.67" stroke="#e9eef7" stroke-width="1"/><text x="108" y="380.67" font-family="ui-monospace, Menlo, Consolas, monospace" font-size="12" text-anchor="end" fill="#475569">255</text><line x1="120" y1="253.33" x2="1590" y2="253.33" stroke="#e9eef7" stroke-width="1"/><text x="108" y="257.33" font-family="ui-monospace, Menlo, Consolas, monospace" font-size="12" text-anchor="end" fill="#475569">318</text><line x1="120" y1="130.00" x2="1590" y2="130.00" stroke="#e9eef7" stroke-width="1"/><text x="108" y="134.00" font-family="ui-monospace, Menlo, Consolas, monospace" font-size="12" text-anchor="end" fill="#475569">382</text><line x1="120.00" y1="130" x2="120.00" y2="870" stroke="#f4f7fb" stroke-width="1"/><text x="120.00" y="898" font-family="ui-monospace, Menlo, Consolas, monospace" font-size="12" text-anchor="middle" fill="#334155">1</text><line x1="487.50" y1="130" x2="487.50" y2="870" stroke="#f4f7fb" stroke-width="1"/><text x="487.50" y="898" font-family="ui-monospace, Menlo, Consolas, monospace" font-size="12" text-anchor="middle" fill="#334155">4</text><line x1="855.00" y1="130" x2="855.00" y2="870" stroke="#f4f7fb" stroke-width="1"/><text x="855.00" y="898" font-family="ui-monospace, Menlo, Consolas, monospace" font-size="12" text-anchor="middle" fill="#334155">8</text><line x1="1222.50" y1="130" x2="1222.50" y2="870" stroke="#f4f7fb" stroke-width="1"/><text x="1222.50" y="898" font-family="ui-monospace, Menlo, Consolas, monospace" font-size="12" text-anchor="middle" fill="#334155">16</text><line x1="1590.00" y1="130" x2="1590.00" y2="870" stroke="#f4f7fb" stroke-width="1"/><text x="1590.00" y="898" font-family="ui-monospace, Menlo, Consolas, monospace" font-size="12" text-anchor="middle" fill="#334155">32</text>
  <line x1="120" y1="870" x2="1590" y2="870" stroke="#0f172a" stroke-width="2"/>
  <line x1="120" y1="130" x2="120" y2="870" stroke="#0f172a" stroke-width="2"/>

  <polyline points="120.00,832.98 487.50,733.91 855.00,602.51 1222.50,348.13 1590.00,209.29" fill="none" stroke="#0b84f3" stroke-width="3.8"/><circle cx="120.00" cy="832.98" r="4.6" fill="#0b84f3" stroke="#ffffff" stroke-width="1.2"/><text x="128.00" y="817.98" font-family="ui-monospace, Menlo, Consolas, monospace" font-size="10.8" fill="#0b84f3">19.1 | 30.1G</text><circle cx="487.50" cy="733.91" r="4.6" fill="#0b84f3" stroke="#ffffff" stroke-width="1.2"/><text x="495.50" y="718.91" font-family="ui-monospace, Menlo, Consolas, monospace" font-size="10.8" fill="#0b84f3">70.3 | 30.1G</text><circle cx="855.00" cy="602.51" r="4.6" fill="#0b84f3" stroke="#ffffff" stroke-width="1.2"/><text x="863.00" y="587.51" font-family="ui-monospace, Menlo, Consolas, monospace" font-size="10.8" fill="#0b84f3">138.1 | 30.1G</text><circle cx="1222.50" cy="348.13" r="4.6" fill="#0b84f3" stroke="#ffffff" stroke-width="1.2"/><text x="1230.50" y="333.13" font-family="ui-monospace, Menlo, Consolas, monospace" font-size="10.8" fill="#0b84f3">269.5 | 30.1G</text><circle cx="1590.00" cy="209.29" r="4.6" fill="#0b84f3" stroke="#ffffff" stroke-width="1.2"/><text x="1598.00" y="194.29" font-family="ui-monospace, Menlo, Consolas, monospace" font-size="10.8" fill="#0b84f3">341.2 | 30.1G</text><polyline points="120.00,833.77 487.50,737.43 855.00,608.84 1222.50,362.16 1590.00,212.19" fill="none" stroke="#00a884" stroke-width="3.8"/><circle cx="120.00" cy="833.77" r="4.6" fill="#00a884" stroke="#ffffff" stroke-width="1.2"/><text x="128.00" y="847.77" font-family="ui-monospace, Menlo, Consolas, monospace" font-size="10.8" fill="#00a884">18.7 | 30.1G</text><circle cx="487.50" cy="737.43" r="4.6" fill="#00a884" stroke="#ffffff" stroke-width="1.2"/><text x="495.50" y="751.43" font-family="ui-monospace, Menlo, Consolas, monospace" font-size="10.8" fill="#00a884">68.5 | 30.1G</text><circle cx="855.00" cy="608.84" r="4.6" fill="#00a884" stroke="#ffffff" stroke-width="1.2"/><text x="863.00" y="622.84" font-family="ui-monospace, Menlo, Consolas, monospace" font-size="10.8" fill="#00a884">134.9 | 30.1G</text><circle cx="1222.50" cy="362.16" r="4.6" fill="#00a884" stroke="#ffffff" stroke-width="1.2"/><text x="1230.50" y="376.16" font-family="ui-monospace, Menlo, Consolas, monospace" font-size="10.8" fill="#00a884">262.3 | 30.1G</text><circle cx="1590.00" cy="212.19" r="4.6" fill="#00a884" stroke="#ffffff" stroke-width="1.2"/><text x="1598.00" y="226.19" font-family="ui-monospace, Menlo, Consolas, monospace" font-size="10.8" fill="#00a884">339.7 | 30.1G</text><polyline points="120.00,837.65 487.50,812.77 855.00,809.05 1222.50,810.61 1590.00,809.59" fill="none" stroke="#f97316" stroke-width="3.8"/><circle cx="120.00" cy="837.65" r="4.6" fill="#f97316" stroke="#ffffff" stroke-width="1.2"/><text x="128.00" y="817.65" font-family="ui-monospace, Menlo, Consolas, monospace" font-size="10.8" fill="#f97316">16.7 | 20.3G</text><circle cx="487.50" cy="812.77" r="4.6" fill="#f97316" stroke="#ffffff" stroke-width="1.2"/><text x="495.50" y="792.77" font-family="ui-monospace, Menlo, Consolas, monospace" font-size="10.8" fill="#f97316">29.6 | 20.3G</text><circle cx="855.00" cy="809.05" r="4.6" fill="#f97316" stroke="#ffffff" stroke-width="1.2"/><text x="863.00" y="789.05" font-family="ui-monospace, Menlo, Consolas, monospace" font-size="10.8" fill="#f97316">31.5 | 20.3G</text><circle cx="1222.50" cy="810.61" r="4.6" fill="#f97316" stroke="#ffffff" stroke-width="1.2"/><text x="1230.50" y="790.61" font-family="ui-monospace, Menlo, Consolas, monospace" font-size="10.8" fill="#f97316">30.7 | 20.3G</text><circle cx="1590.00" cy="809.59" r="4.6" fill="#f97316" stroke="#ffffff" stroke-width="1.2"/><text x="1598.00" y="789.59" font-family="ui-monospace, Menlo, Consolas, monospace" font-size="10.8" fill="#f97316">31.2 | 20.3G</text><polyline points="120.00,837.18 487.50,793.18 855.00,788.05 1222.50,789.37 1590.00,789.17" fill="none" stroke="#ef4444" stroke-width="3.8"/><circle cx="120.00" cy="837.18" r="4.6" fill="#ef4444" stroke="#ffffff" stroke-width="1.2"/><text x="128.00" y="853.18" font-family="ui-monospace, Menlo, Consolas, monospace" font-size="10.8" fill="#ef4444">16.9 | 21.4G</text><circle cx="487.50" cy="793.18" r="4.6" fill="#ef4444" stroke="#ffffff" stroke-width="1.2"/><text x="495.50" y="809.18" font-family="ui-monospace, Menlo, Consolas, monospace" font-size="10.8" fill="#ef4444">39.7 | 21.4G</text><circle cx="855.00" cy="788.05" r="4.6" fill="#ef4444" stroke="#ffffff" stroke-width="1.2"/><text x="863.00" y="804.05" font-family="ui-monospace, Menlo, Consolas, monospace" font-size="10.8" fill="#ef4444">42.3 | 21.4G</text><circle cx="1222.50" cy="789.37" r="4.6" fill="#ef4444" stroke="#ffffff" stroke-width="1.2"/><text x="1230.50" y="805.37" font-family="ui-monospace, Menlo, Consolas, monospace" font-size="10.8" fill="#ef4444">41.6 | 21.4G</text><circle cx="1590.00" cy="789.17" r="4.6" fill="#ef4444" stroke="#ffffff" stroke-width="1.2"/><text x="1598.00" y="805.17" font-family="ui-monospace, Menlo, Consolas, monospace" font-size="10.8" fill="#ef4444">41.7 | 21.4G</text><polyline points="120.00,837.44 487.50,798.43 855.00,788.97 1222.50,787.03 1590.00,785.94" fill="none" stroke="#b45309" stroke-width="3.8"/><circle cx="120.00" cy="837.44" r="4.6" fill="#b45309" stroke="#ffffff" stroke-width="1.2"/><text x="128.00" y="867.44" font-family="ui-monospace, Menlo, Consolas, monospace" font-size="10.8" fill="#b45309">16.8 | 23.7G</text><circle cx="487.50" cy="798.43" r="4.6" fill="#b45309" stroke="#ffffff" stroke-width="1.2"/><text x="495.50" y="828.43" font-family="ui-monospace, Menlo, Consolas, monospace" font-size="10.8" fill="#b45309">37.0 | 23.7G</text><circle cx="855.00" cy="788.97" r="4.6" fill="#b45309" stroke="#ffffff" stroke-width="1.2"/><text x="863.00" y="818.97" font-family="ui-monospace, Menlo, Consolas, monospace" font-size="10.8" fill="#b45309">41.8 | 23.7G</text><circle cx="1222.50" cy="787.03" r="4.6" fill="#b45309" stroke="#ffffff" stroke-width="1.2"/><text x="1230.50" y="817.03" font-family="ui-monospace, Menlo, Consolas, monospace" font-size="10.8" fill="#b45309">42.8 | 23.7G</text><circle cx="1590.00" cy="785.94" r="4.6" fill="#b45309" stroke="#ffffff" stroke-width="1.2"/><text x="1598.00" y="815.94" font-family="ui-monospace, Menlo, Consolas, monospace" font-size="10.8" fill="#b45309">43.4 | 23.7G</text>

  <text x="855.0" y="944" font-family="ui-monospace, Menlo, Consolas, monospace" font-size="15" text-anchor="middle" fill="#0f172a">
    Concurrency
  </text>
  <text x="30" y="500.0" font-family="ui-monospace, Menlo, Consolas, monospace" font-size="15" text-anchor="middle" transform="rotate(-90 30,500.0)" fill="#0f172a">
    Aggregate throughput (tok/s)
  </text>
  <text x="52" y="964" font-family="ui-monospace, Menlo, Consolas, monospace" font-size="12" fill="#64748b">
    Point label format: tok/s | peak total GPU memory (GiB)
  </text>
</svg>
