<svg width="400" height="400" viewBox="0 0 400 400" fill="none" xmlns="http://www.w3.org/2000/svg">
<g clip-path="url(#clip0_22_10)">
<rect width="400" height="400" rx="105" fill="url(#paint0_linear_22_10)"/>
<path d="M179.491 226.399C181.771 228.447 185.229 228.447 187.509 226.399L206.923 208.964C211.016 205.288 208.416 198.5 202.914 198.5H164.086C158.584 198.5 155.984 205.288 160.077 208.964L179.491 226.399Z" fill="white"/>
<path d="M152 52C164.2 52.0001 175.901 56.8462 184.527 65.4727C193.119 74.0641 197.96 85.7046 197.999 97.8506C198 97.8515 198.001 97.8525 198.001 97.8525V98C198.001 98.172 198 98.5354 198 99.25V117C198 123.156 195.252 128.124 192.401 131.827C189.59 135.478 185.875 138.918 182.284 142.086C174.718 148.759 166.085 155.652 157.486 165.533C144.169 180.837 130.849 203.541 128.034 241.251H247.001C257.837 241.251 270.104 243.798 279.527 253.222C287.865 261.559 292.501 270.915 292.501 283.5C292.501 296.085 287.865 305.441 279.527 313.778C274.166 319.14 267.924 321.387 262.148 322.32C256.825 323.18 251.07 323 247.001 323H157C143.474 323 130.503 317.626 120.938 308.062C111.126 298.25 106.878 286.211 106.022 272.694C102.09 210.562 120.548 174.467 140.89 151.092C150.728 139.786 161.002 131.522 167.732 125.586C171.289 122.449 173.571 120.221 174.969 118.405C175.666 117.499 175.919 116.98 176 116.778V99.25C176 98.5361 176.001 98.1724 176.001 98L175.993 97.4043C175.841 91.2551 173.331 85.3896 168.971 81.0293C164.47 76.5287 158.365 74.0001 152 74C146.741 74.0001 142.503 75.7306 139.494 77.5449C137.994 78.4493 136.859 79.341 136.142 79.9629C135.786 80.2708 135.543 80.5044 135.418 80.6279C135.358 80.6869 135.327 80.7207 135.324 80.7236C135.325 80.7222 135.333 80.7136 135.348 80.6982L135.396 80.6445C135.4 80.6408 135.404 80.6368 135.407 80.6328L135.408 80.6309C135.093 80.979 134.756 81.3072 134.399 81.6123C134.401 81.6112 134.405 81.6083 134.407 81.6064C134.412 81.6026 134.416 81.5983 134.42 81.5947C134.428 81.5875 134.437 81.5806 134.444 81.5742C134.459 81.5613 134.472 81.5492 134.482 81.54C134.503 81.5222 134.515 81.5116 134.519 81.5078C134.513 81.5136 134.489 81.5359 134.449 81.5742C134.342 81.6774 134.125 81.8933 133.834 82.2178C133.246 82.8723 132.386 83.9332 131.508 85.3682C129.763 88.2194 128.001 92.4424 128.001 98V135.842C120.879 142.418 113.893 152.073 107.901 161.484C107.475 162.154 107.052 162.826 106.632 163.5H106.001V98C106.001 87.5578 109.364 79.406 112.744 73.8828C114.428 71.131 116.132 69.0043 117.466 67.5186C118.135 66.7731 118.719 66.1799 119.173 65.7422C119.314 65.6062 119.444 65.4866 119.559 65.3799C119.67 65.2659 119.797 65.1355 119.94 64.9932C120.382 64.556 120.983 63.9886 121.736 63.3359C123.237 62.0357 125.383 60.3642 128.133 58.7061C133.623 55.395 141.759 52.0001 152 52ZM127.6 263.251C127.68 265.875 127.805 268.56 127.978 271.306C128.579 280.788 131.304 287.315 136.494 292.506C141.932 297.944 149.309 301 157 301H247.001C252.213 301 255.552 301.102 258.641 300.603C261.277 300.177 262.768 299.424 263.971 298.222C268.76 293.432 270.501 289.48 270.501 283.5C270.501 277.52 268.76 273.568 263.971 268.778C260.267 265.075 254.729 263.251 247.001 263.251H127.6Z" fill="white"/>
<path d="M195 213.5C195 219.575 190.075 224.5 184 224.5C177.925 224.5 173 219.575 173 213.5V176.296C175.891 173.265 179.751 169.501 185.068 164.646C188.233 161.757 191.666 158.279 195 154.734V213.5Z" fill="white"/>
</g>
<defs>
<linearGradient id="paint0_linear_22_10" x1="141.443" y1="224.045" x2="424.328" y2="-58.8402" gradientUnits="userSpaceOnUse">
<stop stop-color="#7C3AED"/>
<stop offset="1" stop-color="#6366F6"/>
</linearGradient>
<clipPath id="clip0_22_10">
<rect width="400" height="400" fill="white"/>
</clipPath>
</defs>
</svg>
